<?xml version="1.0" encoding="us-ascii" standalone="no"?><svg xmlns="http://www.w3.org/2000/svg" xmlns:xlink="http://www.w3.org/1999/xlink" contentStyleType="text/css" height="1305px" preserveAspectRatio="none" style="width:814px;height:1305px;background:#FFFFFF;" version="1.1" viewBox="0 0 814 1305" width="814px" zoomAndPan="magnify"><defs/><g><!--cluster MiniSocs--><g id="cluster_MiniSocs"><rect fill="none" height="1292" rx="2.5" ry="2.5" style="stroke:#181818;stroke-width:1.0;" width="413" x="395" y="7"/><text fill="#000000" font-family="sans-serif" font-size="14" font-weight="bold" lengthAdjust="spacing" textLength="69" x="567" y="21.9951">MiniSocs</text></g><g id="elem_ajouter un utilisateur"><ellipse cx="601.6728" cy="312.8346" fill="#FFFFFF" rx="89.6728" ry="20.3346" style="stroke:#000000;stroke-width:0.5;"/><text fill="#000000" font-family="sans-serif" font-size="14" lengthAdjust="spacing" textLength="141" x="531.1728" y="315.6812">ajouter un utilisateur</text></g><g id="elem_lister les utilisateur"><ellipse cx="601.495" cy="61.199" fill="#FFFFFF" rx="83.995" ry="19.199" style="stroke:#000000;stroke-width:0.5;"/><text fill="#000000" font-family="sans-serif" font-size="14" lengthAdjust="spacing" textLength="128" x="537.2335" y="64.1356">lister les utilisateur</text></g><g id="elem_bloquer un compte utilisateur"><ellipse cx="601.4616" cy="140.9923" fill="#FFFFFF" rx="117.9616" ry="25.9923" style="stroke:#000000;stroke-width:0.5;"/><text fill="#000000" font-family="sans-serif" font-size="14" lengthAdjust="spacing" textLength="203" x="499.9616" y="143.839">bloquer un compte utilisateur</text></g><g id="elem_d&#233;bloquer un compte utilisateur"><ellipse cx="601.4187" cy="230.1837" fill="#FFFFFF" rx="126.4187" ry="27.6837" style="stroke:#000000;stroke-width:0.5;"/><text fill="#000000" font-family="sans-serif" font-size="14" lengthAdjust="spacing" textLength="221" x="490.9187" y="233.0304">d&#233;bloquer un compte utilisateur</text></g><g id="elem_d&#233;sactiver son compte"><ellipse cx="601.2599" cy="1107.852" fill="#FFFFFF" rx="97.2599" ry="21.852" style="stroke:#000000;stroke-width:0.5;"/><text fill="#000000" font-family="sans-serif" font-size="14" lengthAdjust="spacing" textLength="158" x="522.2599" y="1110.6987">d&#233;sactiver son compte</text></g><g id="elem_activer son compte"><ellipse cx="601.728" cy="1185.0456" fill="#FFFFFF" rx="85.728" ry="19.5456" style="stroke:#000000;stroke-width:0.5;"/><text fill="#000000" font-family="sans-serif" font-size="14" lengthAdjust="spacing" textLength="132" x="535.728" y="1187.8923">activer son compte</text></g><g id="elem_cr&#233;er un r&#233;seau social"><ellipse cx="601.5118" cy="1260.9024" fill="#FFFFFF" rx="95.0118" ry="21.4024" style="stroke:#000000;stroke-width:0.5;"/><text fill="#000000" font-family="sans-serif" font-size="14" lengthAdjust="spacing" textLength="153" x="525.0118" y="1263.749">cr&#233;er un r&#233;seau social</text></g><g id="elem_mod&#233;rer un message"><ellipse cx="601.7229" cy="390.0446" fill="#FFFFFF" rx="93.2229" ry="21.0446" style="stroke:#000000;stroke-width:0.5;"/><text fill="#000000" font-family="sans-serif" font-size="14" lengthAdjust="spacing" textLength="149" x="527.2229" y="392.8913">mod&#233;rer un message</text></g><g id="elem_inviter un utilisateur sur un r&#233;seau social"><ellipse cx="601.6339" cy="479.0268" fill="#FFFFFF" rx="153.1339" ry="33.0268" style="stroke:#000000;stroke-width:0.5;"/><text fill="#000000" font-family="sans-serif" font-size="14" lengthAdjust="spacing" textLength="277" x="463.1339" y="481.8735">inviter un utilisateur sur un r&#233;seau social</text></g><g id="elem_fermer son r&#233;seau social"><ellipse cx="601.7042" cy="569.9408" fill="#FFFFFF" rx="102.7042" ry="22.9408" style="stroke:#000000;stroke-width:0.5;"/><text fill="#000000" font-family="sans-serif" font-size="14" lengthAdjust="spacing" textLength="170" x="516.7042" y="572.7875">fermer son r&#233;seau social</text></g><g id="elem_bloquer un membre sur son r&#233;seau social bonus"><ellipse cx="601.7063" cy="667.2413" fill="#FFFFFF" rx="181.7063" ry="38.7413" style="stroke:#000000;stroke-width:0.5;"/><text fill="#000000" font-family="sans-serif" font-size="14" lengthAdjust="spacing" textLength="336" x="433.7063" y="670.0879">bloquer un membre sur son r&#233;seau social bonus</text></g><g id="elem_d&#233;bloquer un membre sur son r&#233;seau social bonus"><ellipse cx="601.4805" cy="780.9961" fill="#FFFFFF" rx="190.4805" ry="40.4961" style="stroke:#000000;stroke-width:0.5;"/><text fill="#000000" font-family="sans-serif" font-size="14" lengthAdjust="spacing" textLength="354" x="424.4805" y="783.8428">d&#233;bloquer un membre sur son r&#233;seau social bonus</text></g><g id="elem_poster un message"><ellipse cx="601.5368" cy="876.8074" fill="#FFFFFF" rx="87.0368" ry="19.8074" style="stroke:#000000;stroke-width:0.5;"/><text fill="#000000" font-family="sans-serif" font-size="14" lengthAdjust="spacing" textLength="135" x="534.0368" y="879.654">poster un message</text></g><g id="elem_cacher un message"><ellipse cx="601.4128" cy="951.9826" fill="#FFFFFF" rx="87.9128" ry="19.9826" style="stroke:#000000;stroke-width:0.5;"/><text fill="#000000" font-family="sans-serif" font-size="14" lengthAdjust="spacing" textLength="137" x="532.9128" y="954.8292">cacher un message</text></g><g id="elem_quitter un r&#233;seau social"><ellipse cx="601.5673" cy="1029.2135" fill="#FFFFFF" rx="99.0673" ry="22.2135" style="stroke:#000000;stroke-width:0.5;"/><text fill="#000000" font-family="sans-serif" font-size="14" lengthAdjust="spacing" textLength="162" x="520.5673" y="1032.0601">quitter un r&#233;seau social</text></g><!--entity Administrateur--><g id="elem_Administrateur"><ellipse cx="301" cy="200.5" fill="#F1F1F1" rx="8" ry="8" style="stroke:#181818;stroke-width:0.5;"/><path d="M301,208.5 L301,235.5 M288,216.5 L314,216.5 M301,235.5 L288,250.5 M301,235.5 L314,250.5 " fill="none" style="stroke:#181818;stroke-width:0.5;"/><text fill="#000000" font-family="sans-serif" font-size="14" lengthAdjust="spacing" textLength="100" x="251" y="264.9951">Administrateur</text></g><!--entity Utilisateur--><g id="elem_Utilisateur"><ellipse cx="40" cy="1078.5" fill="#F1F1F1" rx="8" ry="8" style="stroke:#181818;stroke-width:0.5;"/><path d="M40,1086.5 L40,1113.5 M27,1094.5 L53,1094.5 M40,1113.5 L27,1128.5 M40,1113.5 L53,1128.5 " fill="none" style="stroke:#181818;stroke-width:0.5;"/><text fill="#000000" font-family="sans-serif" font-size="14" lengthAdjust="spacing" textLength="68" x="6" y="1142.9951">Utilisateur</text></g><!--entity Membre--><g id="elem_Membre"><ellipse cx="162.5" cy="922.5" fill="#F1F1F1" rx="8" ry="8" style="stroke:#181818;stroke-width:0.5;"/><path d="M162.5,930.5 L162.5,957.5 M149.5,938.5 L175.5,938.5 M162.5,957.5 L149.5,972.5 M162.5,957.5 L175.5,972.5 " fill="none" style="stroke:#181818;stroke-width:0.5;"/><text fill="#000000" font-family="sans-serif" font-size="14" lengthAdjust="spacing" textLength="57" x="134" y="986.9951">Membre</text></g><!--entity Moderateur--><g id="elem_Moderateur"><ellipse cx="301" cy="589.5" fill="#F1F1F1" rx="8" ry="8" style="stroke:#181818;stroke-width:0.5;"/><path d="M301,597.5 L301,624.5 M288,605.5 L314,605.5 M301,624.5 L288,639.5 M301,624.5 L314,639.5 " fill="none" style="stroke:#181818;stroke-width:0.5;"/><text fill="#000000" font-family="sans-serif" font-size="14" lengthAdjust="spacing" textLength="80" x="261" y="653.9951">Moderateur</text></g><!--reverse link Utilisateur to Administrateur--><g id="link_Utilisateur_Administrateur"><path d="M57.3033,1052.7256 C99.8833,908.3956 246.19,412.42 288.78,268.04 " fill="none" id="Utilisateur-backto-Administrateur" style="stroke:#000000;stroke-width:1.0;"/><polygon fill="none" points="52.21,1069.99,63.0581,1054.4234,51.5485,1051.0279,52.21,1069.99" style="stroke:#000000;stroke-width:1.0;"/></g><!--reverse link Membre to Moderateur--><g id="link_Membre_Moderateur"><path d="M185.9858,897.1444 C212.2758,832.9944 258.18,721.03 284.42,657.01 " fill="none" id="Membre-backto-Moderateur" style="stroke:#000000;stroke-width:1.0;"/><polygon fill="none" points="179.16,913.8,191.5377,899.4197,180.4339,894.8692,179.16,913.8" style="stroke:#000000;stroke-width:1.0;"/></g><!--reverse link Utilisateur to Membre--><g id="link_Utilisateur_Membre"><path d="M81.4825,1055.5941 C100.8525,1030.5141 115.02,1012.18 133.98,987.63 " fill="none" id="Utilisateur-backto-Membre" style="stroke:#000000;stroke-width:1.0;"/><polygon fill="none" points="70.48,1069.84,86.2311,1059.2616,76.7339,1051.9266,70.48,1069.84" style="stroke:#000000;stroke-width:1.0;"/></g><!--link Administrateur to ajouter un utilisateur--><g id="link_Administrateur_ajouter un utilisateur"><path d="M351.18,259.33 C362.63,265.23 375,270.87 387,275 C429.63,289.67 479.09,298.93 519.67,304.64 " fill="none" id="Administrateur-ajouter un utilisateur" style="stroke:#000000;stroke-width:1.0;"/></g><!--link Administrateur to lister les utilisateur--><g id="link_Administrateur_lister les utilisateur"><path d="M316.15,191.84 C329.59,161.17 352.84,119.61 387,97 C425.24,71.69 475.52,62.33 517.68,59.46 " fill="none" id="Administrateur-lister les utilisateur" style="stroke:#000000;stroke-width:1.0;"/></g><!--link Administrateur to bloquer un compte utilisateur--><g id="link_Administrateur_bloquer un compte utilisateur"><path d="M351.26,200.91 C362.72,195 375.06,189.29 387,185 C423.77,171.78 465.61,162.07 502.45,155.18 " fill="none" id="Administrateur-bloquer un compte utilisateur" style="stroke:#000000;stroke-width:1.0;"/></g><!--link Administrateur to d?bloquer un compte utilisateur--><g id="link_Administrateur_d&#233;bloquer un compte utilisateur"><path d="M351.29,230 C384.99,230 431.27,230 474.8,230 " fill="none" id="Administrateur-d&#233;bloquer un compte utilisateur" style="stroke:#000000;stroke-width:1.0;"/></g><!--link Utilisateur to d?sactiver son compte--><g id="link_Utilisateur_d&#233;sactiver son compte"><path d="M74.32,1108 C157.37,1108 376.02,1108 503.81,1108 " fill="none" id="Utilisateur-d&#233;sactiver son compte" style="stroke:#000000;stroke-width:1.0;"/></g><!--link Utilisateur to activer son compte--><g id="link_Utilisateur_activer son compte"><path d="M74.32,1112.59 C162.78,1124.76 405.09,1158.11 527.57,1174.96 " fill="none" id="Utilisateur-activer son compte" style="stroke:#000000;stroke-width:1.0;"/></g><!--link Utilisateur to cr?er un r?seau social--><g id="link_Utilisateur_cr&#233;er un r&#233;seau social"><path d="M74.43,1120.73 C135.66,1143.65 270.25,1192.25 387,1222 C431.09,1233.23 481.09,1242.55 521.61,1249.25 " fill="none" id="Utilisateur-cr&#233;er un r&#233;seau social" style="stroke:#000000;stroke-width:1.0;"/></g><!--link Moderateur to mod?rer un message--><g id="link_Moderateur_mod&#233;rer un message"><path d="M308.04,580.91 C317.13,536.94 338.7,465.81 387,428 C421.24,401.2 468.05,390.85 509.1,387.56 " fill="none" id="Moderateur-mod&#233;rer un message" style="stroke:#000000;stroke-width:1.0;"/></g><!--link Moderateur to inviter un utilisateur sur un r?seau social--><g id="link_Moderateur_inviter un utilisateur sur un r&#233;seau social"><path d="M329.55,580.67 C344.57,562.44 364.64,541.86 387,529 C412.66,514.24 442.42,503.84 471.43,496.5 " fill="none" id="Moderateur-inviter un utilisateur sur un r&#233;seau social" style="stroke:#000000;stroke-width:1.0;"/></g><!--link Moderateur to fermer son r?seau social--><g id="link_Moderateur_fermer son r&#233;seau social"><path d="M341.02,612.59 C385.83,605.24 460.57,592.97 518.36,583.48 " fill="none" id="Moderateur-fermer son r&#233;seau social" style="stroke:#000000;stroke-width:1.0;"/></g><!--link Moderateur to bloquer un membre sur son r?seau social bonus--><g id="link_Moderateur_bloquer un membre sur son r&#233;seau social bonus"><path d="M341.02,625.28 C370.81,630.07 413.84,636.98 456.32,643.81 " fill="none" id="Moderateur-bloquer un membre sur son r&#233;seau social bonus" style="stroke:#000000;stroke-width:1.0;"/></g><!--link Moderateur to d?bloquer un membre sur son r?seau social bonus--><g id="link_Moderateur_d&#233;bloquer un membre sur son r&#233;seau social bonus"><path d="M324.5,657.03 C339.55,679.33 361.27,706.31 387,723 C407.78,736.48 431.65,746.85 455.72,754.82 " fill="none" id="Moderateur-d&#233;bloquer un membre sur son r&#233;seau social bonus" style="stroke:#000000;stroke-width:1.0;"/></g><!--link Membre to poster un message--><g id="link_Membre_poster un message"><path d="M191.2,942.61 C208.28,937.12 230.71,930.41 251,926 C342.75,906.05 449.9,892.43 521.13,884.7 " fill="none" id="Membre-poster un message" style="stroke:#000000;stroke-width:1.0;"/></g><!--link Membre to cacher un message--><g id="link_Membre_cacher un message"><path d="M191.17,952 C254.68,952 413.13,952 513.22,952 " fill="none" id="Membre-cacher un message" style="stroke:#000000;stroke-width:1.0;"/></g><!--link Membre to quitter un r?seau social--><g id="link_Membre_quitter un r&#233;seau social"><path d="M191.17,956.88 C256.83,968.45 424,997.9 523.22,1015.38 " fill="none" id="Membre-quitter un r&#233;seau social" style="stroke:#000000;stroke-width:1.0;"/></g><!--SRC=[ZLBBRXin3BphAuXSDZxa1nP6W3W1saCD50Y2dcc9NYkHH4UF14MR_wc_mpzMxiEm7MzhxqbBpWn7GrKF5fk8tXCO0eq9J5MoTJPXjXpW-hl3a9_ctoQLKjKzXwLjIknxUeKn4mXzlRAlXIgLNcnOeyX1IIHY1B_K3FLB4xa4Sy-E8_nOsKngnj5Gx2ip9n1r5oE_7nLqvlY9FPt2r-8nmEqjV65dr8TIZfOPCaEqpIg3iP5qQq_iFcmtsk7Wrb02r9bAJ51N2bjrk3FU1fkoOAGn59-6- -yhS_ABIBiV5kTzzm09qzytDv_rUXvqNzV_7tSOCcBxT2q6Gm97a7wclFtZ9VhsrXWQgLtDnS8ZwtGbwTV7ZcgGGTVup2LJX1AWx5rCni7IRh5EV9m7BnpBG-YKDVkrl8xp7BFTdA6f-Y2ikWrpu2NPY7qJOk8TSp8ElXYeutRJEv538Yn2qHPTwsA_lGxUuJsBZzWpFAM4JQiyXhJXpPwc3gcCJODnZIL5FzpYCi91ihv_ZEsyKpuiE9Jq3-V76xf8HuGwM2-o4rfpoYTHZU0qwjKbkDTYSnxVreVw2m00]--></g></svg>