<?xml version="1.0" encoding="us-ascii" standalone="no"?><svg xmlns="http://www.w3.org/2000/svg" xmlns:xlink="http://www.w3.org/1999/xlink" contentStyleType="text/css" height="888px" preserveAspectRatio="none" style="width:552px;height:888px;background:#FFFFFF;" version="1.1" viewBox="0 0 552 888" width="552px" zoomAndPan="magnify"><defs/><g><!--cluster MiniSocs--><g id="cluster_MiniSocs"><rect fill="none" height="875" rx="2.5" ry="2.5" style="stroke:#181818;stroke-width:1.0;" width="268" x="278" y="7"/><text fill="#000000" font-family="sans-serif" font-size="14" font-weight="bold" lengthAdjust="spacing" textLength="69" x="377.5" y="21.9951">MiniSocs</text></g><g id="elem_ajouter un utilisateur"><ellipse cx="412.1728" cy="62.8346" fill="#FFFFFF" rx="89.6728" ry="20.3346" style="stroke:#000000;stroke-width:0.5;"/><text fill="#000000" font-family="sans-serif" font-size="14" lengthAdjust="spacing" textLength="141" x="341.6728" y="65.6812">ajouter un utilisateur</text></g><g id="elem_lister les utilisateur"><ellipse cx="411.995" cy="138.199" fill="#FFFFFF" rx="83.995" ry="19.199" style="stroke:#000000;stroke-width:0.5;"/><text fill="#000000" font-family="sans-serif" font-size="14" lengthAdjust="spacing" textLength="128" x="347.7335" y="141.1356">lister les utilisateur</text></g><g id="elem_bloquer un compte utilisateur"><ellipse cx="411.9616" cy="217.9923" fill="#FFFFFF" rx="117.9616" ry="25.9923" style="stroke:#000000;stroke-width:0.5;"/><text fill="#000000" font-family="sans-serif" font-size="14" lengthAdjust="spacing" textLength="203" x="310.4616" y="220.839">bloquer un compte utilisateur</text></g><g id="elem_d&#233;sactiver son compte"><ellipse cx="411.7599" cy="300.852" fill="#FFFFFF" rx="97.2599" ry="21.852" style="stroke:#000000;stroke-width:0.5;"/><text fill="#000000" font-family="sans-serif" font-size="14" lengthAdjust="spacing" textLength="158" x="332.7599" y="303.6987">d&#233;sactiver son compte</text></g><g id="elem_activer son compte"><ellipse cx="412.228" cy="378.0456" fill="#FFFFFF" rx="85.728" ry="19.5456" style="stroke:#000000;stroke-width:0.5;"/><text fill="#000000" font-family="sans-serif" font-size="14" lengthAdjust="spacing" textLength="132" x="346.228" y="380.8923">activer son compte</text></g><g id="elem_cr&#233;er un r&#233;seau social"><ellipse cx="412.0118" cy="453.9024" fill="#FFFFFF" rx="95.0118" ry="21.4024" style="stroke:#000000;stroke-width:0.5;"/><text fill="#000000" font-family="sans-serif" font-size="14" lengthAdjust="spacing" textLength="153" x="335.5118" y="456.749">cr&#233;er un r&#233;seau social</text></g><g id="elem_rejoindre un r&#233;seau social"><ellipse cx="411.8679" cy="534.1736" fill="#FFFFFF" rx="106.3679" ry="23.6736" style="stroke:#000000;stroke-width:0.5;"/><text fill="#000000" font-family="sans-serif" font-size="14" lengthAdjust="spacing" textLength="178" x="322.8679" y="537.0203">rejoindre un r&#233;seau social</text></g><g id="elem_mod&#233;rer un message"><ellipse cx="412.2229" cy="614.0446" fill="#FFFFFF" rx="93.2229" ry="21.0446" style="stroke:#000000;stroke-width:0.5;"/><text fill="#000000" font-family="sans-serif" font-size="14" lengthAdjust="spacing" textLength="149" x="337.7229" y="616.8913">mod&#233;rer un message</text></g><g id="elem_fermer son r&#233;seau social"><ellipse cx="412.2042" cy="692.9408" fill="#FFFFFF" rx="102.7042" ry="22.9408" style="stroke:#000000;stroke-width:0.5;"/><text fill="#000000" font-family="sans-serif" font-size="14" lengthAdjust="spacing" textLength="170" x="327.2042" y="695.7875">fermer son r&#233;seau social</text></g><g id="elem_poster un message"><ellipse cx="412.0368" cy="770.8074" fill="#FFFFFF" rx="87.0368" ry="19.8074" style="stroke:#000000;stroke-width:0.5;"/><text fill="#000000" font-family="sans-serif" font-size="14" lengthAdjust="spacing" textLength="135" x="344.5368" y="773.654">poster un message</text></g><g id="elem_cacher un message"><ellipse cx="411.9128" cy="845.9826" fill="#FFFFFF" rx="87.9128" ry="19.9826" style="stroke:#000000;stroke-width:0.5;"/><text fill="#000000" font-family="sans-serif" font-size="14" lengthAdjust="spacing" textLength="137" x="343.4128" y="848.8292">cacher un message</text></g><!--entity Administrateur--><g id="elem_Administrateur"><ellipse cx="184" cy="146.5" fill="#F1F1F1" rx="8" ry="8" style="stroke:#181818;stroke-width:0.5;"/><path d="M184,154.5 L184,181.5 M171,162.5 L197,162.5 M184,181.5 L171,196.5 M184,181.5 L197,196.5 " fill="none" style="stroke:#181818;stroke-width:0.5;"/><text fill="#000000" font-family="sans-serif" font-size="14" lengthAdjust="spacing" textLength="100" x="134" y="210.9951">Administrateur</text></g><!--entity Utilisateur--><g id="elem_Utilisateur"><ellipse cx="40" cy="348.5" fill="#F1F1F1" rx="8" ry="8" style="stroke:#181818;stroke-width:0.5;"/><path d="M40,356.5 L40,383.5 M27,364.5 L53,364.5 M40,383.5 L27,398.5 M40,383.5 L53,398.5 " fill="none" style="stroke:#181818;stroke-width:0.5;"/><text fill="#000000" font-family="sans-serif" font-size="14" lengthAdjust="spacing" textLength="68" x="6" y="412.9951">Utilisateur</text></g><!--entity Membre--><g id="elem_Membre"><ellipse cx="40" cy="743.5" fill="#F1F1F1" rx="8" ry="8" style="stroke:#181818;stroke-width:0.5;"/><path d="M40,751.5 L40,778.5 M27,759.5 L53,759.5 M40,778.5 L27,793.5 M40,778.5 L53,793.5 " fill="none" style="stroke:#181818;stroke-width:0.5;"/><text fill="#000000" font-family="sans-serif" font-size="14" lengthAdjust="spacing" textLength="57" x="11.5" y="807.9951">Membre</text></g><!--entity Moderateur--><g id="elem_Moderateur"><ellipse cx="184" cy="652.5" fill="#F1F1F1" rx="8" ry="8" style="stroke:#181818;stroke-width:0.5;"/><path d="M184,660.5 L184,687.5 M171,668.5 L197,668.5 M184,687.5 L171,702.5 M184,687.5 L197,702.5 " fill="none" style="stroke:#181818;stroke-width:0.5;"/><text fill="#000000" font-family="sans-serif" font-size="14" lengthAdjust="spacing" textLength="80" x="144" y="716.9951">Moderateur</text></g><!--reverse link Utilisateur to Administrateur--><g id="link_Utilisateur_Administrateur"><path d="M78.3931,324.8054 C103.6631,288.8654 130.82,250.22 156.06,214.33 " fill="none" id="Utilisateur-backto-Administrateur" style="stroke:#000000;stroke-width:1.0;"/><polygon fill="none" points="68.04,339.53,83.3013,328.2564,73.4849,321.3544,68.04,339.53" style="stroke:#000000;stroke-width:1.0;"/></g><!--reverse link Membre to Moderateur--><g id="link_Membre_Moderateur"><path d="M83.8723,745.5236 C105.2523,731.8136 119.97,722.39 143.8,707.12 " fill="none" id="Membre-backto-Moderateur" style="stroke:#000000;stroke-width:1.0;"/><polygon fill="none" points="68.72,755.24,87.1111,750.5743,80.6334,740.4728,68.72,755.24" style="stroke:#000000;stroke-width:1.0;"/></g><!--link Administrateur to ajouter un utilisateur--><g id="link_Administrateur_ajouter un utilisateur"><path d="M220.66,137.94 C234.9,124.61 252.14,110.6 270,101 C291.55,89.42 316.89,81.17 340.1,75.39 " fill="none" id="Administrateur-ajouter un utilisateur" style="stroke:#000000;stroke-width:1.0;"/></g><!--link Administrateur to lister les utilisateur--><g id="link_Administrateur_lister les utilisateur"><path d="M234.04,167.75 C266.23,162.34 308.76,155.19 344.05,149.26 " fill="none" id="Administrateur-lister les utilisateur" style="stroke:#000000;stroke-width:1.0;"/></g><!--link Administrateur to bloquer un compte utilisateur--><g id="link_Administrateur_bloquer un compte utilisateur"><path d="M234.04,185.11 C259.48,189.84 291.38,195.77 321.06,201.29 " fill="none" id="Administrateur-bloquer un compte utilisateur" style="stroke:#000000;stroke-width:1.0;"/></g><!--link Utilisateur to d?sactiver son compte--><g id="link_Utilisateur_d&#233;sactiver son compte"><path d="M74.39,367.88 C92.02,362.73 114.07,356.61 134,352 C200.22,336.68 276.19,322.96 331.81,313.62 " fill="none" id="Utilisateur-d&#233;sactiver son compte" style="stroke:#000000;stroke-width:1.0;"/></g><!--link Utilisateur to activer son compte--><g id="link_Utilisateur_activer son compte"><path d="M74.16,378 C130.48,378 246.48,378 326.48,378 " fill="none" id="Utilisateur-activer son compte" style="stroke:#000000;stroke-width:1.0;"/></g><!--link Utilisateur to cr?er un r?seau social--><g id="link_Utilisateur_cr&#233;er un r&#233;seau social"><path d="M74.16,384.81 C134.03,397.11 261.33,423.26 341.15,439.65 " fill="none" id="Utilisateur-cr&#233;er un r&#233;seau social" style="stroke:#000000;stroke-width:1.0;"/></g><!--link Utilisateur to rejoindre un r?seau social--><g id="link_Utilisateur_rejoindre un r&#233;seau social"><path d="M74.26,397.13 C118.05,421.75 197.95,464.71 270,493 C292.66,501.9 318.04,509.86 340.95,516.35 " fill="none" id="Utilisateur-rejoindre un r&#233;seau social" style="stroke:#000000;stroke-width:1.0;"/></g><!--link Moderateur to mod?rer un message--><g id="link_Moderateur_mod&#233;rer un message"><path d="M224.15,667.48 C238.49,662.35 254.91,656.69 270,652 C295.78,643.99 324.52,636.07 349.28,629.54 " fill="none" id="Moderateur-mod&#233;rer un message" style="stroke:#000000;stroke-width:1.0;"/></g><!--link Moderateur to fermer son r?seau social--><g id="link_Moderateur_fermer son r&#233;seau social"><path d="M224.11,683.9 C248.36,685.08 280.71,686.66 311.67,688.17 " fill="none" id="Moderateur-fermer son r&#233;seau social" style="stroke:#000000;stroke-width:1.0;"/></g><!--link Membre to poster un message--><g id="link_Membre_poster un message"><path d="M68.51,772.85 C122.02,772.56 242.11,771.91 324.85,771.47 " fill="none" id="Membre-poster un message" style="stroke:#000000;stroke-width:1.0;"/></g><!--link Membre to cacher un message--><g id="link_Membre_cacher un message"><path d="M68.51,778.43 C126.54,789.88 262.89,816.78 344.97,832.97 " fill="none" id="Membre-cacher un message" style="stroke:#000000;stroke-width:1.0;"/></g><!--SRC=[ZP9DRjim48NtFCKW6yMBNC0m0iG9q2vge40HT3qXnn8JakCEoHP5c_lKv_35Ef9i-2SgKgsacU-zUHogUV3O2iP8u0WiPd1DBJxuZCLpWklF0LDvN7sQDSOqzvpMlgqozco7KWXKlkdyjqgDoIy-RL3je6PICu9VPedsfHMkoTrpO86ldIzabYoEPAmiWoBcJeH_d1LiORbGBnRmiKPCS7iB7pWuysfCe7M1mY2-xGeuBsJxU1htORUr0VTf7ML0MwXAXdbZi7U7EnTzyhaeeurzyN5__cDbHV59wF31cdpidf2m-7rpS-atwc1uXlw9TYBUs_KxJ1a2GVwPo-vFr1NtfyFKQkrgfQE-iCrNkkNv-UGvwB1hVEPQIA0cgCUaisbOspqRDCVxy5DWlV31sNBSw5zmfZ7paytC-zFt8hVRPbsX_wx2p0VbR1h-Rz3ARZicqPTCM5LYFOP_u4BFx9FJMvbGQF3Z3GsIGHDPeyiu95BEsFPXfiWrITo7ll26tdlu7KRweDXmBc-S9pYBjhlWNirV]--></g></svg>