<?xml version="1.0" encoding="us-ascii" standalone="no"?><svg xmlns="http://www.w3.org/2000/svg" xmlns:xlink="http://www.w3.org/1999/xlink" contentStyleType="text/css" height="898px" preserveAspectRatio="none" style="width:828px;height:898px;background:#FFFFFF;" version="1.1" viewBox="0 0 828 898" width="828px" zoomAndPan="magnify"><defs/><g><!--class MiniSocs--><g id="elem_MiniSocs"><rect codeLine="14" fill="#FFFFFF" height="107.4844" id="MiniSocs" rx="2.5" ry="2.5" style="stroke:#000000;stroke-width:0.5;" width="212" x="273.5" y="18.5"/><text fill="#000000" font-family="sans-serif" font-size="14" lengthAdjust="spacing" textLength="61" x="349" y="36.4951">MiniSocs</text><line style="stroke:#000000;stroke-width:0.5;" x1="274.5" x2="484.5" y1="44.7969" y2="44.7969"/><rect fill="none" height="6" style="stroke:#C82930;stroke-width:1.0;" width="6" x="281.5" y="55.4453"/><text fill="#000000" font-family="sans-serif" font-size="14" lengthAdjust="spacing" textLength="80" x="293.5" y="61.792">nom: String</text><line style="stroke:#000000;stroke-width:0.5;" x1="274.5" x2="484.5" y1="69.0938" y2="69.0938"/><rect fill="#F24D5C" height="6" style="stroke:#C82930;stroke-width:1.0;" width="6" x="281.5" y="79.7422"/><text fill="#000000" font-family="sans-serif" font-size="14" lengthAdjust="spacing" textLength="186" x="293.5" y="86.0889">cr&#233;erUtilisateur(): methode</text><rect fill="#F24D5C" height="6" style="stroke:#C82930;stroke-width:1.0;" width="6" x="281.5" y="96.0391"/><text fill="#000000" font-family="sans-serif" font-size="14" lengthAdjust="spacing" textLength="168" x="293.5" y="102.3857">cr&#233;erRS(nom): methode</text><rect fill="#F24D5C" height="6" style="stroke:#C82930;stroke-width:1.0;" width="6" x="281.5" y="112.3359"/><text fill="#000000" font-family="sans-serif" font-size="14" lengthAdjust="spacing" textLength="162" x="293.5" y="118.6826">rejoindreRS(): methode</text></g><!--class Utilisateur--><g id="elem_Utilisateur"><rect codeLine="21" fill="#FFFFFF" height="140.0781" id="Utilisateur" rx="2.5" ry="2.5" style="stroke:#000000;stroke-width:0.5;" width="216" x="191.5" y="214"/><text fill="#000000" font-family="sans-serif" font-size="14" lengthAdjust="spacing" textLength="68" x="265.5" y="231.9951">Utilisateur</text><line style="stroke:#000000;stroke-width:0.5;" x1="192.5" x2="406.5" y1="240.2969" y2="240.2969"/><rect fill="none" height="6" style="stroke:#C82930;stroke-width:1.0;" width="6" x="199.5" y="250.9453"/><text fill="#000000" font-family="sans-serif" font-size="14" lengthAdjust="spacing" textLength="140" x="211.5" y="257.292">pseudonyme: String</text><rect fill="none" height="6" style="stroke:#C82930;stroke-width:1.0;" width="6" x="199.5" y="267.2422"/><text fill="#000000" font-family="sans-serif" font-size="14" lengthAdjust="spacing" textLength="80" x="211.5" y="273.5889">nom: String</text><rect fill="none" height="6" style="stroke:#C82930;stroke-width:1.0;" width="6" x="199.5" y="283.5391"/><text fill="#000000" font-family="sans-serif" font-size="14" lengthAdjust="spacing" textLength="103" x="211.5" y="289.8857">pr&#233;nom: String</text><rect fill="none" height="6" style="stroke:#C82930;stroke-width:1.0;" width="6" x="199.5" y="299.8359"/><text fill="#000000" font-family="sans-serif" font-size="14" lengthAdjust="spacing" textLength="100" x="211.5" y="306.1826">courriel: String</text><rect fill="none" height="6" style="stroke:#C82930;stroke-width:1.0;" width="6" x="199.5" y="316.1328"/><text fill="#000000" font-family="sans-serif" font-size="14" lengthAdjust="spacing" textLength="173" x="211.5" y="322.4795">etatCompte: &#201;tatCompte</text><line style="stroke:#000000;stroke-width:0.5;" x1="192.5" x2="406.5" y1="329.7813" y2="329.7813"/><rect fill="#F24D5C" height="6" style="stroke:#C82930;stroke-width:1.0;" width="6" x="199.5" y="340.4297"/><text fill="#000000" font-family="sans-serif" font-size="14" lengthAdjust="spacing" textLength="190" x="211.5" y="346.7764">posterMessage(): methode</text></g><!--class ?tatCompte--><g id="elem_&#201;tatCompte"><rect codeLine="30" fill="#FFFFFF" height="113.4531" id="&#201;tatCompte" rx="2.5" ry="2.5" style="stroke:#000000;stroke-width:0.5;" width="90" x="520.5" y="15.5"/><text fill="#000000" font-family="sans-serif" font-size="12" font-style="italic" lengthAdjust="spacing" textLength="49" x="541" y="31.6387">&#171;enum&#187;</text><text fill="#000000" font-family="sans-serif" font-size="14" lengthAdjust="spacing" textLength="82" x="524.5" y="47.4639">&#201;tatCompte</text><line style="stroke:#000000;stroke-width:0.5;" x1="521.5" x2="609.5" y1="55.7656" y2="55.7656"/><text fill="#000000" font-family="sans-serif" font-size="14" lengthAdjust="spacing" textLength="39" x="526.5" y="72.7607">ACTIF</text><text fill="#000000" font-family="sans-serif" font-size="14" lengthAdjust="spacing" textLength="78" x="526.5" y="89.0576">D&#201;SACTIV&#201;</text><text fill="#000000" font-family="sans-serif" font-size="14" lengthAdjust="spacing" textLength="58" x="526.5" y="105.3545">BLOQU&#201;</text><text fill="#000000" font-family="sans-serif" font-size="14" lengthAdjust="spacing" textLength="78" x="526.5" y="121.6514">D&#201;BLOQU&#201;</text></g><!--class ?tatMessage--><g id="elem_&#201;tatMessage"><rect codeLine="37" fill="#FFFFFF" height="129.75" id="&#201;tatMessage" rx="2.5" ry="2.5" style="stroke:#000000;stroke-width:0.5;" width="176" x="645.5" y="7"/><text fill="#000000" font-family="sans-serif" font-size="12" font-style="italic" lengthAdjust="spacing" textLength="49" x="709" y="23.1387">&#171;enum&#187;</text><text fill="#000000" font-family="sans-serif" font-size="14" lengthAdjust="spacing" textLength="90" x="688.5" y="38.9639">&#201;tatMessage</text><line style="stroke:#000000;stroke-width:0.5;" x1="646.5" x2="820.5" y1="47.2656" y2="47.2656"/><text fill="#000000" font-family="sans-serif" font-size="14" lengthAdjust="spacing" textLength="65" x="651.5" y="64.2607">ACCEPT&#201;</text><text fill="#000000" font-family="sans-serif" font-size="14" lengthAdjust="spacing" textLength="164" x="651.5" y="80.5576">VERIFICATION_PENDING</text><text fill="#000000" font-family="sans-serif" font-size="14" lengthAdjust="spacing" textLength="110" x="651.5" y="96.8545">INAPPROPRIATE</text><text fill="#000000" font-family="sans-serif" font-size="14" lengthAdjust="spacing" textLength="54" x="651.5" y="113.1514">HIDDEN</text><text fill="#000000" font-family="sans-serif" font-size="14" lengthAdjust="spacing" textLength="37" x="651.5" y="129.4482">SENT</text></g><!--class Membre--><g id="elem_Membre"><rect codeLine="45" fill="#FFFFFF" height="91.1875" id="Membre" rx="2.5" ry="2.5" style="stroke:#000000;stroke-width:0.5;" width="252" x="293.5" y="583"/><text fill="#000000" font-family="sans-serif" font-size="14" lengthAdjust="spacing" textLength="57" x="391" y="600.9951">Membre</text><line style="stroke:#000000;stroke-width:0.5;" x1="294.5" x2="544.5" y1="609.2969" y2="609.2969"/><text fill="#000000" font-family="sans-serif" font-size="14" lengthAdjust="spacing" textLength="149" x="313.5" y="626.292">/ pseudonyme: String</text><rect fill="none" height="6" style="stroke:#C82930;stroke-width:1.0;" width="6" x="301.5" y="636.2422"/><text fill="#000000" font-family="sans-serif" font-size="14" lengthAdjust="spacing" textLength="169" x="313.5" y="642.5889">pseudoParticulier: String</text><line style="stroke:#000000;stroke-width:0.5;" x1="294.5" x2="544.5" y1="649.8906" y2="649.8906"/><rect fill="#F24D5C" height="6" style="stroke:#C82930;stroke-width:1.0;" width="6" x="301.5" y="660.5391"/><text fill="#000000" font-family="sans-serif" font-size="14" lengthAdjust="spacing" textLength="226" x="313.5" y="666.8857">requestSendMessage(): method</text></g><!--class Moderateur--><g id="elem_Moderateur"><rect codeLine="51" fill="#FFFFFF" height="74.8906" id="Moderateur" rx="2.5" ry="2.5" style="stroke:#000000;stroke-width:0.5;" width="241" x="511" y="439"/><text fill="#000000" font-family="sans-serif" font-size="14" lengthAdjust="spacing" textLength="80" x="591.5" y="456.9951">Moderateur</text><line style="stroke:#000000;stroke-width:0.5;" x1="512" x2="751" y1="465.2969" y2="465.2969"/><line style="stroke:#000000;stroke-width:0.5;" x1="512" x2="751" y1="473.2969" y2="473.2969"/><rect fill="#F24D5C" height="6" style="stroke:#C82930;stroke-width:1.0;" width="6" x="519" y="483.9453"/><text fill="#000000" font-family="sans-serif" font-size="14" lengthAdjust="spacing" textLength="203" x="531" y="490.292">bloquerUtilisateur(): methode</text><rect fill="#F24D5C" height="6" style="stroke:#C82930;stroke-width:1.0;" width="6" x="519" y="500.2422"/><text fill="#000000" font-family="sans-serif" font-size="14" lengthAdjust="spacing" textLength="215" x="531" y="506.5889">supprimerMessage(): methode</text></g><!--class ReseauSocial--><g id="elem_ReseauSocial"><rect codeLine="56" fill="#FFFFFF" height="91.1875" id="ReseauSocial" rx="2.5" ry="2.5" style="stroke:#000000;stroke-width:0.5;" width="343" x="7" y="431"/><text fill="#000000" font-family="sans-serif" font-size="14" lengthAdjust="spacing" textLength="93" x="132" y="448.9951">ReseauSocial</text><line style="stroke:#000000;stroke-width:0.5;" x1="8" x2="349" y1="457.2969" y2="457.2969"/><rect fill="none" height="6" style="stroke:#C82930;stroke-width:1.0;" width="6" x="15" y="467.9453"/><text fill="#000000" font-family="sans-serif" font-size="14" lengthAdjust="spacing" textLength="80" x="27" y="474.292">nom: String</text><rect fill="none" height="6" style="stroke:#C82930;stroke-width:1.0;" width="6" x="15" y="484.2422"/><text fill="#000000" font-family="sans-serif" font-size="14" lengthAdjust="spacing" textLength="83" x="27" y="490.5889">ouvert: bool</text><line style="stroke:#000000;stroke-width:0.5;" x1="8" x2="349" y1="497.8906" y2="497.8906"/><rect fill="#F24D5C" height="6" style="stroke:#C82930;stroke-width:1.0;" width="6" x="15" y="508.5391"/><text fill="#000000" font-family="sans-serif" font-size="14" lengthAdjust="spacing" textLength="317" x="27" y="514.8857">cr&#233;erParticipation(bool moderateur): methode</text></g><!--class Message--><g id="elem_Message"><rect codeLine="62" fill="#FFFFFF" height="140.0781" id="Message" rx="2.5" ry="2.5" style="stroke:#000000;stroke-width:0.5;" width="231" x="304" y="751"/><text fill="#000000" font-family="sans-serif" font-size="14" lengthAdjust="spacing" textLength="63" x="388" y="768.9951">Message</text><line style="stroke:#000000;stroke-width:0.5;" x1="305" x2="534" y1="777.2969" y2="777.2969"/><rect fill="none" height="6" style="stroke:#C82930;stroke-width:1.0;" width="6" x="312" y="787.9453"/><text fill="#000000" font-family="sans-serif" font-size="14" lengthAdjust="spacing" textLength="107" x="324" y="794.292">contenu: String</text><rect fill="none" height="6" style="stroke:#C82930;stroke-width:1.0;" width="6" x="312" y="804.2422"/><text fill="#000000" font-family="sans-serif" font-size="14" lengthAdjust="spacing" textLength="189" x="324" y="810.5889">etatMessage: &#201;tatMessage</text><line style="stroke:#000000;stroke-width:0.5;" x1="305" x2="534" y1="817.8906" y2="817.8906"/><rect fill="#F24D5C" height="6" style="stroke:#C82930;stroke-width:1.0;" width="6" x="312" y="828.5391"/><text fill="#000000" font-family="sans-serif" font-size="14" lengthAdjust="spacing" textLength="197" x="324" y="834.8857">delete_message(): methode</text><rect fill="#F24D5C" height="6" style="stroke:#C82930;stroke-width:1.0;" width="6" x="312" y="844.8359"/><text fill="#000000" font-family="sans-serif" font-size="14" lengthAdjust="spacing" textLength="183" x="324" y="851.1826">hide_message(): methode</text><rect fill="#F24D5C" height="6" style="stroke:#C82930;stroke-width:1.0;" width="6" x="312" y="861.1328"/><text fill="#000000" font-family="sans-serif" font-size="14" lengthAdjust="spacing" textLength="205" x="324" y="867.4795">mark_inappropriate(): method</text><rect fill="#F24D5C" height="6" style="stroke:#C82930;stroke-width:1.0;" width="6" x="312" y="877.4297"/><text fill="#000000" font-family="sans-serif" font-size="14" lengthAdjust="spacing" textLength="179" x="324" y="883.7764">send_message(): method</text></g><!--link MiniSocs to Utilisateur--><g id="link_MiniSocs_Utilisateur"><path codeLine="72" d="M355.1454,136.9329 C344.9554,163.6629 338.8765,179.6433 327.9365,208.3533 " fill="none" id="MiniSocs-Utilisateur" style="stroke:#000000;stroke-width:1.0;"/><polygon fill="#000000" points="359.42,125.72,353.5451,129.9016,355.1454,136.9329,361.0203,132.7513,359.42,125.72" style="stroke:#000000;stroke-width:1.0;"/><polygon fill="#000000" points="325.8,213.96,332.7425,206.9742,327.5804,209.2877,325.2669,204.1256,325.8,213.96" style="stroke:#000000;stroke-width:1.0;"/><text fill="#000000" font-family="sans-serif" font-size="13" lengthAdjust="spacing" textLength="30" x="342.5" y="180.0669">Cr&#233;e</text><text fill="#000000" font-family="sans-serif" font-size="13" lengthAdjust="spacing" textLength="7" x="321.1513" y="203.0334">*</text></g><!--link Utilisateur to ReseauSocial--><g id="link_Utilisateur_ReseauSocial"><path codeLine="73" d="M255.65,354.04 C239.41,379.6 224.6674,402.8156 210.1574,425.6556 " fill="none" id="Utilisateur-to-ReseauSocial" style="stroke:#000000;stroke-width:1.0;"/><polygon fill="#000000" points="206.94,430.72,215.1424,425.2683,209.6211,426.4996,208.3898,420.9784,206.94,430.72" style="stroke:#000000;stroke-width:1.0;"/><text fill="#000000" font-family="sans-serif" font-size="13" lengthAdjust="spacing" textLength="49" x="235.5" y="397.0669">Connait</text><text fill="#000000" font-family="sans-serif" font-size="13" lengthAdjust="spacing" textLength="8" x="242.7155" y="374.106">1</text><text fill="#000000" font-family="sans-serif" font-size="13" lengthAdjust="spacing" textLength="7" x="203.6031" y="419.9574">*</text></g><!--link Utilisateur to Membre--><g id="link_Utilisateur_Membre"><path codeLine="74" d="M334.75,354.12 C346.15,378.08 358.22,405.37 367.5,431 C385.94,481.93 399.642,536.5866 408.712,576.8666 " fill="none" id="Utilisateur-to-Membre" style="stroke:#000000;stroke-width:1.0;"/><polygon fill="#000000" points="410.03,582.72,411.9552,573.0611,408.9316,577.8421,404.1506,574.8185,410.03,582.72" style="stroke:#000000;stroke-width:1.0;"/><text fill="#000000" font-family="sans-serif" font-size="13" lengthAdjust="spacing" textLength="54" x="395.5" y="481.0669">Poss&#232;de</text><text fill="#000000" font-family="sans-serif" font-size="13" lengthAdjust="spacing" textLength="8" x="329.9727" y="374.1943">1</text><text fill="#000000" font-family="sans-serif" font-size="13" lengthAdjust="spacing" textLength="7" x="401.125" y="571.9574">*</text></g><!--link Moderateur to Message--><g id="link_Moderateur_Message"><path codeLine="76" d="M621.2911,525.7279 C611.7211,566.8679 595.21,622.94 563.5,674 C546.31,701.67 527.2666,723.9814 504.4266,746.6714 " fill="none" id="Moderateur-Message" style="stroke:#000000;stroke-width:1.0;"/><polygon fill="#000000" points="624.01,514.04,618.7546,518.9777,621.2911,525.7279,626.5466,520.7903,624.01,514.04" style="stroke:#000000;stroke-width:1.0;"/><polygon fill="#000000" points="500.17,750.9,509.374,747.3948,503.7172,747.3761,503.7358,741.7193,500.17,750.9" style="stroke:#000000;stroke-width:1.0;"/><text fill="#000000" font-family="sans-serif" font-size="13" lengthAdjust="spacing" textLength="51" x="604.5" y="633.0669">Envoyer</text><text fill="#000000" font-family="sans-serif" font-size="13" lengthAdjust="spacing" textLength="8" x="614.0352" y="533.869">1</text><text fill="#000000" font-family="sans-serif" font-size="13" lengthAdjust="spacing" textLength="7" x="501.1282" y="739.9672">*</text></g><!--link Membre to Message--><g id="link_Membre_Message"><path codeLine="77" d="M419.5,686.16 C419.5,708.93 419.5,719.12 419.5,744.64 " fill="none" id="Membre-Message" style="stroke:#000000;stroke-width:1.0;"/><polygon fill="#000000" points="419.5,674.16,415.5,680.16,419.5,686.16,423.5,680.16,419.5,674.16" style="stroke:#000000;stroke-width:1.0;"/><polygon fill="#000000" points="419.5,750.64,423.5,741.64,419.5,745.64,415.5,741.64,419.5,750.64" style="stroke:#000000;stroke-width:1.0;"/><text fill="#000000" font-family="sans-serif" font-size="13" lengthAdjust="spacing" textLength="68" x="420.5" y="717.0669">Demander</text><text fill="#000000" font-family="sans-serif" font-size="13" lengthAdjust="spacing" textLength="8" x="410.8875" y="694.3628">1</text><text fill="#000000" font-family="sans-serif" font-size="13" lengthAdjust="spacing" textLength="7" x="412.1555" y="740.0452">*</text></g><!--link MiniSocs to ReseauSocial--><g id="link_MiniSocs_ReseauSocial"><path codeLine="79" d="M413.1202,136.4475 C441.2702,196.2575 469.19,283.81 425.5,354 C404.22,388.18 375.5719,410.3474 339.4919,428.2974 " fill="none" id="MiniSocs-ReseauSocial" style="stroke:#000000;stroke-width:1.0;"/><polygon fill="#000000" points="408.01,125.59,406.9459,132.7222,413.1202,136.4475,414.1843,129.3154,408.01,125.59" style="stroke:#000000;stroke-width:1.0;"/><polygon fill="#000000" points="334.12,430.97,343.9596,430.5424,338.5966,428.7429,340.3962,423.3799,334.12,430.97" style="stroke:#000000;stroke-width:1.0;"/><text fill="#000000" font-family="sans-serif" font-size="13" lengthAdjust="spacing" textLength="7" x="350.4134" y="419.9125">*</text></g><!--link ReseauSocial to Message--><g id="link_ReseauSocial_Message"><path codeLine="80" d="M196.05,522.25 C213.34,563.59 242.11,625.71 276.5,674 C295.74,701.02 315.771,723.5337 338.811,746.6137 " fill="none" id="ReseauSocial-to-Message" style="stroke:#000000;stroke-width:1.0;"/><polygon fill="#000000" points="343.05,750.86,339.5224,741.6645,339.5175,747.3214,333.8607,747.3165,343.05,750.86" style="stroke:#000000;stroke-width:1.0;"/><text fill="#000000" font-family="sans-serif" font-size="13" lengthAdjust="spacing" textLength="8" x="190.0402" y="542.134">1</text><text fill="#000000" font-family="sans-serif" font-size="13" lengthAdjust="spacing" textLength="7" x="327.8052" y="739.9231">*</text></g><!--link ReseauSocial to Membre--><g id="link_ReseauSocial_Membre"><path codeLine="82" d="M260.3479,528.4409 C291.1479,547.6109 311.7964,560.4591 342.6064,579.6391 " fill="none" id="ReseauSocial-Membre" style="stroke:#000000;stroke-width:1.0;"/><polygon fill="#000000" points="250.16,522.1,253.1403,528.6664,260.3479,528.4409,257.3676,521.8745,250.16,522.1" style="stroke:#000000;stroke-width:1.0;"/><polygon fill="#000000" points="347.7,582.81,342.1735,574.6578,343.4553,580.1676,337.9456,581.4494,347.7,582.81" style="stroke:#000000;stroke-width:1.0;"/><text fill="#000000" font-family="sans-serif" font-size="13" lengthAdjust="spacing" textLength="8" x="252.5204" y="542.2936">1</text><text fill="#000000" font-family="sans-serif" font-size="13" lengthAdjust="spacing" textLength="7" x="329.6403" y="572.0606">*</text></g><!--link Moderateur to Membre--><g id="link_Moderateur_Membre"><path codeLine="84" d="M579.91,514 C550.62,534.73 528.4157,550.4459 497.3957,572.3859 " fill="none" id="Moderateur-to-Membre" style="stroke:#000000;stroke-width:1.0;"/><polygon fill="none" points="482.7,582.78,500.8604,577.2845,493.931,567.4874,482.7,582.78" style="stroke:#000000;stroke-width:1.0;"/></g><!--SRC=[VLJTJjim5BxFKrYzIK5qqsuhL2caOOj4IzOMTedSvAprYEtCTfWGsmFm9kCvyc8xZaDnMhhUD3w_dx_p7OTJHZUASWwa09ANL6lGP9YLL9YRsTL960HXBCLtjgaLDKmAac-fCa0mgTgodpM4mPPXAl3AF18EPYiBxKmvKta9WRvdegBOmvKdJm4X5pI_toXPYoAMfLJasvOPG7kabFpbJ1SbnjXGgGfGlksFnUIGdf7cHTIyUN7Wy0mc_n06hjEC2RQKkMiv8aBoCLaQnSIcFUUgUG5rOrZ9D3LGg-79kBi1U06BvH0pzrmAVaWc2WNezLm8pRNsgdRTAmrr8SKZXnw8VL0LzZm0Ackb69Gz8nXgOeciOxtcUNTmHQGse6QWDTt07Zv0llm4SdvkJPD9YpEAL-ab_a-RvwNzlcsUxGokhh_Uj5zeVptqQdMzzel5IRPgyswJHNgPnj4glPxVPSbyciu_epcTHrcskCuMQRHAyFmbdKwJENuia_dgZSqPyBM2jkR7OqGwSuRYP7bTCb0zhmAKgZPB4CK1BLuVv4ZvGrkN4lF-fn5TLvLY_1ZRhku2DD0QfSXeUKICidu0PSPaBMNfYS_TXrMjl8VMIVWEv7kjNWVnr2b761p8WN2wg75lUAstW18CtF73srYltUjZFaxL_HqJ5FcGI0aYz2XkgKBo3vFRTOwqjkJqTdYtlQUZqOGCJWV-Ker9RFa9_3qRV1gGrr2VSOoLGb1c48Nx7SjoEXkJJ6hT_CLx1PuYRE3fMsH7O28Uv2Eee9Fe-q5Ju5HWeHs0Toxd8zx5zOI3jVSglzNR3_H1M62zcun6loSxUnZLP0qQNxCpGd6y6byFZ2d1lYBCJaG01s72u1y0]--></g></svg>