<?xml version="1.0" encoding="us-ascii" standalone="no"?><svg xmlns="http://www.w3.org/2000/svg" xmlns:xlink="http://www.w3.org/1999/xlink" contentStyleType="text/css" height="751px" preserveAspectRatio="none" style="width:775px;height:751px;background:#FFFFFF;" version="1.1" viewBox="0 0 775 751" width="775px" zoomAndPan="magnify"><defs/><g><!--class MiniSocs--><g id="elem_MiniSocs"><rect codeLine="14" fill="#FFFFFF" height="50.5938" id="MiniSocs" rx="2.5" ry="2.5" style="stroke:#000000;stroke-width:0.5;" width="106" x="244.33" y="38"/><text fill="#000000" font-family="sans-serif" font-size="14" lengthAdjust="spacing" textLength="61" x="266.83" y="55.9951">MiniSocs</text><line style="stroke:#000000;stroke-width:0.5;" x1="245.33" x2="349.33" y1="64.2969" y2="64.2969"/><rect fill="none" height="6" style="stroke:#C82930;stroke-width:1.0;" width="6" x="252.33" y="74.9453"/><text fill="#000000" font-family="sans-serif" font-size="14" lengthAdjust="spacing" textLength="80" x="264.33" y="81.292">nom: String</text></g><!--class Utilisateur--><g id="elem_Utilisateur"><rect codeLine="18" fill="#FFFFFF" height="115.7813" id="Utilisateur" rx="2.5" ry="2.5" style="stroke:#000000;stroke-width:0.5;" width="199" x="197.83" y="181"/><text fill="#000000" font-family="sans-serif" font-size="14" lengthAdjust="spacing" textLength="68" x="263.33" y="198.9951">Utilisateur</text><line style="stroke:#000000;stroke-width:0.5;" x1="198.83" x2="395.83" y1="207.2969" y2="207.2969"/><rect fill="none" height="6" style="stroke:#C82930;stroke-width:1.0;" width="6" x="205.83" y="217.9453"/><text fill="#000000" font-family="sans-serif" font-size="14" lengthAdjust="spacing" textLength="140" x="217.83" y="224.292">pseudonyme: String</text><rect fill="none" height="6" style="stroke:#C82930;stroke-width:1.0;" width="6" x="205.83" y="234.2422"/><text fill="#000000" font-family="sans-serif" font-size="14" lengthAdjust="spacing" textLength="80" x="217.83" y="240.5889">nom: String</text><rect fill="none" height="6" style="stroke:#C82930;stroke-width:1.0;" width="6" x="205.83" y="250.5391"/><text fill="#000000" font-family="sans-serif" font-size="14" lengthAdjust="spacing" textLength="103" x="217.83" y="256.8857">pr&#233;nom: String</text><rect fill="none" height="6" style="stroke:#C82930;stroke-width:1.0;" width="6" x="205.83" y="266.8359"/><text fill="#000000" font-family="sans-serif" font-size="14" lengthAdjust="spacing" textLength="100" x="217.83" y="273.1826">courriel: String</text><rect fill="none" height="6" style="stroke:#C82930;stroke-width:1.0;" width="6" x="205.83" y="283.1328"/><text fill="#000000" font-family="sans-serif" font-size="14" lengthAdjust="spacing" textLength="173" x="217.83" y="289.4795">etatCompte: &#201;tatCompte</text></g><!--class ?tatCompte--><g id="elem_&#201;tatCompte"><rect codeLine="25" fill="#FFFFFF" height="113.4531" id="&#201;tatCompte" rx="2.5" ry="2.5" style="stroke:#000000;stroke-width:0.5;" width="90" x="385.33" y="7"/><text fill="#000000" font-family="sans-serif" font-size="12" font-style="italic" lengthAdjust="spacing" textLength="49" x="405.83" y="23.1387">&#171;enum&#187;</text><text fill="#000000" font-family="sans-serif" font-size="14" lengthAdjust="spacing" textLength="82" x="389.33" y="38.9639">&#201;tatCompte</text><line style="stroke:#000000;stroke-width:0.5;" x1="386.33" x2="474.33" y1="47.2656" y2="47.2656"/><text fill="#000000" font-family="sans-serif" font-size="14" lengthAdjust="spacing" textLength="39" x="391.33" y="64.2607">ACTIF</text><text fill="#000000" font-family="sans-serif" font-size="14" lengthAdjust="spacing" textLength="78" x="391.33" y="80.5576">D&#201;SACTIV&#201;</text><text fill="#000000" font-family="sans-serif" font-size="14" lengthAdjust="spacing" textLength="58" x="391.33" y="96.8545">BLOQU&#201;</text><text fill="#000000" font-family="sans-serif" font-size="14" lengthAdjust="spacing" textLength="78" x="391.33" y="113.1514">D&#201;BLOQU&#201;</text></g><!--class Participation--><g id="elem_Participation"><rect codeLine="32" fill="#FFFFFF" height="83.1875" id="Participation" rx="2.5" ry="2.5" style="stroke:#000000;stroke-width:0.5;" width="195" x="199.83" y="374"/><text fill="#000000" font-family="sans-serif" font-size="14" lengthAdjust="spacing" textLength="84" x="255.33" y="391.9951">Participation</text><line style="stroke:#000000;stroke-width:0.5;" x1="200.83" x2="393.83" y1="400.2969" y2="400.2969"/><rect fill="none" height="6" style="stroke:#C82930;stroke-width:1.0;" width="6" x="207.83" y="410.9453"/><text fill="#000000" font-family="sans-serif" font-size="14" lengthAdjust="spacing" textLength="169" x="219.83" y="417.292">pseudoParticulier: String</text><rect fill="none" height="6" style="stroke:#C82930;stroke-width:1.0;" width="6" x="207.83" y="427.2422"/><text fill="#000000" font-family="sans-serif" font-size="14" lengthAdjust="spacing" textLength="121" x="219.83" y="433.5889">mod&#233;rateur: Bool</text><text fill="#000000" font-family="sans-serif" font-size="14" lengthAdjust="spacing" textLength="149" x="219.83" y="449.8857">/ pseudonyme: String</text></g><!--class reseauSocial--><g id="elem_reseauSocial"><rect codeLine="38" fill="#FFFFFF" height="50.5938" id="reseauSocial" rx="2.5" ry="2.5" style="stroke:#000000;stroke-width:0.5;" width="106" x="211.33" y="694"/><text fill="#000000" font-family="sans-serif" font-size="14" lengthAdjust="spacing" textLength="88" x="220.33" y="711.9951">reseauSocial</text><line style="stroke:#000000;stroke-width:0.5;" x1="212.33" x2="316.33" y1="720.2969" y2="720.2969"/><rect fill="none" height="6" style="stroke:#C82930;stroke-width:1.0;" width="6" x="219.33" y="730.9453"/><text fill="#000000" font-family="sans-serif" font-size="14" lengthAdjust="spacing" textLength="80" x="231.33" y="737.292">nom: String</text></g><!--class Message--><g id="elem_Message"><rect codeLine="42" fill="#FFFFFF" height="83.1875" id="Message" rx="2.5" ry="2.5" style="stroke:#000000;stroke-width:0.5;" width="200" x="515.33" y="534"/><text fill="#000000" font-family="sans-serif" font-size="14" lengthAdjust="spacing" textLength="63" x="583.83" y="551.9951">Message</text><line style="stroke:#000000;stroke-width:0.5;" x1="516.33" x2="714.33" y1="560.2969" y2="560.2969"/><rect fill="none" height="6" style="stroke:#C82930;stroke-width:1.0;" width="6" x="523.33" y="570.9453"/><text fill="#000000" font-family="sans-serif" font-size="14" lengthAdjust="spacing" textLength="107" x="535.33" y="577.292">contenu: String</text><rect fill="none" height="6" style="stroke:#C82930;stroke-width:1.0;" width="6" x="523.33" y="587.2422"/><text fill="#000000" font-family="sans-serif" font-size="14" lengthAdjust="spacing" textLength="95" x="535.33" y="593.5889">accept&#233;: bool</text><text fill="#000000" font-family="sans-serif" font-size="14" lengthAdjust="spacing" textLength="174" x="535.33" y="609.8857">/pseudoParticulier: String</text></g><!--link MiniSocs to Utilisateur--><g id="link_MiniSocs_Utilisateur"><path codeLine="49" d="M297.33,101.36 C297.33,125.16 297.33,143.93 297.33,174.94 " fill="none" id="MiniSocs-Utilisateur" style="stroke:#000000;stroke-width:1.0;"/><polygon fill="#000000" points="297.33,89.36,293.33,95.36,297.33,101.36,301.33,95.36,297.33,89.36" style="stroke:#000000;stroke-width:1.0;"/><polygon fill="#000000" points="297.33,180.94,301.33,171.94,297.33,175.94,293.33,171.94,297.33,180.94" style="stroke:#000000;stroke-width:1.0;"/><text fill="#000000" font-family="sans-serif" font-size="13" lengthAdjust="spacing" textLength="7" x="289.9034" y="170.0382">*</text></g><!--reverse link Utilisateur to Participation--><g id="link_Utilisateur_Participation"><path codeLine="50" d="M297.33,309.14 C297.33,334.19 297.33,351.01 297.33,373.82 " fill="none" id="Utilisateur-backto-Participation" style="stroke:#000000;stroke-width:1.0;"/><polygon fill="#000000" points="297.33,297.14,293.33,303.14,297.33,309.14,301.33,303.14,297.33,297.14" style="stroke:#000000;stroke-width:1.0;"/><text fill="#000000" font-family="sans-serif" font-size="13" lengthAdjust="spacing" textLength="54" x="298.33" y="340.0669">poss&#232;de</text><text fill="#000000" font-family="sans-serif" font-size="13" lengthAdjust="spacing" textLength="8" x="288.8675" y="316.8168">1</text><text fill="#000000" font-family="sans-serif" font-size="13" lengthAdjust="spacing" textLength="7" x="289.7722" y="363.0445">*</text></g><!--link Participation to reseauSocial--><g id="link_Participation_reseauSocial"><path codeLine="51" d="M199.74,431.32 C138.69,446.18 64.6,475.7 26.33,534 C6.09,564.84 6,586.22 26.33,617 C67.25,678.93 148.5912,702.2161 205.3212,711.6461 " fill="none" id="Participation-to-reseauSocial" style="stroke:#000000;stroke-width:1.0;"/><polygon fill="#000000" points="211.24,712.63,203.0177,707.2084,206.3077,711.8101,201.7059,715.1001,211.24,712.63" style="stroke:#000000;stroke-width:1.0;"/><text fill="#000000" font-family="sans-serif" font-size="13" lengthAdjust="spacing" textLength="193" x="27.33" y="580.0669">mod&#232;re (si mod&#233;rateur=True)</text><text fill="#000000" font-family="sans-serif" font-size="13" lengthAdjust="spacing" textLength="7" x="184.6844" y="429.0477">*</text><text fill="#000000" font-family="sans-serif" font-size="13" lengthAdjust="spacing" textLength="8" x="195.2117" y="707.714">1</text></g><!--link Participation to reseauSocial--><g id="link_Participation_reseauSocial"><path codeLine="52" d="M291.83,457.25 C288.85,479.84 285.21,508.46 282.33,534 C275.9,591.09 270.2261,652.284 267.0461,687.734 " fill="none" id="Participation-to-reseauSocial-1" style="stroke:#000000;stroke-width:1.0;"/><polygon fill="#000000" points="266.51,693.71,271.2981,685.1034,266.9567,688.73,263.3301,684.3886,266.51,693.71" style="stroke:#000000;stroke-width:1.0;"/><text fill="#000000" font-family="sans-serif" font-size="13" lengthAdjust="spacing" textLength="214" x="283.33" y="580.0669">appartient (si mod&#233;rateur=False)</text><text fill="#000000" font-family="sans-serif" font-size="13" lengthAdjust="spacing" textLength="7" x="283.3956" y="477.1618">*</text><text fill="#000000" font-family="sans-serif" font-size="13" lengthAdjust="spacing" textLength="8" x="258.0664" y="682.7282">1</text></g><!--link Participation to Message--><g id="link_Participation_Message"><path codeLine="53" d="M315.9536,468.3744 C323.5536,485.1844 329.74,492.44 345.33,504 C397.5,542.67 425.54,517.45 488.33,534 C497.06,536.3 500.3238,537.147 509.3338,539.797 " fill="none" id="Participation-Message" style="stroke:#000000;stroke-width:1.0;"/><polygon fill="#000000" points="311.01,457.44,309.837,464.5551,315.9536,468.3744,317.1266,461.2593,311.01,457.44" style="stroke:#000000;stroke-width:1.0;"/><polygon fill="#000000" points="515.09,541.49,507.5844,535.113,510.2932,540.0792,505.327,542.788,515.09,541.49" style="stroke:#000000;stroke-width:1.0;"/><text fill="#000000" font-family="sans-serif" font-size="13" lengthAdjust="spacing" textLength="216" x="346.33" y="500.0669">Demander (si mod&#233;rateur=False)</text><text fill="#000000" font-family="sans-serif" font-size="13" lengthAdjust="spacing" textLength="8" x="304.5528" y="477.382">1</text><text fill="#000000" font-family="sans-serif" font-size="13" lengthAdjust="spacing" textLength="7" x="500.4716" y="535.5065">*</text></g><!--link Participation to Message--><g id="link_Participation_Message"><path codeLine="54" d="M406.8852,424.7859 C462.2752,432.8359 518.24,448.72 567.33,487 C582.64,498.93 591.2501,511.711 598.8901,528.461 " fill="none" id="Participation-Message-1" style="stroke:#000000;stroke-width:1.0;"/><polygon fill="#000000" points="395.01,423.06,400.3723,427.8813,406.8852,424.7859,401.5229,419.9645,395.01,423.06" style="stroke:#000000;stroke-width:1.0;"/><polygon fill="#000000" points="601.38,533.92,601.2844,524.0716,599.3051,529.3709,594.0058,527.3915,601.38,533.92" style="stroke:#000000;stroke-width:1.0;"/><text fill="#000000" font-family="sans-serif" font-size="13" lengthAdjust="spacing" textLength="184" x="583.33" y="500.0669">Poster (si mod&#233;rateur=True)</text><text fill="#000000" font-family="sans-serif" font-size="13" lengthAdjust="spacing" textLength="8" x="402.7949" y="420.1294">1</text><text fill="#000000" font-family="sans-serif" font-size="13" lengthAdjust="spacing" textLength="7" x="591.4898" y="522.8535">*</text></g><!--link Message to reseauSocial--><g id="link_Message_reseauSocial"><path codeLine="55" d="M509.6579,619.2502 C445.2179,645.3202 380.7346,671.4108 328.4646,692.5508 " fill="none" id="Message-reseauSocial" style="stroke:#000000;stroke-width:1.0;"/><polygon fill="#000000" points="515.22,617,505.3768,616.6673,510.5849,618.8752,508.377,624.0833,515.22,617" style="stroke:#000000;stroke-width:1.0;"/><polygon fill="#000000" points="317.34,697.05,324.402,698.5086,328.4646,692.5508,321.4026,691.0922,317.34,697.05" style="stroke:#000000;stroke-width:1.0;"/><text fill="#000000" font-family="sans-serif" font-size="13" lengthAdjust="spacing" textLength="52" x="440.33" y="660.0669">contient</text><text fill="#000000" font-family="sans-serif" font-size="13" lengthAdjust="spacing" textLength="7" x="500.2874" y="616.6679">*</text><text fill="#000000" font-family="sans-serif" font-size="13" lengthAdjust="spacing" textLength="8" x="325.357" y="689.9431">1</text></g><!--SRC=[fLJRQjj057pNLnpyeiJ4BNqLhi6n2HHYwkAuUTwiJkL3LhlgNYYXz0Fy9_5twCTwLkiOAN5BeK_Q7Ssvp0nIlYHHML7N22M2LC8vT72nLaBxxUhsCi-oV67qDwg25PwC1haJrYDmKREZxm7pR4TSYdNZdw16lpEbIv0aAnLcxf5q8tX6QWy_Cu1h8HyhQu8k5qOP2_SxyiZut5hp8q7NYZcHQco9je_zYZkbJQ-WFUXGjuUq7D_HotTvbYQjIDF6o3Ho0jhK1Moy9Lt57ecpzQJ82O_17ccDmr0Q_LJZYVswkgDP7lqAaoPOIwW687hX5uRjuNxj_dJX5P1NxqCmdKPeDkiscI_kFjtmSzdkD_7yjTr7Esu_Vzbs9yPVBYSrQyw693KfghwUz2OeGZlOhZPbvnxhBzXhenXzVyw3qmoB3aLWNqcelpcxGkT4XKUADDgpkC5i8IKslZqKy70S_ETTO-Xpv-BKGTAdZCUJoGn6ur4_qQoVxkZ3A98wpi2d0XhZNFjSOZRqBpAxhbpPLrrqhZrRX0j7VGS_tjc0b__SHJHDPABsRnhT2ENUTaeAaioZlGKiiHQQFv7_wR4spf_faEIy11ahffF9-8oIc6xK4KCAy83EaBu2mNy1n-Qo-GgZoHHNq5WpCyz-0m00]--></g></svg>