<?xml version="1.0" encoding="us-ascii" standalone="no"?><svg xmlns="http://www.w3.org/2000/svg" xmlns:xlink="http://www.w3.org/1999/xlink" contentStyleType="text/css" height="698px" preserveAspectRatio="none" style="width:2173px;height:698px;background:#FFFFFF;" version="1.1" viewBox="0 0 2173 698" width="2173px" zoomAndPan="magnify"><defs/><g><g id="EnCr&#233;ation"><rect fill="#F1F1F1" height="50" rx="12.5" ry="12.5" style="stroke:#181818;stroke-width:0.5;" width="124" x="525.6" y="7"/><line style="stroke:#181818;stroke-width:0.5;" x1="525.6" x2="649.6" y1="28.6406" y2="28.6406"/><text fill="#000000" font-family="sans-serif" font-size="10" lengthAdjust="spacing" textLength="55" x="560.1" y="21.2822">EnCr&#233;ation</text><text fill="#000000" font-family="sans-serif" font-size="10" lengthAdjust="spacing" textLength="104" x="530.6" y="42.9229">entry : constructeur()</text></g><g id="EnDestruction"><rect fill="#F1F1F1" height="50" rx="12.5" ry="12.5" style="stroke:#181818;stroke-width:0.5;" width="119" x="1410.1" y="642"/><line style="stroke:#181818;stroke-width:0.5;" x1="1410.1" x2="1529.1" y1="663.6406" y2="663.6406"/><text fill="#000000" font-family="sans-serif" font-size="10" lengthAdjust="spacing" textLength="69" x="1435.1" y="656.2822">EnDestruction</text><text fill="#000000" font-family="sans-serif" font-size="10" lengthAdjust="spacing" textLength="99" x="1415.1" y="677.9229">entry : destructeur()</text></g><ellipse cx="480.6" cy="32" fill="#222222" rx="10" ry="10" style="stroke:#222222;stroke-width:1.0;"/><g id="VerificationPending"><rect fill="#F1F1F1" height="50" rx="12.5" ry="12.5" style="stroke:#181818;stroke-width:0.5;" width="113" x="780.1" y="134"/><line style="stroke:#181818;stroke-width:0.5;" x1="780.1" x2="893.1" y1="155.6406" y2="155.6406"/><text fill="#000000" font-family="sans-serif" font-size="10" lengthAdjust="spacing" textLength="93" x="790.1" y="148.2822">VerificationPending</text></g><g id="Sent"><rect fill="#F1F1F1" height="50" rx="12.5" ry="12.5" style="stroke:#181818;stroke-width:0.5;" width="50" x="779.6" y="261"/><line style="stroke:#181818;stroke-width:0.5;" x1="779.6" x2="829.6" y1="282.6406" y2="282.6406"/><text fill="#000000" font-family="sans-serif" font-size="10" lengthAdjust="spacing" textLength="23" x="793.1" y="275.2822">Sent</text></g><g id="Inappropriate"><rect fill="#F1F1F1" height="50" rx="12.5" ry="12.5" style="stroke:#181818;stroke-width:0.5;" width="85" x="998.1" y="515"/><line style="stroke:#181818;stroke-width:0.5;" x1="998.1" x2="1083.1" y1="536.6406" y2="536.6406"/><text fill="#000000" font-family="sans-serif" font-size="10" lengthAdjust="spacing" textLength="65" x="1008.1" y="529.2822">Inappropriate</text></g><g id="Hidden"><rect fill="#F1F1F1" height="50" rx="12.5" ry="12.5" style="stroke:#181818;stroke-width:0.5;" width="54" x="1321.6" y="388"/><line style="stroke:#181818;stroke-width:0.5;" x1="1321.6" x2="1375.6" y1="409.6406" y2="409.6406"/><text fill="#000000" font-family="sans-serif" font-size="10" lengthAdjust="spacing" textLength="34" x="1331.6" y="402.2822">Hidden</text></g><ellipse cx="1363.6" cy="667" fill="none" rx="11" ry="11" style="stroke:#222222;stroke-width:1.0;"/><ellipse cx="1363.6" cy="667" fill="#222222" rx="6" ry="6" style="stroke:#222222;stroke-width:1.0;"/><!--link *start* to EnCr?ation--><g id="link_*start*_EnCr&#233;ation"><path d="M490.63,32 C502.25,32 507.87,32 519.48,32 " fill="none" id="*start*-to-EnCr&#233;ation" style="stroke:#181818;stroke-width:1.0;"/><polygon fill="#181818" points="525.48,32,516.48,28,520.48,32,516.48,36,525.48,32" style="stroke:#181818;stroke-width:1.0;"/></g><!--link EnCr?ation to VerificationPending--><g id="link_EnCr&#233;ation_VerificationPending"><path d="M635.61,57.1 C679.71,79.24 739.3378,109.168 783.3778,131.278 " fill="none" id="EnCr&#233;ation-to-VerificationPending" style="stroke:#181818;stroke-width:1.0;"/><polygon fill="#181818" points="788.74,133.97,782.4914,126.3572,784.2715,131.7266,778.902,133.5067,788.74,133.97" style="stroke:#181818;stroke-width:1.0;"/><text fill="#000000" font-family="sans-serif" font-size="13" lengthAdjust="spacing" textLength="287" x="728.6" y="100.0669">membre non mod&#233;rateur / ajouterMessage()</text></g><!--link EnCr?ation to Sent--><g id="link_EnCr&#233;ation_Sent"><path d="M556.41,57.24 C520.8,87.9 471.17,141.78 501.6,184 C567.42,275.32 713.38,285.297 773.48,285.527 " fill="none" id="EnCr&#233;ation-to-Sent" style="stroke:#181818;stroke-width:1.0;"/><polygon fill="#181818" points="779.48,285.55,770.4954,281.5156,774.48,285.5309,770.4648,289.5155,779.48,285.55" style="stroke:#181818;stroke-width:1.0;"/><text fill="#000000" font-family="sans-serif" font-size="13" lengthAdjust="spacing" textLength="259" x="502.6" y="163.5669">membre mod&#233;rateur / ajouterMessage()</text></g><!--link VerificationPending to EnDestruction--><g id="link_VerificationPending_EnDestruction"><path d="M893.15,160.54 C1115.37,163.41 1916.6,180.95 1916.6,285 C1916.6,285 1916.6,285 1916.6,541 C1916.6,620.47 1657.2093,651.1923 1535.3993,661.3323 " fill="none" id="VerificationPending-to-EnDestruction" style="stroke:#181818;stroke-width:1.0;"/><polygon fill="#181818" points="1529.42,661.83,1538.7208,665.0696,1534.4028,661.4152,1538.0571,657.0972,1529.42,661.83" style="stroke:#181818;stroke-width:1.0;"/><text fill="#000000" font-family="sans-serif" font-size="13" lengthAdjust="spacing" textLength="248" x="1917.6" y="417.5669">Supprim&#233; par mod / delete_message()</text></g><!--link VerificationPending to Inappropriate--><g id="link_VerificationPending_Inappropriate"><path d="M779.86,181.12 C776.74,182.13 773.64,183.1 770.6,184 C622.14,228.22 397.32,220.47 468.6,358 C513.66,444.93 557.52,449.08 648.6,485 C768.91,532.45 918.2501,539.284 992.0501,539.604 " fill="none" id="VerificationPending-to-Inappropriate" style="stroke:#181818;stroke-width:1.0;"/><polygon fill="#181818" points="998.05,539.63,989.0674,535.591,993.05,539.6083,989.0327,543.5909,998.05,539.63" style="stroke:#181818;stroke-width:1.0;"/><text fill="#000000" font-family="sans-serif" font-size="13" lengthAdjust="spacing" textLength="244" x="469.6" y="354.0669">modifierStatutMessage(Inappropriate)</text></g><!--link Inappropriate to VerificationPending--><g id="link_Inappropriate_VerificationPending"><path d="M997.98,537.24 C837.34,529.62 272.46,493.41 171.6,358 C6,135.67 501.42,250.31 770.6,184 C773.68,183.24 771.0506,184.0721 774.2006,183.1521 " fill="none" id="Inappropriate-to-VerificationPending" style="stroke:#181818;stroke-width:1.0;"/><polygon fill="#181818" points="779.96,181.47,770.1995,180.1536,775.1605,182.8718,772.4423,187.8327,779.96,181.47" style="stroke:#181818;stroke-width:1.0;"/><text fill="#000000" font-family="sans-serif" font-size="13" lengthAdjust="spacing" textLength="281" x="172.6" y="354.0669">modifierStatutMessage(VerificationPending)</text></g><!--link VerificationPending to Hidden--><g id="link_VerificationPending_Hidden"><path d="M893.2,162.46 C956.62,166.89 1061.44,179.3 1144.6,214 C1234.63,251.56 1264.87,263.12 1323.6,341 C1333.99,354.77 1338.8436,367.402 1342.5336,382.042 " fill="none" id="VerificationPending-to-Hidden" style="stroke:#181818;stroke-width:1.0;"/><polygon fill="#181818" points="1344,387.86,1345.679,378.1553,1342.778,383.0116,1337.9217,380.1106,1344,387.86" style="stroke:#181818;stroke-width:1.0;"/><text fill="#000000" font-family="sans-serif" font-size="13" lengthAdjust="spacing" textLength="204" x="1298.6" y="290.5669">modifierStatutMessage(Hidden)</text></g><!--link Hidden to VerificationPending--><g id="link_Hidden_VerificationPending"><path d="M1375.82,401.88 C1434.15,378.74 1561.96,319.45 1511.6,261 C1431.7,168.25 1047.05,159.4284 899.33,159.4684 " fill="none" id="Hidden-to-VerificationPending" style="stroke:#181818;stroke-width:1.0;"/><polygon fill="#181818" points="893.33,159.47,902.33,163.47,898.33,159.47,902.33,155.47,893.33,159.47" style="stroke:#181818;stroke-width:1.0;"/><text fill="#000000" font-family="sans-serif" font-size="13" lengthAdjust="spacing" textLength="281" x="1523.6" y="290.5669">modifierStatutMessage(VerificationPending)</text></g><!--link VerificationPending to Sent--><g id="link_VerificationPending_Sent"><path d="M779.87,169.47 C732.89,178.6 671.5,193.98 656.6,214 C623.09,259.04 722.8391,276.1266 773.3391,281.9166 " fill="none" id="VerificationPending-to-Sent" style="stroke:#181818;stroke-width:1.0;"/><polygon fill="#181818" points="779.3,282.6,770.8142,277.6009,774.3325,282.0305,769.9029,285.5488,779.3,282.6" style="stroke:#181818;stroke-width:1.0;"/><text fill="#000000" font-family="sans-serif" font-size="13" lengthAdjust="spacing" textLength="189" x="657.6" y="227.0669">modifierStatutMessage(Sent)</text></g><!--link Sent to VerificationPending--><g id="link_Sent_VerificationPending"><path d="M829.84,263.3 C838.47,254.29 847.07,243.11 851.6,231 C857.26,215.9 855.5911,203.7775 850.4211,189.7975 " fill="none" id="Sent-to-VerificationPending" style="stroke:#181818;stroke-width:1.0;"/><polygon fill="#181818" points="848.34,184.17,847.71,193.9987,850.0743,188.8596,855.2134,191.2238,848.34,184.17" style="stroke:#181818;stroke-width:1.0;"/><text fill="#000000" font-family="sans-serif" font-size="13" lengthAdjust="spacing" textLength="281" x="854.6" y="227.0669">modifierStatutMessage(VerificationPending)</text></g><!--link Hidden to EnDestruction--><g id="link_Hidden_EnDestruction"><path d="M1375.69,416.33 C1430.39,421.67 1550.93,436.77 1575.6,468 C1599.81,498.64 1685.56,401.63 1543.6,612 C1535.77,623.6 1529.4519,630.1079 1518.1419,638.2379 " fill="none" id="Hidden-to-EnDestruction" style="stroke:#181818;stroke-width:1.0;"/><polygon fill="#181818" points="1513.27,641.74,1522.9126,639.7348,1517.3299,638.8216,1518.2431,633.2389,1513.27,641.74" style="stroke:#181818;stroke-width:1.0;"/><text fill="#000000" font-family="sans-serif" font-size="13" lengthAdjust="spacing" textLength="248" x="1606.6" y="544.5669">Supprim&#233; par mod / delete_message()</text></g><!--link Hidden to Inappropriate--><g id="link_Hidden_Inappropriate"><path d="M1339.98,438.05 C1333.09,453.81 1321.86,473.55 1305.6,485 C1270.29,509.87 1154.8,526.1987 1089.28,533.7987 " fill="none" id="Hidden-to-Inappropriate" style="stroke:#181818;stroke-width:1.0;"/><polygon fill="#181818" points="1083.32,534.49,1092.7209,537.4264,1088.2867,533.9139,1091.7992,529.4796,1083.32,534.49" style="stroke:#181818;stroke-width:1.0;"/><text fill="#000000" font-family="sans-serif" font-size="13" lengthAdjust="spacing" textLength="244" x="1322.6" y="481.0669">modifierStatutMessage(Inappropriate)</text></g><!--link Inappropriate to Hidden--><g id="link_Inappropriate_Hidden"><path d="M1051.54,514.94 C1060.1,498.97 1073.59,478.98 1091.6,468 C1169.48,420.54 1207.02,463.42 1294.6,438 C1303.57,435.4 1307.5087,434.0727 1315.9287,430.2827 " fill="none" id="Inappropriate-to-Hidden" style="stroke:#181818;stroke-width:1.0;"/><polygon fill="#181818" points="1321.4,427.82,1311.5513,427.8666,1316.8406,429.8723,1314.8349,435.1616,1321.4,427.82" style="stroke:#181818;stroke-width:1.0;"/><text fill="#000000" font-family="sans-serif" font-size="13" lengthAdjust="spacing" textLength="204" x="1092.6" y="481.0669">modifierStatutMessage(Hidden)</text></g><!--link Hidden to Sent--><g id="link_Hidden_Sent"><path d="M1321.51,397.77 C1313.1,393.96 1303.66,390.27 1294.6,388 C1205.56,365.69 966.95,394.22 882.6,358 C859.05,347.89 841.8871,332.1101 827.5771,315.8001 " fill="none" id="Hidden-to-Sent" style="stroke:#181818;stroke-width:1.0;"/><polygon fill="#181818" points="823.62,311.29,826.5489,320.6933,826.9176,315.0485,832.5624,315.4172,823.62,311.29" style="stroke:#181818;stroke-width:1.0;"/><text fill="#000000" font-family="sans-serif" font-size="13" lengthAdjust="spacing" textLength="189" x="883.6" y="354.0669">modifierStatutMessage(Sent)</text></g><!--link Sent to Hidden--><g id="link_Sent_Hidden"><path d="M829.98,289.9 C878.85,295.95 989.04,311.82 1077.6,341 C1094.41,346.54 1096.71,352.73 1113.6,358 C1191.44,382.31 1216.5,364.59 1294.6,388 C1303.55,390.68 1307.4787,392.0273 1315.8987,395.8173 " fill="none" id="Sent-to-Hidden" style="stroke:#181818;stroke-width:1.0;"/><polygon fill="#181818" points="1321.37,398.28,1314.8049,390.9384,1316.8106,396.2277,1311.5213,398.2334,1321.37,398.28" style="stroke:#181818;stroke-width:1.0;"/><text fill="#000000" font-family="sans-serif" font-size="13" lengthAdjust="spacing" textLength="204" x="1114.6" y="354.0669">modifierStatutMessage(Hidden)</text></g><!--link Inappropriate to EnDestruction--><g id="link_Inappropriate_EnDestruction"><path d="M1083.23,552.89 C1149.52,571.47 1281.29,608.69 1392.6,642 C1398.24,643.69 1398.3653,643.6955 1404.2153,645.4955 " fill="none" id="Inappropriate-to-EnDestruction" style="stroke:#181818;stroke-width:1.0;"/><polygon fill="#181818" points="1409.95,647.26,1402.5243,640.7901,1405.1711,645.7896,1400.1716,648.4363,1409.95,647.26" style="stroke:#181818;stroke-width:1.0;"/><text fill="#000000" font-family="sans-serif" font-size="13" lengthAdjust="spacing" textLength="248" x="1286.6" y="608.0669">Supprim&#233; par mod / delete_message()</text></g><!--link Inappropriate to Sent--><g id="link_Inappropriate_Sent"><path d="M1013.78,514.88 C995.08,499.3 968.86,479.79 942.6,468 C886.14,442.65 846.27,485.52 806.6,438 C776.87,402.38 785.6554,349.6031 794.9254,316.8631 " fill="none" id="Inappropriate-to-Sent" style="stroke:#181818;stroke-width:1.0;"/><polygon fill="#181818" points="796.56,311.09,790.2594,318.6599,795.1978,315.9009,797.9568,320.8393,796.56,311.09" style="stroke:#181818;stroke-width:1.0;"/><text fill="#000000" font-family="sans-serif" font-size="13" lengthAdjust="spacing" textLength="189" x="807.6" y="417.5669">modifierStatutMessage(Sent)</text></g><!--link Sent to Inappropriate--><g id="link_Sent_Inappropriate"><path d="M813.88,311.1 C821.21,326.88 832.99,346.62 849.6,358 C906.42,396.9 951.52,340.74 1001.6,388 C1036.75,421.17 1041.8751,475.5001 1041.7351,508.9801 " fill="none" id="Sent-to-Inappropriate" style="stroke:#181818;stroke-width:1.0;"/><polygon fill="#181818" points="1041.71,514.98,1045.7476,505.9968,1041.7309,509.98,1037.7477,505.9634,1041.71,514.98" style="stroke:#181818;stroke-width:1.0;"/><text fill="#000000" font-family="sans-serif" font-size="13" lengthAdjust="spacing" textLength="244" x="1031.6" y="417.5669">modifierStatutMessage(Inappropriate)</text></g><!--link Sent to EnDestruction--><g id="link_Sent_EnDestruction"><path d="M779.29,304.77 C731.52,340.46 636.96,422.76 684.6,485 C835.8,682.48 985.1,566.42 1229.6,612 C1302.02,625.5 1321.09,624.34 1392.6,642 C1398.18,643.38 1398.1675,643.2936 1403.9175,644.9236 " fill="none" id="Sent-to-EnDestruction" style="stroke:#181818;stroke-width:1.0;"/><polygon fill="#181818" points="1409.69,646.56,1402.1221,640.2571,1404.8795,645.1963,1399.9403,647.9538,1409.69,646.56" style="stroke:#181818;stroke-width:1.0;"/><text fill="#000000" font-family="sans-serif" font-size="13" lengthAdjust="spacing" textLength="248" x="685.6" y="481.0669">Supprim&#233; par mod / delete_message()</text></g><!--reverse link *end* to EnDestruction--><g id="link_*end*_EnDestruction"><path d="M1380.78,667 C1392.51,667 1398.24,667 1409.97,667 " fill="none" id="*end*-backto-EnDestruction" style="stroke:#181818;stroke-width:1.0;"/><polygon fill="#181818" points="1374.78,667,1383.78,671,1379.78,667,1383.78,663,1374.78,667" style="stroke:#181818;stroke-width:1.0;"/></g><!--SRC=[fPJFJeGm4CRlVOgv-ISXwfM3brMZ1nCZYHTZJAMpR7LfSMWFQdm07sMVWnTp2he1Ku9XUo5qlkytqu-6FLXOizI59-cqDP2l93c4WcIrqgyUnHuqNqww6j218sbg7NIrg5-qgIJ94cek8tm8u7LXZSlqEyB9SVj-QxrH2qi6AMnz2j6fpys2catNCWKqZjxucJFOaSyTUje_s4hFiDiTYXNsjUB-y04IqiNA9QTzlEYtIhXsXwINEcytRj0eROeKIYoV2C6mfhIgsN0Qp8KZaC_MEwHhh6jP83VwYyjudgr_mYiYlLl8u8mfPBwgI9VD1ZZX06MOmZKwV2oti37MbP7ijWpWETBWPXbInc5wzplBG3JEkjHAeHc3TDLnzqyqKM-eSI0T0WPhRY1Zh3c1ZB6cZpJcZ5-xA2WYvQW64-uOLOpLG_xliqz0fgEQ0EoSMEWoEwBMF3EPk7VEFOoJTavc44YoncNuQV8VL7m3]--></g></svg>