<?xml version="1.0" encoding="us-ascii" standalone="no"?><svg xmlns="http://www.w3.org/2000/svg" xmlns:xlink="http://www.w3.org/1999/xlink" contentStyleType="text/css" height="353px" preserveAspectRatio="none" style="width:792px;height:353px;background:#FFFFFF;" version="1.1" viewBox="0 0 792 353" width="792px" zoomAndPan="magnify"><defs/><g><rect fill="#FFFFFF" height="211.186" style="stroke:#181818;stroke-width:1.0;" width="10" x="377" y="117.7739"/><rect fill="#FFFFFF" height="25" style="stroke:#181818;stroke-width:1.0;" width="10" x="382" y="184.186"/><rect fill="#FFFFFF" height="16.3619" style="stroke:#181818;stroke-width:1.0;" width="10" x="712.5" y="284.598"/><rect fill="none" height="183.186" style="stroke:#000000;stroke-width:1.5;" width="469.5" x="316.5" y="132.7739"/><rect fill="none" height="77.7739" style="stroke:#000000;stroke-width:1.5;" width="449.5" x="326.5" y="231.186"/><line style="stroke:#181818;stroke-width:0.5;stroke-dasharray:5.0,5.0;" x1="61" x2="61" y1="84.0679" y2="346.9599"/><line style="stroke:#181818;stroke-width:0.5;stroke-dasharray:5.0,5.0;" x1="381.5" x2="381.5" y1="84.0679" y2="346.9599"/><line style="stroke:#181818;stroke-width:0.5;stroke-dasharray:5.0,5.0;" x1="717" x2="717" y1="282.9259" y2="346.9599"/><text fill="#000000" font-family="sans-serif" font-size="14" lengthAdjust="spacing" text-decoration="underline" textLength="106" x="5" y="79.9659">:Administrateur</text><ellipse cx="61" cy="13.5" fill="#FFFFFF" rx="8" ry="8" style="stroke:#181818;stroke-width:0.5;"/><path d="M61,21.5 L61,48.5 M48,29.5 L74,29.5 M61,48.5 L48,63.5 M61,48.5 L74,63.5 " fill="none" style="stroke:#181818;stroke-width:0.5;"/><rect fill="#FFFFFF" height="33.0679" rx="2.5" ry="2.5" style="stroke:#181818;stroke-width:0.5;" width="91" x="336.5" y="50"/><text fill="#000000" font-family="sans-serif" font-size="14" lengthAdjust="spacing" text-decoration="underline" textLength="77" x="343.5" y="71.9659">m:MiniSocs</text><rect fill="#FFFFFF" height="211.186" style="stroke:#181818;stroke-width:1.0;" width="10" x="377" y="117.7739"/><rect fill="#FFFFFF" height="25" style="stroke:#181818;stroke-width:1.0;" width="10" x="382" y="184.186"/><rect fill="#FFFFFF" height="16.3619" style="stroke:#181818;stroke-width:1.0;" width="10" x="712.5" y="284.598"/><polygon fill="#181818" points="365,113.7739,375,117.7739,365,121.7739,369,117.7739" style="stroke:#181818;stroke-width:1.0;"/><line style="stroke:#181818;stroke-width:1.0;" x1="61" x2="371" y1="117.7739" y2="117.7739"/><text fill="#000000" font-family="sans-serif" font-size="13" lengthAdjust="spacing" textLength="297" x="68" y="111.9649">ajouterUtilisateur(pseudo, nom, pr&#233;nom, courriel)</text><path d="M316.5,132.7739 L383.5,132.7739 L383.5,142.4799 L373.5,152.4799 L316.5,152.4799 L316.5,132.7739 " fill="#EEEEEE" style="stroke:#000000;stroke-width:1.5;"/><rect fill="none" height="183.186" style="stroke:#000000;stroke-width:1.5;" width="469.5" x="316.5" y="132.7739"/><text fill="#000000" font-family="sans-serif" font-size="13" font-weight="bold" lengthAdjust="spacing" textLength="22" x="331.5" y="147.6709">opt</text><text fill="#000000" font-family="sans-serif" font-size="11" font-weight="bold" lengthAdjust="spacing" textLength="287" x="398.5" y="146.5328">[pseudo, nom, pr&#233;nom, courriel non null &#8743; non vide]</text><line style="stroke:#181818;stroke-width:1.0;" x1="387" x2="434" y1="171.186" y2="171.186"/><line style="stroke:#181818;stroke-width:1.0;" x1="434" x2="434" y1="171.186" y2="184.186"/><line style="stroke:#181818;stroke-width:1.0;" x1="393" x2="434" y1="184.186" y2="184.186"/><polygon fill="#181818" points="403,180.186,393,184.186,403,188.186,399,184.186" style="stroke:#181818;stroke-width:1.0;"/><text fill="#000000" font-family="sans-serif" font-size="13" lengthAdjust="spacing" textLength="250" x="399" y="165.377">u=chercherUtilisateur(pseudo): Utilisateur</text><line style="stroke:#181818;stroke-width:1.0;stroke-dasharray:2.0,2.0;" x1="392" x2="434" y1="208.186" y2="208.186"/><line style="stroke:#181818;stroke-width:1.0;stroke-dasharray:2.0,2.0;" x1="434" x2="434" y1="208.186" y2="221.186"/><line style="stroke:#181818;stroke-width:1.0;stroke-dasharray:2.0,2.0;" x1="387" x2="434" y1="221.186" y2="221.186"/><polygon fill="#181818" points="397,217.186,387,221.186,397,225.186,393,221.186" style="stroke:#181818;stroke-width:1.0;"/><path d="M326.5,231.186 L393.5,231.186 L393.5,240.892 L383.5,250.892 L326.5,250.892 L326.5,231.186 " fill="#EEEEEE" style="stroke:#000000;stroke-width:1.5;"/><rect fill="none" height="77.7739" style="stroke:#000000;stroke-width:1.5;" width="449.5" x="326.5" y="231.186"/><text fill="#000000" font-family="sans-serif" font-size="13" font-weight="bold" lengthAdjust="spacing" textLength="22" x="341.5" y="246.083">opt</text><text fill="#000000" font-family="sans-serif" font-size="11" font-weight="bold" lengthAdjust="spacing" textLength="53" x="408.5" y="244.9449">[u == null]</text><polygon fill="#181818" points="657,270.598,667,274.598,657,278.598,661,274.598" style="stroke:#181818;stroke-width:1.0;"/><line style="stroke:#181818;stroke-width:1.0;" x1="387" x2="663" y1="274.598" y2="274.598"/><text fill="#000000" font-family="sans-serif" font-size="13" lengthAdjust="spacing" textLength="258" x="394" y="268.789">u=&#171;create(pseudo, nom, pr&#233;nom, courriel)&#187;</text><rect fill="#FFFFFF" height="33.0679" rx="2.5" ry="2.5" style="stroke:#181818;stroke-width:0.5;" width="97" x="669" y="250.892"/><text fill="#000000" font-family="sans-serif" font-size="14" lengthAdjust="spacing" text-decoration="underline" textLength="83" x="676" y="272.8579">u:Utilisateur</text><polygon fill="#181818" points="398,296.9599,388,300.9599,398,304.9599,394,300.9599" style="stroke:#181818;stroke-width:1.0;"/><line style="stroke:#181818;stroke-width:1.0;stroke-dasharray:2.0,2.0;" x1="392" x2="716.5" y1="300.9599" y2="300.9599"/><polygon fill="#181818" points="72,324.9599,62,328.9599,72,332.9599,68,328.9599" style="stroke:#181818;stroke-width:1.0;"/><line style="stroke:#181818;stroke-width:1.0;stroke-dasharray:2.0,2.0;" x1="66" x2="381" y1="328.9599" y2="328.9599"/><!--SRC=[XL5BRi8m4Dtx52Cs0K5xW0YGA2oBX8HGbyXr1c9mxDGVn15wZEugpf6Rz2GT6mgH-bjOzZozUU_DE9j9lhMygX0A1DUSNW9gWT1TAAxzQlxOonZBfaPlv3POxgNH84fkFGArrQKaViPAISqRO_opEJAtbxhcf0aEpseBuaiXQr9yu6A_jIReOcgKiV1KIey_j4o4D_PdCijcpKaeVabJe0CkF0Rh07qgwvkVWsxHd7RD6-1HEfyGVg0B5B-DIqFoQ0YTzJgV59NKn2Lz4bslEy2f9uAi9HofLJudvj88Ts5L56vvtI4_e015UIfqZc_H3L8bR7DAqLrSUJlhW0OGzvGbci7T62hezo47lZF1errvgQHBgRgrmr2O0MXJ3Q0cnVGG9bWhKVMOgJtypI5OWmvAmSVhUoeEz8iCoFJc74QYH1lFT_DU3YsG6YtwO3KzX4N2ueP2tg9SbXI84UC568rI0AelhhzrV8KP3i_I_uq_7YVDQo3K1Old37m2]--></g></svg>