<?xml version="1.0" encoding="us-ascii" standalone="no"?><svg xmlns="http://www.w3.org/2000/svg" xmlns:xlink="http://www.w3.org/1999/xlink" contentStyleType="text/css" height="800px" preserveAspectRatio="none" style="width:828px;height:800px;background:#FFFFFF;" version="1.1" viewBox="0 0 828 800" width="828px" zoomAndPan="magnify"><defs/><g><!--class MiniSocs--><g id="elem_MiniSocs"><rect codeLine="14" fill="#FFFFFF" height="74.8906" id="MiniSocs" rx="2.5" ry="2.5" style="stroke:#000000;stroke-width:0.5;" width="212" x="273.5" y="34.5"/><text fill="#000000" font-family="sans-serif" font-size="14" lengthAdjust="spacing" textLength="61" x="349" y="52.4951">MiniSocs</text><line style="stroke:#000000;stroke-width:0.5;" x1="274.5" x2="484.5" y1="60.7969" y2="60.7969"/><rect fill="none" height="6" style="stroke:#C82930;stroke-width:1.0;" width="6" x="281.5" y="71.4453"/><text fill="#000000" font-family="sans-serif" font-size="14" lengthAdjust="spacing" textLength="80" x="293.5" y="77.792">nom: String</text><line style="stroke:#000000;stroke-width:0.5;" x1="274.5" x2="484.5" y1="85.0938" y2="85.0938"/><rect fill="#F24D5C" height="6" style="stroke:#C82930;stroke-width:1.0;" width="6" x="281.5" y="95.7422"/><text fill="#000000" font-family="sans-serif" font-size="14" lengthAdjust="spacing" textLength="186" x="293.5" y="102.0889">cr&#233;erUtilisateur(): methode</text></g><!--class Utilisateur--><g id="elem_Utilisateur"><rect codeLine="19" fill="#FFFFFF" height="156.375" id="Utilisateur" rx="2.5" ry="2.5" style="stroke:#000000;stroke-width:0.5;" width="216" x="191.5" y="214"/><text fill="#000000" font-family="sans-serif" font-size="14" lengthAdjust="spacing" textLength="68" x="265.5" y="231.9951">Utilisateur</text><line style="stroke:#000000;stroke-width:0.5;" x1="192.5" x2="406.5" y1="240.2969" y2="240.2969"/><rect fill="none" height="6" style="stroke:#C82930;stroke-width:1.0;" width="6" x="199.5" y="250.9453"/><text fill="#000000" font-family="sans-serif" font-size="14" lengthAdjust="spacing" textLength="140" x="211.5" y="257.292">pseudonyme: String</text><rect fill="none" height="6" style="stroke:#C82930;stroke-width:1.0;" width="6" x="199.5" y="267.2422"/><text fill="#000000" font-family="sans-serif" font-size="14" lengthAdjust="spacing" textLength="80" x="211.5" y="273.5889">nom: String</text><rect fill="none" height="6" style="stroke:#C82930;stroke-width:1.0;" width="6" x="199.5" y="283.5391"/><text fill="#000000" font-family="sans-serif" font-size="14" lengthAdjust="spacing" textLength="103" x="211.5" y="289.8857">pr&#233;nom: String</text><rect fill="none" height="6" style="stroke:#C82930;stroke-width:1.0;" width="6" x="199.5" y="299.8359"/><text fill="#000000" font-family="sans-serif" font-size="14" lengthAdjust="spacing" textLength="100" x="211.5" y="306.1826">courriel: String</text><rect fill="none" height="6" style="stroke:#C82930;stroke-width:1.0;" width="6" x="199.5" y="316.1328"/><text fill="#000000" font-family="sans-serif" font-size="14" lengthAdjust="spacing" textLength="173" x="211.5" y="322.4795">etatCompte: &#201;tatCompte</text><line style="stroke:#000000;stroke-width:0.5;" x1="192.5" x2="406.5" y1="329.7813" y2="329.7813"/><rect fill="#F24D5C" height="6" style="stroke:#C82930;stroke-width:1.0;" width="6" x="199.5" y="340.4297"/><text fill="#000000" font-family="sans-serif" font-size="14" lengthAdjust="spacing" textLength="137" x="211.5" y="346.7764">cr&#233;erRS(): methode</text><rect fill="#F24D5C" height="6" style="stroke:#C82930;stroke-width:1.0;" width="6" x="199.5" y="356.7266"/><text fill="#000000" font-family="sans-serif" font-size="14" lengthAdjust="spacing" textLength="190" x="211.5" y="363.0732">posterMessage(): methode</text></g><!--class ?tatCompte--><g id="elem_&#201;tatCompte"><rect codeLine="29" fill="#FFFFFF" height="113.4531" id="&#201;tatCompte" rx="2.5" ry="2.5" style="stroke:#000000;stroke-width:0.5;" width="90" x="520.5" y="15.5"/><text fill="#000000" font-family="sans-serif" font-size="12" font-style="italic" lengthAdjust="spacing" textLength="49" x="541" y="31.6387">&#171;enum&#187;</text><text fill="#000000" font-family="sans-serif" font-size="14" lengthAdjust="spacing" textLength="82" x="524.5" y="47.4639">&#201;tatCompte</text><line style="stroke:#000000;stroke-width:0.5;" x1="521.5" x2="609.5" y1="55.7656" y2="55.7656"/><text fill="#000000" font-family="sans-serif" font-size="14" lengthAdjust="spacing" textLength="39" x="526.5" y="72.7607">ACTIF</text><text fill="#000000" font-family="sans-serif" font-size="14" lengthAdjust="spacing" textLength="78" x="526.5" y="89.0576">D&#201;SACTIV&#201;</text><text fill="#000000" font-family="sans-serif" font-size="14" lengthAdjust="spacing" textLength="58" x="526.5" y="105.3545">BLOQU&#201;</text><text fill="#000000" font-family="sans-serif" font-size="14" lengthAdjust="spacing" textLength="78" x="526.5" y="121.6514">D&#201;BLOQU&#201;</text></g><!--class ?tatMessage--><g id="elem_&#201;tatMessage"><rect codeLine="36" fill="#FFFFFF" height="129.75" id="&#201;tatMessage" rx="2.5" ry="2.5" style="stroke:#000000;stroke-width:0.5;" width="176" x="645.5" y="7"/><text fill="#000000" font-family="sans-serif" font-size="12" font-style="italic" lengthAdjust="spacing" textLength="49" x="709" y="23.1387">&#171;enum&#187;</text><text fill="#000000" font-family="sans-serif" font-size="14" lengthAdjust="spacing" textLength="90" x="688.5" y="38.9639">&#201;tatMessage</text><line style="stroke:#000000;stroke-width:0.5;" x1="646.5" x2="820.5" y1="47.2656" y2="47.2656"/><text fill="#000000" font-family="sans-serif" font-size="14" lengthAdjust="spacing" textLength="65" x="651.5" y="64.2607">ACCEPT&#201;</text><text fill="#000000" font-family="sans-serif" font-size="14" lengthAdjust="spacing" textLength="164" x="651.5" y="80.5576">VERIFICATION_PENDING</text><text fill="#000000" font-family="sans-serif" font-size="14" lengthAdjust="spacing" textLength="110" x="651.5" y="96.8545">INAPPROPRIATE</text><text fill="#000000" font-family="sans-serif" font-size="14" lengthAdjust="spacing" textLength="54" x="651.5" y="113.1514">HIDDEN</text><text fill="#000000" font-family="sans-serif" font-size="14" lengthAdjust="spacing" textLength="37" x="651.5" y="129.4482">SENT</text></g><!--class Membre--><g id="elem_Membre"><rect codeLine="44" fill="#FFFFFF" height="50.5938" id="Membre" rx="2.5" ry="2.5" style="stroke:#000000;stroke-width:0.5;" width="195" x="322" y="599"/><text fill="#000000" font-family="sans-serif" font-size="14" lengthAdjust="spacing" textLength="57" x="391" y="616.9951">Membre</text><line style="stroke:#000000;stroke-width:0.5;" x1="323" x2="516" y1="625.2969" y2="625.2969"/><rect fill="none" height="6" style="stroke:#C82930;stroke-width:1.0;" width="6" x="330" y="635.9453"/><text fill="#000000" font-family="sans-serif" font-size="14" lengthAdjust="spacing" textLength="169" x="342" y="642.292">pseudoParticulier: String</text></g><!--class Moderateur--><g id="elem_Moderateur"><rect codeLine="48" fill="#FFFFFF" height="74.8906" id="Moderateur" rx="2.5" ry="2.5" style="stroke:#000000;stroke-width:0.5;" width="241" x="511" y="455"/><text fill="#000000" font-family="sans-serif" font-size="14" lengthAdjust="spacing" textLength="80" x="591.5" y="472.9951">Moderateur</text><line style="stroke:#000000;stroke-width:0.5;" x1="512" x2="751" y1="481.2969" y2="481.2969"/><line style="stroke:#000000;stroke-width:0.5;" x1="512" x2="751" y1="489.2969" y2="489.2969"/><rect fill="#F24D5C" height="6" style="stroke:#C82930;stroke-width:1.0;" width="6" x="519" y="499.9453"/><text fill="#000000" font-family="sans-serif" font-size="14" lengthAdjust="spacing" textLength="203" x="531" y="506.292">bloquerUtilisateur(): methode</text><rect fill="#F24D5C" height="6" style="stroke:#C82930;stroke-width:1.0;" width="6" x="519" y="516.2422"/><text fill="#000000" font-family="sans-serif" font-size="14" lengthAdjust="spacing" textLength="215" x="531" y="522.5889">supprimerMessage(): methode</text></g><!--class ReseauSocial--><g id="elem_ReseauSocial"><rect codeLine="53" fill="#FFFFFF" height="91.1875" id="ReseauSocial" rx="2.5" ry="2.5" style="stroke:#000000;stroke-width:0.5;" width="343" x="7" y="447"/><text fill="#000000" font-family="sans-serif" font-size="14" lengthAdjust="spacing" textLength="93" x="132" y="464.9951">ReseauSocial</text><line style="stroke:#000000;stroke-width:0.5;" x1="8" x2="349" y1="473.2969" y2="473.2969"/><rect fill="none" height="6" style="stroke:#C82930;stroke-width:1.0;" width="6" x="15" y="483.9453"/><text fill="#000000" font-family="sans-serif" font-size="14" lengthAdjust="spacing" textLength="80" x="27" y="490.292">nom: String</text><rect fill="none" height="6" style="stroke:#C82930;stroke-width:1.0;" width="6" x="15" y="500.2422"/><text fill="#000000" font-family="sans-serif" font-size="14" lengthAdjust="spacing" textLength="83" x="27" y="506.5889">ouvert: bool</text><line style="stroke:#000000;stroke-width:0.5;" x1="8" x2="349" y1="513.8906" y2="513.8906"/><rect fill="#F24D5C" height="6" style="stroke:#C82930;stroke-width:1.0;" width="6" x="15" y="524.5391"/><text fill="#000000" font-family="sans-serif" font-size="14" lengthAdjust="spacing" textLength="317" x="27" y="530.8857">cr&#233;erParticipation(bool moderateur): methode</text></g><!--class Message--><g id="elem_Message"><rect codeLine="59" fill="#FFFFFF" height="66.8906" id="Message" rx="2.5" ry="2.5" style="stroke:#000000;stroke-width:0.5;" width="215" x="312" y="727"/><text fill="#000000" font-family="sans-serif" font-size="14" lengthAdjust="spacing" textLength="63" x="388" y="744.9951">Message</text><line style="stroke:#000000;stroke-width:0.5;" x1="313" x2="526" y1="753.2969" y2="753.2969"/><rect fill="none" height="6" style="stroke:#C82930;stroke-width:1.0;" width="6" x="320" y="763.9453"/><text fill="#000000" font-family="sans-serif" font-size="14" lengthAdjust="spacing" textLength="107" x="332" y="770.292">contenu: String</text><rect fill="none" height="6" style="stroke:#C82930;stroke-width:1.0;" width="6" x="320" y="780.2422"/><text fill="#000000" font-family="sans-serif" font-size="14" lengthAdjust="spacing" textLength="189" x="332" y="786.5889">etatMessage: &#201;tatMessage</text></g><!--link MiniSocs to Utilisateur--><g id="link_MiniSocs_Utilisateur"><path codeLine="65" d="M361.797,121.2458 C351.367,149.6758 342.7977,173.0275 329.8277,208.3575 " fill="none" id="MiniSocs-Utilisateur" style="stroke:#000000;stroke-width:1.0;"/><polygon fill="#000000" points="365.93,109.98,360.1082,114.2352,361.797,121.2458,367.6187,116.9906,365.93,109.98" style="stroke:#000000;stroke-width:1.0;"/><polygon fill="#000000" points="327.76,213.99,334.6166,206.9198,329.4831,209.2963,327.1066,204.1628,327.76,213.99" style="stroke:#000000;stroke-width:1.0;"/><text fill="#000000" font-family="sans-serif" font-size="13" lengthAdjust="spacing" textLength="30" x="344.5" y="180.0669">Cr&#233;e</text><text fill="#000000" font-family="sans-serif" font-size="13" lengthAdjust="spacing" textLength="7" x="323.1199" y="202.8952">*</text></g><!--link Utilisateur to ReseauSocial--><g id="link_Utilisateur_ReseauSocial"><path codeLine="66" d="M252.55,370.03 C236.67,396.08 222.6031,419.1469 208.7831,441.8169 " fill="none" id="Utilisateur-to-ReseauSocial" style="stroke:#000000;stroke-width:1.0;"/><polygon fill="#000000" points="205.66,446.94,213.7601,441.3374,208.2626,442.6708,206.9293,437.1733,205.66,446.94" style="stroke:#000000;stroke-width:1.0;"/><text fill="#000000" font-family="sans-serif" font-size="13" lengthAdjust="spacing" textLength="49" x="233.5" y="413.0669">Connait</text><text fill="#000000" font-family="sans-serif" font-size="13" lengthAdjust="spacing" textLength="8" x="239.5346" y="390.5043">1</text><text fill="#000000" font-family="sans-serif" font-size="13" lengthAdjust="spacing" textLength="7" x="202.2829" y="435.8779">*</text></g><!--link Utilisateur to Membre--><g id="link_Utilisateur_Membre"><path codeLine="67" d="M335.9,370.15 C346.74,394.47 358.2,421.62 367.5,447 C387,500.24 402.9623,558.6899 411.8323,593.0999 " fill="none" id="Utilisateur-to-Membre" style="stroke:#000000;stroke-width:1.0;"/><polygon fill="#000000" points="413.33,598.91,414.9569,589.1964,412.0819,594.0683,407.2101,591.1933,413.33,598.91" style="stroke:#000000;stroke-width:1.0;"/><text fill="#000000" font-family="sans-serif" font-size="13" lengthAdjust="spacing" textLength="54" x="396.5" y="497.0669">Poss&#232;de</text><text fill="#000000" font-family="sans-serif" font-size="13" lengthAdjust="spacing" textLength="8" x="330.9881" y="390.3689">1</text><text fill="#000000" font-family="sans-serif" font-size="13" lengthAdjust="spacing" textLength="7" x="403.9729" y="587.9769">*</text></g><!--link Moderateur to Message--><g id="link_Moderateur_Message"><path codeLine="69" d="M607.6276,540.6719 C584.7576,583.9919 547.98,646.08 497.5,697 C487.24,707.35 479.9876,713.8823 468.5976,723.0323 " fill="none" id="Moderateur-Message" style="stroke:#000000;stroke-width:1.0;"/><polygon fill="#000000" points="613.23,530.06,606.8915,533.4985,607.6276,540.6719,613.9661,537.2334,613.23,530.06" style="stroke:#000000;stroke-width:1.0;"/><polygon fill="#000000" points="463.92,726.79,473.4415,724.2719,467.818,723.6586,468.4313,718.0351,463.92,726.79" style="stroke:#000000;stroke-width:1.0;"/><text fill="#000000" font-family="sans-serif" font-size="13" lengthAdjust="spacing" textLength="51" x="573.5" y="629.0669">Envoyer</text><text fill="#000000" font-family="sans-serif" font-size="13" lengthAdjust="spacing" textLength="8" x="601.4023" y="549.8924">1</text><text fill="#000000" font-family="sans-serif" font-size="13" lengthAdjust="spacing" textLength="7" x="464.7204" y="716.0243">*</text></g><!--link Membre to Message--><g id="link_Membre_Message"><path codeLine="70" d="M419.5,662.08 C419.5,683.69 419.5,697.3 419.5,720.99 " fill="none" id="Membre-Message" style="stroke:#000000;stroke-width:1.0;"/><polygon fill="#000000" points="419.5,650.08,415.5,656.08,419.5,662.08,423.5,656.08,419.5,650.08" style="stroke:#000000;stroke-width:1.0;"/><polygon fill="#000000" points="419.5,726.99,423.5,717.99,419.5,721.99,415.5,717.99,419.5,726.99" style="stroke:#000000;stroke-width:1.0;"/><text fill="#000000" font-family="sans-serif" font-size="13" lengthAdjust="spacing" textLength="68" x="420.5" y="693.0669">Demander</text><text fill="#000000" font-family="sans-serif" font-size="13" lengthAdjust="spacing" textLength="8" x="410.575" y="669.859">1</text><text fill="#000000" font-family="sans-serif" font-size="13" lengthAdjust="spacing" textLength="7" x="411.8109" y="716.0069">*</text></g><!--link MiniSocs to ReseauSocial--><g id="link_MiniSocs_ReseauSocial"><path codeLine="72" d="M405.3017,120.6755 C435.1517,180.1655 476.51,288.05 425.5,370 C404.22,404.18 375.5719,426.3474 339.4919,444.2974 " fill="none" id="MiniSocs-ReseauSocial" style="stroke:#000000;stroke-width:1.0;"/><polygon fill="#000000" points="399.92,109.95,399.0357,117.1067,405.3017,120.6755,406.186,113.5189,399.92,109.95" style="stroke:#000000;stroke-width:1.0;"/><polygon fill="#000000" points="334.12,446.97,343.9596,446.5424,338.5966,444.7429,340.3962,439.3799,334.12,446.97" style="stroke:#000000;stroke-width:1.0;"/><text fill="#000000" font-family="sans-serif" font-size="13" lengthAdjust="spacing" textLength="7" x="350.4134" y="435.9125">*</text></g><!--link ReseauSocial to Message--><g id="link_ReseauSocial_Message"><path codeLine="73" d="M212.04,538.3 C236.6,570.32 271.31,613.94 304.5,650 C329.42,677.08 355.1888,701.6547 378.3888,722.8347 " fill="none" id="ReseauSocial-to-Message" style="stroke:#000000;stroke-width:1.0;"/><polygon fill="#000000" points="382.82,726.88,378.8702,717.8579,379.1274,723.5089,373.4764,723.7661,382.82,726.88" style="stroke:#000000;stroke-width:1.0;"/><text fill="#000000" font-family="sans-serif" font-size="13" lengthAdjust="spacing" textLength="8" x="208.3787" y="558.1913">1</text><text fill="#000000" font-family="sans-serif" font-size="13" lengthAdjust="spacing" textLength="7" x="367.9096" y="715.8752">*</text></g><!--link ReseauSocial to Membre--><g id="link_ReseauSocial_Membre"><path codeLine="75" d="M271.6618,543.7564 C309.4118,564.1164 336.8288,578.9124 368.5988,596.0424 " fill="none" id="ReseauSocial-Membre" style="stroke:#000000;stroke-width:1.0;"/><polygon fill="#000000" points="261.1,538.06,264.4821,544.4288,271.6618,543.7564,268.2797,537.3876,261.1,538.06" style="stroke:#000000;stroke-width:1.0;"/><polygon fill="#000000" points="373.88,598.89,367.8565,591.0978,369.479,596.517,364.0598,598.1395,373.88,598.89" style="stroke:#000000;stroke-width:1.0;"/><text fill="#000000" font-family="sans-serif" font-size="13" lengthAdjust="spacing" textLength="8" x="265.1356" y="558.2475">1</text><text fill="#000000" font-family="sans-serif" font-size="13" lengthAdjust="spacing" textLength="7" x="354.907" y="587.952">*</text></g><!--link Moderateur to Membre--><g id="link_Moderateur_Membre"><path codeLine="77" d="M571.88,530.06 C536,552.06 506.6253,570.0714 474.9353,589.5014 " fill="none" id="Moderateur-to-Membre" style="stroke:#000000;stroke-width:1.0;"/><polygon fill="none" points="459.59,598.91,478.0715,594.6165,471.7991,584.3863,459.59,598.91" style="stroke:#000000;stroke-width:1.0;"/></g><!--SRC=[TLJRZfim47tdAwoya8qsbVgALf5OmhP8cuJcidsi739Dh0MRscQhQDiFo9yqty6FTGo4c6p22_PmVERCp37kcD6jf5a6P0CaIQbIe4W_JYdNgydpdUiuRY3uJxOj9DLCS9BigDH0y52-OxyAS9qTmwEGvNfFCj0xiL5rA64oIS5Hhupd57FKzEJT8UIH9gzRAGg-2KGg9Fc-OnemxaifVjUXnnGn1Yha1gGT-siqrKhlINdaHLOUQt6u1vrySfqwquHnjX19dN98kCWyij2IyMsrJsHv1BdIB6MAQYXa_yvhAW2Jf2QnlZSykO9Y8_W-WmxT9NsEz1zIYa9A1cad29hgG63_aAyyj1jButnXIwl8XT8W9w0KtSA5Ri2Es4JauS64HgDAlnyieoTyZyl3mgnVoeFfylFiswfQOVoqwN0rkIx9WZ1ULkTUmddq50N-CffDVyJXT1nDls0uclfnF9_5yyXVXhZ_6et7uHGNYt2wF7Tv0jbQGgV1CVgC9KNAGBRjEkEnLcaFPPqADEEjQHg4Al9SiknMrshUEIYW1Pg6qVI6RKJn1b9xP2r4QisebilooeXzyv5ahSXhgKuDVM-SmJKszeCn6fJN6K9r1NobZCoExrl73uR34UaDUhPzFH8OfOxjwDxd7Zb1xTeHApYdJAEG-hbrgfwSHsAXLFaF2tIisHZWu8niIWdvczY3T9gXNmUD8QCSYLe1Lugp5RUupWYH-uBvp7S9j4KOOPrAXiC_epRk-WLPWnACtnEAlpg5zn4nAPXxoSn4E6J0jUly1m00]--></g></svg>