<?xml version="1.0" encoding="us-ascii" standalone="no"?><svg xmlns="http://www.w3.org/2000/svg" xmlns:xlink="http://www.w3.org/1999/xlink" contentStyleType="text/css" height="1388px" preserveAspectRatio="none" style="width:814px;height:1388px;background:#FFFFFF;" version="1.1" viewBox="0 0 814 1388" width="814px" zoomAndPan="magnify"><defs/><g><!--cluster MiniSocs--><g id="cluster_MiniSocs"><rect fill="none" height="1375" rx="2.5" ry="2.5" style="stroke:#181818;stroke-width:1.0;" width="413" x="395" y="7"/><text fill="#000000" font-family="sans-serif" font-size="14" font-weight="bold" lengthAdjust="spacing" textLength="69" x="567" y="21.9951">MiniSocs</text></g><g id="elem_ajouter un utilisateur"><ellipse cx="601.6728" cy="62.8346" fill="#FFFFFF" rx="89.6728" ry="20.3346" style="stroke:#000000;stroke-width:0.5;"/><text fill="#000000" font-family="sans-serif" font-size="14" lengthAdjust="spacing" textLength="141" x="531.1728" y="65.6812">ajouter un utilisateur</text></g><g id="elem_lister les utilisateur"><ellipse cx="601.495" cy="138.199" fill="#FFFFFF" rx="83.995" ry="19.199" style="stroke:#000000;stroke-width:0.5;"/><text fill="#000000" font-family="sans-serif" font-size="14" lengthAdjust="spacing" textLength="128" x="537.2335" y="141.1356">lister les utilisateur</text></g><g id="elem_bloquer un compte utilisateur"><ellipse cx="601.4616" cy="217.9923" fill="#FFFFFF" rx="117.9616" ry="25.9923" style="stroke:#000000;stroke-width:0.5;"/><text fill="#000000" font-family="sans-serif" font-size="14" lengthAdjust="spacing" textLength="203" x="499.9616" y="220.839">bloquer un compte utilisateur</text></g><g id="elem_d&#233;bloquer un compte utilisateur"><ellipse cx="601.4187" cy="307.1837" fill="#FFFFFF" rx="126.4187" ry="27.6837" style="stroke:#000000;stroke-width:0.5;"/><text fill="#000000" font-family="sans-serif" font-size="14" lengthAdjust="spacing" textLength="221" x="490.9187" y="310.0304">d&#233;bloquer un compte utilisateur</text></g><g id="elem_d&#233;sactiver son compte"><ellipse cx="601.2599" cy="1190.852" fill="#FFFFFF" rx="97.2599" ry="21.852" style="stroke:#000000;stroke-width:0.5;"/><text fill="#000000" font-family="sans-serif" font-size="14" lengthAdjust="spacing" textLength="158" x="522.2599" y="1193.6987">d&#233;sactiver son compte</text></g><g id="elem_activer son compte"><ellipse cx="601.728" cy="1268.0456" fill="#FFFFFF" rx="85.728" ry="19.5456" style="stroke:#000000;stroke-width:0.5;"/><text fill="#000000" font-family="sans-serif" font-size="14" lengthAdjust="spacing" textLength="132" x="535.728" y="1270.8923">activer son compte</text></g><g id="elem_cr&#233;er un r&#233;seau social"><ellipse cx="601.5118" cy="1343.9024" fill="#FFFFFF" rx="95.0118" ry="21.4024" style="stroke:#000000;stroke-width:0.5;"/><text fill="#000000" font-family="sans-serif" font-size="14" lengthAdjust="spacing" textLength="153" x="525.0118" y="1346.749">cr&#233;er un r&#233;seau social</text></g><g id="elem_mod&#233;rer un message"><ellipse cx="601.7229" cy="507.0446" fill="#FFFFFF" rx="93.2229" ry="21.0446" style="stroke:#000000;stroke-width:0.5;"/><text fill="#000000" font-family="sans-serif" font-size="14" lengthAdjust="spacing" textLength="149" x="527.2229" y="509.8913">mod&#233;rer un message</text></g><g id="elem_inviter un utilisateur sur un r&#233;seau social"><ellipse cx="601.6339" cy="596.0268" fill="#FFFFFF" rx="153.1339" ry="33.0268" style="stroke:#000000;stroke-width:0.5;"/><text fill="#000000" font-family="sans-serif" font-size="14" lengthAdjust="spacing" textLength="277" x="463.1339" y="598.8735">inviter un utilisateur sur un r&#233;seau social</text></g><g id="elem_fermer son r&#233;seau social"><ellipse cx="601.7042" cy="686.9408" fill="#FFFFFF" rx="102.7042" ry="22.9408" style="stroke:#000000;stroke-width:0.5;"/><text fill="#000000" font-family="sans-serif" font-size="14" lengthAdjust="spacing" textLength="170" x="516.7042" y="689.7875">fermer son r&#233;seau social</text></g><g id="elem_bloquer un membre sur son r&#233;seau social bonus"><ellipse cx="601.7063" cy="784.2413" fill="#FFFFFF" rx="181.7063" ry="38.7413" style="stroke:#000000;stroke-width:0.5;"/><text fill="#000000" font-family="sans-serif" font-size="14" lengthAdjust="spacing" textLength="336" x="433.7063" y="787.0879">bloquer un membre sur son r&#233;seau social bonus</text></g><g id="elem_d&#233;bloquer un membre sur son r&#233;seau social bonus"><ellipse cx="601.4805" cy="409.9961" fill="#FFFFFF" rx="190.4805" ry="40.4961" style="stroke:#000000;stroke-width:0.5;"/><text fill="#000000" font-family="sans-serif" font-size="14" lengthAdjust="spacing" textLength="354" x="424.4805" y="412.8428">d&#233;bloquer un membre sur son r&#233;seau social bonus</text></g><g id="elem_rejoindre un r&#233;seau social"><ellipse cx="601.3679" cy="881.1736" fill="#FFFFFF" rx="106.3679" ry="23.6736" style="stroke:#000000;stroke-width:0.5;"/><text fill="#000000" font-family="sans-serif" font-size="14" lengthAdjust="spacing" textLength="178" x="512.3679" y="884.0203">rejoindre un r&#233;seau social</text></g><g id="elem_poster un message"><ellipse cx="601.5368" cy="959.8074" fill="#FFFFFF" rx="87.0368" ry="19.8074" style="stroke:#000000;stroke-width:0.5;"/><text fill="#000000" font-family="sans-serif" font-size="14" lengthAdjust="spacing" textLength="135" x="534.0368" y="962.654">poster un message</text></g><g id="elem_cacher un message"><ellipse cx="601.4128" cy="1034.9826" fill="#FFFFFF" rx="87.9128" ry="19.9826" style="stroke:#000000;stroke-width:0.5;"/><text fill="#000000" font-family="sans-serif" font-size="14" lengthAdjust="spacing" textLength="137" x="532.9128" y="1037.8292">cacher un message</text></g><g id="elem_quitter un r&#233;seau social"><ellipse cx="601.5673" cy="1112.2135" fill="#FFFFFF" rx="99.0673" ry="22.2135" style="stroke:#000000;stroke-width:0.5;"/><text fill="#000000" font-family="sans-serif" font-size="14" lengthAdjust="spacing" textLength="162" x="520.5673" y="1115.0601">quitter un r&#233;seau social</text></g><!--entity Administrateur--><g id="elem_Administrateur"><ellipse cx="301" cy="188.5" fill="#F1F1F1" rx="8" ry="8" style="stroke:#181818;stroke-width:0.5;"/><path d="M301,196.5 L301,223.5 M288,204.5 L314,204.5 M301,223.5 L288,238.5 M301,223.5 L314,238.5 " fill="none" style="stroke:#181818;stroke-width:0.5;"/><text fill="#000000" font-family="sans-serif" font-size="14" lengthAdjust="spacing" textLength="100" x="251" y="252.9951">Administrateur</text></g><!--entity Utilisateur--><g id="elem_Utilisateur"><ellipse cx="40" cy="1161.5" fill="#F1F1F1" rx="8" ry="8" style="stroke:#181818;stroke-width:0.5;"/><path d="M40,1169.5 L40,1196.5 M27,1177.5 L53,1177.5 M40,1196.5 L27,1211.5 M40,1196.5 L53,1211.5 " fill="none" style="stroke:#181818;stroke-width:0.5;"/><text fill="#000000" font-family="sans-serif" font-size="14" lengthAdjust="spacing" textLength="68" x="6" y="1225.9951">Utilisateur</text></g><!--entity Membre--><g id="elem_Membre"><ellipse cx="162.5" cy="968.5" fill="#F1F1F1" rx="8" ry="8" style="stroke:#181818;stroke-width:0.5;"/><path d="M162.5,976.5 L162.5,1003.5 M149.5,984.5 L175.5,984.5 M162.5,1003.5 L149.5,1018.5 M162.5,1003.5 L175.5,1018.5 " fill="none" style="stroke:#181818;stroke-width:0.5;"/><text fill="#000000" font-family="sans-serif" font-size="14" lengthAdjust="spacing" textLength="57" x="134" y="1032.9951">Membre</text></g><!--entity Moderateur--><g id="elem_Moderateur"><ellipse cx="301" cy="612.5" fill="#F1F1F1" rx="8" ry="8" style="stroke:#181818;stroke-width:0.5;"/><path d="M301,620.5 L301,647.5 M288,628.5 L314,628.5 M301,647.5 L288,662.5 M301,647.5 L314,662.5 " fill="none" style="stroke:#181818;stroke-width:0.5;"/><text fill="#000000" font-family="sans-serif" font-size="14" lengthAdjust="spacing" textLength="80" x="261" y="676.9951">Moderateur</text></g><!--reverse link Utilisateur to Administrateur--><g id="link_Utilisateur_Administrateur"><path d="M55.7801,1135.4657 C97.1901,979.8957 248.44,411.7 289.85,256.14 " fill="none" id="Utilisateur-backto-Administrateur" style="stroke:#000000;stroke-width:1.0;"/><polygon fill="none" points="51.15,1152.86,61.5782,1137.009,49.982,1133.9223,51.15,1152.86" style="stroke:#000000;stroke-width:1.0;"/></g><!--reverse link Membre to Moderateur--><g id="link_Membre_Moderateur"><path d="M184.5547,943.0933 C210.7947,874.6633 259.16,748.52 285.39,680.09 " fill="none" id="Membre-backto-Moderateur" style="stroke:#000000;stroke-width:1.0;"/><polygon fill="none" points="178.11,959.9,190.1569,945.2415,178.9524,940.945,178.11,959.9" style="stroke:#000000;stroke-width:1.0;"/></g><!--reverse link Utilisateur to Membre--><g id="link_Utilisateur_Membre"><path d="M74.3402,1137.5999 C95.4602,1103.7599 116.63,1069.86 137.74,1036.05 " fill="none" id="Utilisateur-backto-Membre" style="stroke:#000000;stroke-width:1.0;"/><polygon fill="none" points="64.81,1152.87,79.4303,1140.7767,69.2502,1134.4232,64.81,1152.87" style="stroke:#000000;stroke-width:1.0;"/></g><!--link Administrateur to ajouter un utilisateur--><g id="link_Administrateur_ajouter un utilisateur"><path d="M319.88,179.75 C334.26,153.37 356.99,119.78 387,101 C424.02,77.83 471.32,67.85 511.99,63.87 " fill="none" id="Administrateur-ajouter un utilisateur" style="stroke:#000000;stroke-width:1.0;"/></g><!--link Administrateur to lister les utilisateur--><g id="link_Administrateur_lister les utilisateur"><path d="M351.21,189.27 C362.66,183.5 375.02,178 387,174 C431.03,159.29 482.27,150.4 523.51,145.13 " fill="none" id="Administrateur-lister les utilisateur" style="stroke:#000000;stroke-width:1.0;"/></g><!--link Administrateur to bloquer un compte utilisateur--><g id="link_Administrateur_bloquer un compte utilisateur"><path d="M351.29,218 C387.22,218 437.46,218 483.43,218 " fill="none" id="Administrateur-bloquer un compte utilisateur" style="stroke:#000000;stroke-width:1.0;"/></g><!--link Administrateur to d?bloquer un compte utilisateur--><g id="link_Administrateur_d&#233;bloquer un compte utilisateur"><path d="M351.4,245.66 C362.85,251.31 375.15,256.81 387,261 C422.83,273.69 463.34,283.49 499.37,290.73 " fill="none" id="Administrateur-d&#233;bloquer un compte utilisateur" style="stroke:#000000;stroke-width:1.0;"/></g><!--link Utilisateur to d?sactiver son compte--><g id="link_Utilisateur_d&#233;sactiver son compte"><path d="M74.32,1191 C157.37,1191 376.02,1191 503.81,1191 " fill="none" id="Utilisateur-d&#233;sactiver son compte" style="stroke:#000000;stroke-width:1.0;"/></g><!--link Utilisateur to activer son compte--><g id="link_Utilisateur_activer son compte"><path d="M74.32,1195.59 C162.78,1207.76 405.09,1241.11 527.57,1257.96 " fill="none" id="Utilisateur-activer son compte" style="stroke:#000000;stroke-width:1.0;"/></g><!--link Utilisateur to cr?er un r?seau social--><g id="link_Utilisateur_cr&#233;er un r&#233;seau social"><path d="M74.43,1203.73 C135.66,1226.65 270.25,1275.25 387,1305 C431.09,1316.23 481.09,1325.55 521.61,1332.25 " fill="none" id="Utilisateur-cr&#233;er un r&#233;seau social" style="stroke:#000000;stroke-width:1.0;"/></g><!--link Moderateur to mod?rer un message--><g id="link_Moderateur_mod&#233;rer un message"><path d="M326.13,603.58 C341.12,582.96 362.23,558.97 387,545 C423.89,524.19 469.59,514.33 509.23,509.82 " fill="none" id="Moderateur-mod&#233;rer un message" style="stroke:#000000;stroke-width:1.0;"/></g><!--link Moderateur to inviter un utilisateur sur un r?seau social--><g id="link_Moderateur_inviter un utilisateur sur un r&#233;seau social"><path d="M341.02,635.99 C375.55,630.67 427.87,622.6 476.5,615.11 " fill="none" id="Moderateur-inviter un utilisateur sur un r&#233;seau social" style="stroke:#000000;stroke-width:1.0;"/></g><!--link Moderateur to fermer son r?seau social--><g id="link_Moderateur_fermer son r&#233;seau social"><path d="M341.02,647.88 C385.19,654.54 458.46,665.59 515.9,674.25 " fill="none" id="Moderateur-fermer son r&#233;seau social" style="stroke:#000000;stroke-width:1.0;"/></g><!--link Moderateur to bloquer un membre sur son r?seau social bonus--><g id="link_Moderateur_bloquer un membre sur son r&#233;seau social bonus"><path d="M332.03,680.04 C346.95,696.64 366.21,715.01 387,727 C410.43,740.51 437.15,750.91 463.56,758.87 " fill="none" id="Moderateur-bloquer un membre sur son r&#233;seau social bonus" style="stroke:#000000;stroke-width:1.0;"/></g><!--link Moderateur to d?bloquer un membre sur son r?seau social bonus--><g id="link_Moderateur_d&#233;bloquer un membre sur son r&#233;seau social bonus"><path d="M310.68,603.98 C321.71,564.29 344.63,503.02 387,468 C404.76,453.32 425.93,442.33 447.92,434.11 " fill="none" id="Moderateur-d&#233;bloquer un membre sur son r&#233;seau social bonus" style="stroke:#000000;stroke-width:1.0;"/></g><!--link Membre to rejoindre un r?seau social--><g id="link_Membre_rejoindre un r&#233;seau social"><path d="M191.13,982 C207.99,972.78 230.22,961.55 251,954 C335.91,923.15 437.43,903.76 509.11,892.79 " fill="none" id="Membre-rejoindre un r&#233;seau social" style="stroke:#000000;stroke-width:1.0;"/></g><!--link Membre to poster un message--><g id="link_Membre_poster un message"><path d="M191.39,992.88 C208.53,989.9 230.98,986.28 251,984 C341.19,973.71 445.01,967.26 515.91,963.67 " fill="none" id="Membre-poster un message" style="stroke:#000000;stroke-width:1.0;"/></g><!--link Membre to cacher un message--><g id="link_Membre_cacher un message"><path d="M191.17,1000.34 C255.8,1005.82 418.78,1019.61 518.49,1028.06 " fill="none" id="Membre-cacher un message" style="stroke:#000000;stroke-width:1.0;"/></g><!--link Membre to quitter un r?seau social--><g id="link_Membre_quitter un r&#233;seau social"><path d="M191.02,1008.45 C232.85,1024.02 315.17,1053.47 387,1072 C430.45,1083.21 479.64,1092.64 519.84,1099.53 " fill="none" id="Membre-quitter un r&#233;seau social" style="stroke:#000000;stroke-width:1.0;"/></g><!--SRC=[ZLBBJYCn4BpxArfSXXpuWL64H43QFMoabH3YxDYT6OFj3dw0LWl_GxuZFxOzZoW9CPlCoTDTLLskTdLdP1EaSmWQGSa8kih9M1DbCkJXyhULFZtCVqqg8QfRyalJv33qL2j3Gc3wgZKl6IiHdurVIPQ379754FwAcLJFJQ3izIrP2l3OceHYHa5Z62epon1n4mAz7HHKel25FPt2p-oaX-jh-45MYmyXB2uJ989WcZQ1DW5LPu_jtctMoihHhSO8KYNC8K9T2TcfmursnfkO6CEDiVWmtdzNcQDR1Dp-43iVkdj8cBvVNNtL6tZGVtt_VznnIC7syLgqz14iGlmJq-RJSVJThQLlk7OnPmltfE85fryVEgg11rtA9ye90sGFUUTYKWPpkyDQzd4QlB343w5NLkHM_3fES_HcVO8cwhsmwYxCaHTv8-QLYP6sp4aPV3PGXSrwSCA7Y38pHHbfEnUxxVNm7k-8VOI1uJ16sNJA9QJnh-OuTOYvD0tA6aiCRhp5UOIzPDtm6BjvntnOaC_n6-U76pfBXuLws22o5GhuHCPhPXVoBJ9M5DDHk0MSagez1_UIJKhb_Nw8Vm00]--></g></svg>