<?xml version="1.0" encoding="us-ascii" standalone="no"?><svg xmlns="http://www.w3.org/2000/svg" xmlns:xlink="http://www.w3.org/1999/xlink" contentStyleType="text/css" height="821px" preserveAspectRatio="none" style="width:691px;height:821px;background:#FFFFFF;" version="1.1" viewBox="0 0 691 821" width="691px" zoomAndPan="magnify"><defs/><g><!--class MiniSocs--><g id="elem_MiniSocs"><rect codeLine="14" fill="#FFFFFF" height="188.9688" id="MiniSocs" rx="2.5" ry="2.5" style="stroke:#000000;stroke-width:0.5;" width="302" x="7" y="7"/><text fill="#000000" font-family="sans-serif" font-size="14" lengthAdjust="spacing" textLength="61" x="127.5" y="24.9951">MiniSocs</text><line style="stroke:#000000;stroke-width:0.5;" x1="8" x2="308" y1="33.2969" y2="33.2969"/><rect fill="none" height="6" style="stroke:#C82930;stroke-width:1.0;" width="6" x="15" y="43.9453"/><text fill="#000000" font-family="sans-serif" font-size="14" lengthAdjust="spacing" textLength="160" x="27" y="50.292">nomDuSysteme: String</text><line style="stroke:#000000;stroke-width:0.5;" x1="8" x2="308" y1="57.5938" y2="57.5938"/><rect fill="#F24D5C" height="6" style="stroke:#C82930;stroke-width:1.0;" width="6" x="15" y="68.2422"/><text fill="#000000" font-family="sans-serif" font-size="14" lengthAdjust="spacing" textLength="198" x="27" y="74.5889">ajouterUtilisateur(): methode</text><rect fill="#F24D5C" height="6" style="stroke:#C82930;stroke-width:1.0;" width="6" x="15" y="84.5391"/><text fill="#000000" font-family="sans-serif" font-size="14" lengthAdjust="spacing" textLength="211" x="27" y="90.8857">creerReseauSocial(): methode</text><rect fill="#F24D5C" height="6" style="stroke:#C82930;stroke-width:1.0;" width="6" x="15" y="100.8359"/><text fill="#000000" font-family="sans-serif" font-size="14" lengthAdjust="spacing" textLength="206" x="27" y="107.1826">ajouterMembreRS(): methode</text><rect fill="#F24D5C" height="6" style="stroke:#C82930;stroke-width:1.0;" width="6" x="15" y="117.1328"/><text fill="#000000" font-family="sans-serif" font-size="14" lengthAdjust="spacing" textLength="209" x="27" y="123.4795">posterMessageRS(): methode</text><rect fill="#F24D5C" height="6" style="stroke:#C82930;stroke-width:1.0;" width="6" x="15" y="133.4297"/><text fill="#000000" font-family="sans-serif" font-size="14" lengthAdjust="spacing" textLength="204" x="27" y="139.7764">modererMessage(): methode</text><rect fill="#F24D5C" height="6" style="stroke:#C82930;stroke-width:1.0;" width="6" x="15" y="149.7266"/><text fill="#000000" font-family="sans-serif" font-size="14" lengthAdjust="spacing" textLength="276" x="27" y="156.0732">desactiverCompteUtilisateur(): methode</text><rect fill="#F24D5C" height="6" style="stroke:#C82930;stroke-width:1.0;" width="6" x="15" y="166.0234"/><text fill="#000000" font-family="sans-serif" font-size="14" lengthAdjust="spacing" textLength="191" x="27" y="172.3701">listerUtilisateurs(): methode</text><rect fill="#F24D5C" height="6" style="stroke:#C82930;stroke-width:1.0;" width="6" x="15" y="182.3203"/><text fill="#000000" font-family="sans-serif" font-size="14" lengthAdjust="spacing" textLength="134" x="27" y="188.667">listerRS(): methode</text></g><!--class Utilisateur--><g id="elem_Utilisateur"><rect codeLine="26" fill="#FFFFFF" height="172.6719" id="Utilisateur" rx="2.5" ry="2.5" style="stroke:#000000;stroke-width:0.5;" width="234" x="49" y="642"/><text fill="#000000" font-family="sans-serif" font-size="14" lengthAdjust="spacing" textLength="68" x="132" y="659.9951">Utilisateur</text><line style="stroke:#000000;stroke-width:0.5;" x1="50" x2="282" y1="668.2969" y2="668.2969"/><rect fill="none" height="6" style="stroke:#C82930;stroke-width:1.0;" width="6" x="57" y="678.9453"/><text fill="#000000" font-family="sans-serif" font-size="14" lengthAdjust="spacing" textLength="140" x="69" y="685.292">pseudonyme: String</text><rect fill="none" height="6" style="stroke:#C82930;stroke-width:1.0;" width="6" x="57" y="695.2422"/><text fill="#000000" font-family="sans-serif" font-size="14" lengthAdjust="spacing" textLength="80" x="69" y="701.5889">nom: String</text><rect fill="none" height="6" style="stroke:#C82930;stroke-width:1.0;" width="6" x="57" y="711.5391"/><text fill="#000000" font-family="sans-serif" font-size="14" lengthAdjust="spacing" textLength="103" x="69" y="717.8857">pr&#233;nom: String</text><rect fill="none" height="6" style="stroke:#C82930;stroke-width:1.0;" width="6" x="57" y="727.8359"/><text fill="#000000" font-family="sans-serif" font-size="14" lengthAdjust="spacing" textLength="100" x="69" y="734.1826">courriel: String</text><rect fill="none" height="6" style="stroke:#C82930;stroke-width:1.0;" width="6" x="57" y="744.1328"/><text fill="#000000" font-family="sans-serif" font-size="14" lengthAdjust="spacing" textLength="173" x="69" y="750.4795">etatCompte: &#201;tatCompte</text><line style="stroke:#000000;stroke-width:0.5;" x1="50" x2="282" y1="757.7813" y2="757.7813"/><rect fill="#F24D5C" height="6" style="stroke:#C82930;stroke-width:1.0;" width="6" x="57" y="768.4297"/><text fill="#000000" font-family="sans-serif" font-size="14" lengthAdjust="spacing" textLength="186" x="69" y="774.7764">setEtatCompte(): methode</text><rect fill="#F24D5C" height="6" style="stroke:#C82930;stroke-width:1.0;" width="6" x="57" y="784.7266"/><text fill="#000000" font-family="sans-serif" font-size="14" lengthAdjust="spacing" textLength="190" x="69" y="791.0732">bloquerCompte(): methode</text><rect fill="#F24D5C" height="6" style="stroke:#C82930;stroke-width:1.0;" width="6" x="57" y="801.0234"/><text fill="#000000" font-family="sans-serif" font-size="14" lengthAdjust="spacing" textLength="208" x="69" y="807.3701">desactiverCompte(): methode</text></g><!--class ?tatCompte--><g id="elem_&#201;tatCompte"><rect codeLine="37" fill="#FFFFFF" height="97.1563" id="&#201;tatCompte" rx="2.5" ry="2.5" style="stroke:#000000;stroke-width:0.5;" width="90" x="344" y="53"/><text fill="#000000" font-family="sans-serif" font-size="12" font-style="italic" lengthAdjust="spacing" textLength="49" x="364.5" y="69.1387">&#171;enum&#187;</text><text fill="#000000" font-family="sans-serif" font-size="14" lengthAdjust="spacing" textLength="82" x="348" y="84.9639">&#201;tatCompte</text><line style="stroke:#000000;stroke-width:0.5;" x1="345" x2="433" y1="93.2656" y2="93.2656"/><text fill="#000000" font-family="sans-serif" font-size="14" lengthAdjust="spacing" textLength="39" x="350" y="110.2607">ACTIF</text><text fill="#000000" font-family="sans-serif" font-size="14" lengthAdjust="spacing" textLength="78" x="350" y="126.5576">D&#201;SACTIV&#201;</text><text fill="#000000" font-family="sans-serif" font-size="14" lengthAdjust="spacing" textLength="58" x="350" y="142.8545">BLOQU&#201;</text></g><!--class ?tatMessage--><g id="elem_&#201;tatMessage"><rect codeLine="43" fill="#FFFFFF" height="129.75" id="&#201;tatMessage" rx="2.5" ry="2.5" style="stroke:#000000;stroke-width:0.5;" width="176" x="469" y="36.5"/><text fill="#000000" font-family="sans-serif" font-size="12" font-style="italic" lengthAdjust="spacing" textLength="49" x="532.5" y="52.6387">&#171;enum&#187;</text><text fill="#000000" font-family="sans-serif" font-size="14" lengthAdjust="spacing" textLength="90" x="512" y="68.4639">&#201;tatMessage</text><line style="stroke:#000000;stroke-width:0.5;" x1="470" x2="644" y1="76.7656" y2="76.7656"/><text fill="#000000" font-family="sans-serif" font-size="14" lengthAdjust="spacing" textLength="65" x="475" y="93.7607">ACCEPT&#201;</text><text fill="#000000" font-family="sans-serif" font-size="14" lengthAdjust="spacing" textLength="164" x="475" y="110.0576">VERIFICATION_PENDING</text><text fill="#000000" font-family="sans-serif" font-size="14" lengthAdjust="spacing" textLength="110" x="475" y="126.3545">INAPPROPRIATE</text><text fill="#000000" font-family="sans-serif" font-size="14" lengthAdjust="spacing" textLength="54" x="475" y="142.6514">HIDDEN</text><text fill="#000000" font-family="sans-serif" font-size="14" lengthAdjust="spacing" textLength="37" x="475" y="158.9482">SENT</text></g><!--class Membre--><g id="elem_Membre"><rect codeLine="51" fill="#FFFFFF" height="91.1875" id="Membre" rx="2.5" ry="2.5" style="stroke:#000000;stroke-width:0.5;" width="271" x="202.5" y="474"/><text fill="#000000" font-family="sans-serif" font-size="14" lengthAdjust="spacing" textLength="57" x="309.5" y="491.9951">Membre</text><line style="stroke:#000000;stroke-width:0.5;" x1="203.5" x2="472.5" y1="500.2969" y2="500.2969"/><rect fill="none" height="6" style="stroke:#C82930;stroke-width:1.0;" width="6" x="210.5" y="510.9453"/><text fill="#000000" font-family="sans-serif" font-size="14" lengthAdjust="spacing" textLength="169" x="222.5" y="517.292">pseudoParticulier: String</text><line style="stroke:#000000;stroke-width:0.5;" x1="203.5" x2="472.5" y1="524.5938" y2="524.5938"/><rect fill="#F24D5C" height="6" style="stroke:#C82930;stroke-width:1.0;" width="6" x="210.5" y="535.2422"/><text fill="#000000" font-family="sans-serif" font-size="14" lengthAdjust="spacing" textLength="162" x="222.5" y="541.5889">addMessage(): method</text><rect fill="#F24D5C" height="6" style="stroke:#C82930;stroke-width:1.0;" width="6" x="210.5" y="551.5391"/><text fill="#000000" font-family="sans-serif" font-size="14" lengthAdjust="spacing" textLength="245" x="222.5" y="557.8857">changePseudoParticulier(): method</text></g><!--class Moderateur--><g id="elem_Moderateur"><rect codeLine="57" fill="#FFFFFF" height="58.5938" id="Moderateur" rx="2.5" ry="2.5" style="stroke:#000000;stroke-width:0.5;" width="167" x="191.5" y="297.5"/><text fill="#000000" font-family="sans-serif" font-size="14" lengthAdjust="spacing" textLength="80" x="235" y="315.4951">Moderateur</text><line style="stroke:#000000;stroke-width:0.5;" x1="192.5" x2="357.5" y1="323.7969" y2="323.7969"/><line style="stroke:#000000;stroke-width:0.5;" x1="192.5" x2="357.5" y1="331.7969" y2="331.7969"/><rect fill="#F24D5C" height="6" style="stroke:#C82930;stroke-width:1.0;" width="6" x="199.5" y="342.4453"/><text fill="#000000" font-family="sans-serif" font-size="14" lengthAdjust="spacing" textLength="141" x="211.5" y="348.792">moderer(): methode</text></g><!--class ReseauSocial--><g id="elem_ReseauSocial"><rect codeLine="61" fill="#FFFFFF" height="140.0781" id="ReseauSocial" rx="2.5" ry="2.5" style="stroke:#000000;stroke-width:0.5;" width="291" x="393.5" y="257"/><text fill="#000000" font-family="sans-serif" font-size="14" lengthAdjust="spacing" textLength="93" x="492.5" y="274.9951">ReseauSocial</text><line style="stroke:#000000;stroke-width:0.5;" x1="394.5" x2="683.5" y1="283.2969" y2="283.2969"/><rect fill="none" height="6" style="stroke:#C82930;stroke-width:1.0;" width="6" x="401.5" y="293.9453"/><text fill="#000000" font-family="sans-serif" font-size="14" lengthAdjust="spacing" textLength="80" x="413.5" y="300.292">nom: String</text><rect fill="none" height="6" style="stroke:#C82930;stroke-width:1.0;" width="6" x="401.5" y="310.2422"/><text fill="#000000" font-family="sans-serif" font-size="14" lengthAdjust="spacing" textLength="83" x="413.5" y="316.5889">ouvert: bool</text><line style="stroke:#000000;stroke-width:0.5;" x1="394.5" x2="683.5" y1="323.8906" y2="323.8906"/><rect fill="#F24D5C" height="6" style="stroke:#C82930;stroke-width:1.0;" width="6" x="401.5" y="334.5391"/><text fill="#000000" font-family="sans-serif" font-size="14" lengthAdjust="spacing" textLength="187" x="413.5" y="340.8857">ajouterMembre(): methode</text><rect fill="#F24D5C" height="6" style="stroke:#C82930;stroke-width:1.0;" width="6" x="401.5" y="350.8359"/><text fill="#000000" font-family="sans-serif" font-size="14" lengthAdjust="spacing" textLength="193" x="413.5" y="357.1826">ajouterMessage(): methode</text><rect fill="#F24D5C" height="6" style="stroke:#C82930;stroke-width:1.0;" width="6" x="401.5" y="367.1328"/><text fill="#000000" font-family="sans-serif" font-size="14" lengthAdjust="spacing" textLength="265" x="413.5" y="373.4795">getMembrefromUtilisateur() : methode</text><rect fill="#F24D5C" height="6" style="stroke:#C82930;stroke-width:1.0;" width="6" x="401.5" y="383.4297"/><text fill="#000000" font-family="sans-serif" font-size="14" lengthAdjust="spacing" textLength="215" x="413.5" y="389.7764">getMessagefromId() : methode</text></g><!--class Message--><g id="elem_Message"><rect codeLine="70" fill="#FFFFFF" height="123.7813" id="Message" rx="2.5" ry="2.5" style="stroke:#000000;stroke-width:0.5;" width="267" x="372.5" y="666.5"/><text fill="#000000" font-family="sans-serif" font-size="14" lengthAdjust="spacing" textLength="63" x="474.5" y="684.4951">Message</text><line style="stroke:#000000;stroke-width:0.5;" x1="373.5" x2="638.5" y1="692.7969" y2="692.7969"/><rect fill="none" height="6" style="stroke:#C82930;stroke-width:1.0;" width="6" x="380.5" y="703.4453"/><text fill="#000000" font-family="sans-serif" font-size="14" lengthAdjust="spacing" textLength="107" x="392.5" y="709.792">contenu: String</text><rect fill="none" height="6" style="stroke:#C82930;stroke-width:1.0;" width="6" x="380.5" y="719.7422"/><text fill="#000000" font-family="sans-serif" font-size="14" lengthAdjust="spacing" textLength="189" x="392.5" y="726.0889">etatMessage: &#201;tatMessage</text><rect fill="none" height="6" style="stroke:#C82930;stroke-width:1.0;" width="6" x="380.5" y="736.0391"/><text fill="#000000" font-family="sans-serif" font-size="14" lengthAdjust="spacing" textLength="69" x="392.5" y="742.3857">id: double</text><line style="stroke:#000000;stroke-width:0.5;" x1="373.5" x2="638.5" y1="749.6875" y2="749.6875"/><rect fill="#F24D5C" height="6" style="stroke:#C82930;stroke-width:1.0;" width="6" x="380.5" y="760.3359"/><text fill="#000000" font-family="sans-serif" font-size="14" lengthAdjust="spacing" textLength="241" x="392.5" y="766.6826">modifierStatutMessage(): methode</text><rect fill="#F24D5C" height="6" style="stroke:#C82930;stroke-width:1.0;" width="6" x="380.5" y="776.6328"/><text fill="#000000" font-family="sans-serif" font-size="14" lengthAdjust="spacing" textLength="200" x="392.5" y="782.9795">envoyerMessage(): methode</text></g><!--link MiniSocs to Utilisateur--><g id="link_MiniSocs_Utilisateur"><path codeLine="79" d="M159.3531,208.069 C160.8931,328.789 163.3334,519.1005 164.8234,635.8405 " fill="none" id="MiniSocs-Utilisateur" style="stroke:#000000;stroke-width:1.0;"/><polygon fill="#000000" points="159.2,196.07,155.2769,202.1205,159.3531,208.069,163.2762,202.0185,159.2,196.07" style="stroke:#000000;stroke-width:1.0;"/><polygon fill="#000000" points="164.9,641.84,168.7848,632.7897,164.8362,636.8404,160.7855,632.8918,164.9,641.84" style="stroke:#000000;stroke-width:1.0;"/><text fill="#000000" font-family="sans-serif" font-size="13" lengthAdjust="spacing" textLength="30" x="164" y="440.0669">Cr&#233;e</text><text fill="#000000" font-family="sans-serif" font-size="13" lengthAdjust="spacing" textLength="7" x="157.5047" y="630.8348">*</text></g><!--link Membre to Utilisateur--><g id="link_Membre_Utilisateur"><path codeLine="80" d="M300.89,565.16 C282.32,587.51 263.0456,610.7161 241.2156,636.9761 " fill="none" id="Membre-to-Utilisateur" style="stroke:#000000;stroke-width:1.0;"/><polygon fill="#000000" points="237.38,641.59,246.2093,637.2261,240.5763,637.7451,240.0574,632.1121,237.38,641.59" style="stroke:#000000;stroke-width:1.0;"/><text fill="#000000" font-family="sans-serif" font-size="13" lengthAdjust="spacing" textLength="30" x="274" y="608.0669">Lie a</text><text fill="#000000" font-family="sans-serif" font-size="13" lengthAdjust="spacing" textLength="7" x="287.6716" y="585.3628">*</text><text fill="#000000" font-family="sans-serif" font-size="13" lengthAdjust="spacing" textLength="8" x="234.9599" y="630.8577">1</text></g><!--reverse link Membre to Message--><g id="link_Membre_Message"><path codeLine="82" d="M381.8114,574.478 C405.8314,604.078 430.08,633.96 456.43,666.43 " fill="none" id="Membre-backto-Message" style="stroke:#000000;stroke-width:1.0;"/><polygon fill="#000000" points="374.25,565.16,374.9247,572.3395,381.8114,574.478,381.1367,567.2985,374.25,565.16" style="stroke:#000000;stroke-width:1.0;"/><text fill="#000000" font-family="sans-serif" font-size="13" lengthAdjust="spacing" textLength="68" x="412" y="608.0669">Demander</text><text fill="#000000" font-family="sans-serif" font-size="13" lengthAdjust="spacing" textLength="8" x="371.1883" y="585.3628">1</text><text fill="#000000" font-family="sans-serif" font-size="13" lengthAdjust="spacing" textLength="7" x="443.2938" y="655.4732">*</text></g><!--link MiniSocs to ReseauSocial--><g id="link_MiniSocs_ReseauSocial"><path codeLine="84" d="M319.4799,197.2228 C356.7699,219.1028 380.6448,233.1041 416.0848,253.8941 " fill="none" id="MiniSocs-ReseauSocial" style="stroke:#000000;stroke-width:1.0;"/><polygon fill="#000000" points="309.13,191.15,312.2807,197.6364,319.4799,197.2228,316.3292,190.7364,309.13,191.15" style="stroke:#000000;stroke-width:1.0;"/><polygon fill="#000000" points="421.26,256.93,415.5211,248.9259,416.9473,254.4001,411.4732,255.8263,421.26,256.93" style="stroke:#000000;stroke-width:1.0;"/><text fill="#000000" font-family="sans-serif" font-size="13" lengthAdjust="spacing" textLength="7" x="401.7571" y="246.0003">*</text></g><!--link ReseauSocial to Message--><g id="link_ReseauSocial_Message"><path codeLine="85" d="M533.29,397.13 C527.02,473.06 517.04,593.83 511.05,666.41 " fill="none" id="ReseauSocial-Message" style="stroke:#000000;stroke-width:1.0;"/><text fill="#000000" font-family="sans-serif" font-size="13" lengthAdjust="spacing" textLength="8" x="524.2887" y="417.2053">1</text><text fill="#000000" font-family="sans-serif" font-size="13" lengthAdjust="spacing" textLength="7" x="504.2292" y="655.4509">*</text></g><!--reverse link ReseauSocial to Membre--><g id="link_ReseauSocial_Membre"><path codeLine="87" d="M457.4416,405.2962 C430.4816,430.8562 409.34,450.88 385.24,473.72 " fill="none" id="ReseauSocial-backto-Membre" style="stroke:#000000;stroke-width:1.0;"/><polygon fill="#000000" points="466.15,397.04,459.0438,398.2653,457.4416,405.2962,464.5479,404.0709,466.15,397.04" style="stroke:#000000;stroke-width:1.0;"/><text fill="#000000" font-family="sans-serif" font-size="13" lengthAdjust="spacing" textLength="8" x="450.2248" y="417.106">1</text><text fill="#000000" font-family="sans-serif" font-size="13" lengthAdjust="spacing" textLength="7" x="384.6643" y="462.9574">*</text></g><!--link Moderateur to Membre--><g id="link_Moderateur_Membre"><path codeLine="89" d="M284.43,356.52 C294.7,387.55 305.5889,420.4901 317.5789,456.7501 " fill="none" id="Moderateur-to-Membre" style="stroke:#000000;stroke-width:1.0;"/><polygon fill="none" points="323.23,473.84,323.2756,454.8664,311.8823,458.6338,323.23,473.84" style="stroke:#000000;stroke-width:1.0;"/></g><!--SRC=[VLLBRjim4Dth54GsIeAuGBT2O42nb5P0ugYMaouBMfh8R2JIvIU5aVO0EKhEuOjrA0cog2ZrnkJCc-7CcqVAZnWj9Qrh80MGlA9AWIAdQKMvlh-zEVCzpry8_iXA8wbcWfDyIwK6Wa6xBVjbmFUs34EXtkazgK5lHQ5QKyvaNe6ddXZVKJoZJKzUF4AkQFvKIc5uiH2LaEJxbcb0UoYb-DsQhYh4MAYG1SYXxQ-jgQtqWXpUkAaFRsrnk0UTV_AzzgHRnbacylR86U6YZaosLnfg24Yc9UDbuw0_XT4WxpMhcA8QZ3mz2xfUe47a4a2kG04rc93HQWpeKjn2lP6moiRkdL2DLobQJhXhNCZUF_OMe6YksRDb0Lc6_zI9ThSHDOrmIq12My86WHrdEmMc47m_OWofTFOxYNCOsN9Xf6HGEKRGLBTT1EJmscyQdm8TzvPntPjAeDZaj7FCqAWvG8aCJoENbzOqdpTDXejrSet_qU4ri-k7mwkLtStTjtjSEU7TWCRnYpXTDq4FyIgvJXRXEhbR_aZZPPGilw0vMOPfkhfBLqcuZd7_DOcYU8cBB5wkZ-otud68J_6kiTnK3AIhsA9u9vQMz2tb9QJZu07gU9mLtN3MdGedbJ7K_l4wEJK9W_phW6o4gDxVYGylpAJaIz1jsACKjQDtCW5iKbXaKZY00RFjt5uwONADytkdomuLEBDklAm8I27CfkglAtj4LZE46Vr12y2VnNwoGVj-XKfPBfr7gt-kpcUpEJavFndUnu0iy8w1rud4UXlKvn7gXW6XNWz3DsPhu7rx4TIKuwYnpFOtSV9mtZtE4G6cTXCVqurnWn9iLLZTKNgpsPzvR_T3GpQW1ECNXE8dHE73YPWAx0FAB5aStswkVUyV]--></g></svg>