<?xml version="1.0" encoding="us-ascii" standalone="no"?><svg xmlns="http://www.w3.org/2000/svg" xmlns:xlink="http://www.w3.org/1999/xlink" contentStyleType="text/css" height="436px" preserveAspectRatio="none" style="width:958px;height:436px;background:#FFFFFF;" version="1.1" viewBox="0 0 958 436" width="958px" zoomAndPan="magnify"><defs/><g><rect fill="#FFFFFF" height="14" style="stroke:#181818;stroke-width:1.0;" width="10" x="69" y="355.5547"/><rect fill="#FFFFFF" height="299.125" style="stroke:#181818;stroke-width:1.0;" width="10" x="262" y="112.4297"/><rect fill="#FFFFFF" height="25" style="stroke:#181818;stroke-width:1.0;" width="10" x="267" y="173.6953"/><rect fill="#FFFFFF" height="128.5938" style="stroke:#181818;stroke-width:1.0;" width="10" x="524" y="268.9609"/><rect fill="#FFFFFF" height="16.1641" style="stroke:#181818;stroke-width:1.0;" width="10" x="851.5" y="310.2578"/><rect fill="none" height="257.125" style="stroke:#000000;stroke-width:1.5;" width="942" x="10" y="127.4297"/><rect fill="none" height="156.8594" style="stroke:#000000;stroke-width:1.5;" width="922" x="20" y="220.6953"/><line style="stroke:#181818;stroke-width:0.5;stroke-dasharray:5.0,5.0;" x1="74" x2="74" y1="81.2969" y2="429.5547"/><line style="stroke:#181818;stroke-width:0.5;stroke-dasharray:5.0,5.0;" x1="267" x2="267" y1="81.2969" y2="429.5547"/><line style="stroke:#181818;stroke-width:0.5;stroke-dasharray:5.0,5.0;" x1="528.5" x2="528.5" y1="268.4766" y2="429.5547"/><line style="stroke:#181818;stroke-width:0.5;stroke-dasharray:5.0,5.0;" x1="856" x2="856" y1="309.7734" y2="429.5547"/><text fill="#000000" font-family="sans-serif" font-size="14" lengthAdjust="spacing" text-decoration="underline" textLength="82" x="30" y="77.9951">u:Utilisateur</text><ellipse cx="74" cy="13.5" fill="#FFFFFF" rx="8" ry="8" style="stroke:#181818;stroke-width:0.5;"/><path d="M74,21.5 L74,48.5 M61,29.5 L87,29.5 M74,48.5 L61,63.5 M74,48.5 L87,63.5 " fill="none" style="stroke:#181818;stroke-width:0.5;"/><rect fill="#FFFFFF" height="30.2969" rx="2.5" ry="2.5" style="stroke:#181818;stroke-width:0.5;" width="106" x="214" y="50"/><text fill="#000000" font-family="sans-serif" font-size="14" lengthAdjust="spacing" text-decoration="underline" textLength="92" x="221" y="69.9951">app:MiniSocs</text><rect fill="#FFFFFF" height="14" style="stroke:#181818;stroke-width:1.0;" width="10" x="69" y="355.5547"/><rect fill="#FFFFFF" height="299.125" style="stroke:#181818;stroke-width:1.0;" width="10" x="262" y="112.4297"/><rect fill="#FFFFFF" height="25" style="stroke:#181818;stroke-width:1.0;" width="10" x="267" y="173.6953"/><rect fill="#FFFFFF" height="128.5938" style="stroke:#181818;stroke-width:1.0;" width="10" x="524" y="268.9609"/><rect fill="#FFFFFF" height="16.1641" style="stroke:#181818;stroke-width:1.0;" width="10" x="851.5" y="310.2578"/><polygon fill="#181818" points="250,108.4297,260,112.4297,250,116.4297,254,112.4297" style="stroke:#181818;stroke-width:1.0;"/><line style="stroke:#181818;stroke-width:1.0;" x1="74" x2="256" y1="112.4297" y2="112.4297"/><text fill="#000000" font-family="sans-serif" font-size="13" lengthAdjust="spacing" textLength="169" x="81" y="107.3638">createReseau(nom:String)</text><path d="M10,127.4297 L80,127.4297 L80,134.5625 L70,144.5625 L10,144.5625 L10,127.4297 " fill="#EEEEEE" style="stroke:#000000;stroke-width:1.5;"/><rect fill="none" height="257.125" style="stroke:#000000;stroke-width:1.5;" width="942" x="10" y="127.4297"/><text fill="#000000" font-family="sans-serif" font-size="13" font-weight="bold" lengthAdjust="spacing" textLength="25" x="25" y="140.4966">opt</text><text fill="#000000" font-family="sans-serif" font-size="11" font-weight="bold" lengthAdjust="spacing" textLength="143" x="95" y="139.6401">[u.EtatCompte = Actif]</text><line style="stroke:#181818;stroke-width:1.0;" x1="272" x2="319" y1="160.6953" y2="160.6953"/><line style="stroke:#181818;stroke-width:1.0;" x1="319" x2="319" y1="160.6953" y2="173.6953"/><line style="stroke:#181818;stroke-width:1.0;" x1="278" x2="319" y1="173.6953" y2="173.6953"/><polygon fill="#181818" points="288,169.6953,278,173.6953,288,177.6953,284,173.6953" style="stroke:#181818;stroke-width:1.0;"/><text fill="#000000" font-family="sans-serif" font-size="13" lengthAdjust="spacing" textLength="238" x="284" y="155.6294">r=searchReseau(nom): ReseauSocial</text><line style="stroke:#181818;stroke-width:1.0;stroke-dasharray:2.0,2.0;" x1="277" x2="319" y1="197.6953" y2="197.6953"/><line style="stroke:#181818;stroke-width:1.0;stroke-dasharray:2.0,2.0;" x1="319" x2="319" y1="197.6953" y2="210.6953"/><line style="stroke:#181818;stroke-width:1.0;stroke-dasharray:2.0,2.0;" x1="272" x2="319" y1="210.6953" y2="210.6953"/><polygon fill="#181818" points="282,206.6953,272,210.6953,282,214.6953,278,210.6953" style="stroke:#181818;stroke-width:1.0;"/><path d="M20,220.6953 L90,220.6953 L90,227.8281 L80,237.8281 L20,237.8281 L20,220.6953 " fill="#EEEEEE" style="stroke:#000000;stroke-width:1.5;"/><rect fill="none" height="156.8594" style="stroke:#000000;stroke-width:1.5;" width="922" x="20" y="220.6953"/><text fill="#000000" font-family="sans-serif" font-size="13" font-weight="bold" lengthAdjust="spacing" textLength="25" x="35" y="233.7622">opt</text><text fill="#000000" font-family="sans-serif" font-size="11" font-weight="bold" lengthAdjust="spacing" textLength="65" x="105" y="232.9058">[r == null]</text><polygon fill="#181818" points="458.5,254.9609,468.5,258.9609,458.5,262.9609,462.5,258.9609" style="stroke:#181818;stroke-width:1.0;"/><line style="stroke:#181818;stroke-width:1.0;" x1="272" x2="464.5" y1="258.9609" y2="258.9609"/><text fill="#000000" font-family="sans-serif" font-size="13" lengthAdjust="spacing" textLength="143" x="279" y="253.895">r=createReseau(nom)</text><rect fill="#FFFFFF" height="30.2969" rx="2.5" ry="2.5" style="stroke:#181818;stroke-width:0.5;" width="117" x="470.5" y="237.8281"/><text fill="#000000" font-family="sans-serif" font-size="14" lengthAdjust="spacing" text-decoration="underline" textLength="103" x="477.5" y="257.8232">r:ReseauSocial</text><polygon fill="#181818" points="769,296.2578,779,300.2578,769,304.2578,773,300.2578" style="stroke:#181818;stroke-width:1.0;"/><line style="stroke:#181818;stroke-width:1.0;" x1="534" x2="775" y1="300.2578" y2="300.2578"/><text fill="#000000" font-family="sans-serif" font-size="13" lengthAdjust="spacing" textLength="223" x="541" y="295.1919">createParticipation(u.pseudo, true)</text><rect fill="#FFFFFF" height="30.2969" rx="2.5" ry="2.5" style="stroke:#181818;stroke-width:0.5;" width="151" x="781" y="279.125"/><text fill="#000000" font-family="sans-serif" font-size="14" lengthAdjust="spacing" text-decoration="underline" textLength="137" x="788" y="299.1201">compteParticipation</text><polygon fill="#181818" points="545,322.4219,535,326.4219,545,330.4219,541,326.4219" style="stroke:#181818;stroke-width:1.0;"/><line style="stroke:#181818;stroke-width:1.0;stroke-dasharray:2.0,2.0;" x1="539" x2="855.5" y1="326.4219" y2="326.4219"/><polygon fill="#181818" points="90,351.5547,80,355.5547,90,359.5547,86,355.5547" style="stroke:#181818;stroke-width:1.0;"/><line style="stroke:#181818;stroke-width:1.0;" x1="84" x2="523" y1="355.5547" y2="355.5547"/><text fill="#000000" font-family="sans-serif" font-size="13" lengthAdjust="spacing" textLength="147" x="96" y="350.4888">linkCompte(u, compte)</text><polygon fill="#181818" points="512,365.5547,522,369.5547,512,373.5547,516,369.5547" style="stroke:#181818;stroke-width:1.0;"/><line style="stroke:#181818;stroke-width:1.0;stroke-dasharray:2.0,2.0;" x1="74" x2="518" y1="369.5547" y2="369.5547"/><polygon fill="#181818" points="283,393.5547,273,397.5547,283,401.5547,279,397.5547" style="stroke:#181818;stroke-width:1.0;"/><line style="stroke:#181818;stroke-width:1.0;stroke-dasharray:2.0,2.0;" x1="277" x2="528" y1="397.5547" y2="397.5547"/><polygon fill="#181818" points="85,407.5547,75,411.5547,85,415.5547,81,411.5547" style="stroke:#181818;stroke-width:1.0;"/><line style="stroke:#181818;stroke-width:1.0;stroke-dasharray:2.0,2.0;" x1="79" x2="266" y1="411.5547" y2="411.5547"/><!--SRC=[RL9DZfim5Dxx54-pWMZI7029IcsckuuqQZJgCderB-36sAv_HdESRdCEBjPde42h825Zy_q-A9uKjXxxdg0X2CFjLo8Z2SeNZIQ-Fd_T5K8KHsikgaqUex86P8S-4Z3DTOhnXUWKao_MnX_sNOIhCWvP4m9DQY-CLr8vLloCyjfwcqnpjDfw-DwfI7SedsIq_ZvO54_3JMgSqpGK06Mav0DG7BTkzGjGDiFjv_0Rw5s5E9xW6o-WSQtB9J4RmiFvdAhNgBGAc2NFvmV004bi93C8dQkUbL4dAyECwJdOQPaVlf44pLbw2W5R2ljn9_rm6sE7FEvjpZs7buT29FZm4NfuV8IAqSGflb4WJAMnVNMANfbs9woBa0vV8iQZxHr_YnfuOEeYWAahtzVCzB9R5NOLJ1iEhb0ptbDCtl33P9RB-MgBcUjvXcHR3tKD9kdCdTqofRv7-PlY_nwxaPklrLIEHPO_9SzebfdUB1IVBQUpxPJ-OPRfu0AbnkuX-aIhtz9sevKc6QtCTPfccVQpmKHSI6GQaU_vO5h-0000]--></g></svg>