<?xml version="1.0" encoding="us-ascii" standalone="no"?><svg xmlns="http://www.w3.org/2000/svg" xmlns:xlink="http://www.w3.org/1999/xlink" contentStyleType="text/css" height="538px" preserveAspectRatio="none" style="width:1111px;height:538px;background:#FFFFFF;" version="1.1" viewBox="0 0 1111 538" width="1111px" zoomAndPan="magnify"><defs/><g><rect fill="#FFFFFF" height="401.2266" style="stroke:#181818;stroke-width:1.0;" width="10" x="535.5" y="112.4297"/><rect fill="#FFFFFF" height="25" style="stroke:#181818;stroke-width:1.0;" width="10" x="540.5" y="173.6953"/><rect fill="#FFFFFF" height="25" style="stroke:#181818;stroke-width:1.0;" width="10" x="540.5" y="291.0938"/><rect fill="#FFFFFF" height="25" style="stroke:#181818;stroke-width:1.0;" width="10" x="540.5" y="439.6563"/><rect fill="#FFFFFF" height="16.1641" style="stroke:#181818;stroke-width:1.0;" width="10" x="997.5" y="386.3594"/><rect fill="none" height="373.2266" style="stroke:#000000;stroke-width:1.5;" width="651" x="454" y="127.4297"/><rect fill="none" height="272.9609" style="stroke:#000000;stroke-width:1.5;" width="631" x="464" y="220.6953"/><rect fill="none" height="241.8281" style="stroke:#000000;stroke-width:1.5;" width="611" x="474" y="244.8281"/><rect fill="none" height="141.5625" style="stroke:#000000;stroke-width:1.5;" width="591" x="484" y="338.0938"/><line style="stroke:#181818;stroke-width:0.5;stroke-dasharray:5.0,5.0;" x1="60" x2="60" y1="81.2969" y2="531.6563"/><line style="stroke:#181818;stroke-width:0.5;stroke-dasharray:5.0,5.0;" x1="540" x2="540" y1="81.2969" y2="531.6563"/><line style="stroke:#181818;stroke-width:0.5;stroke-dasharray:5.0,5.0;" x1="1002" x2="1002" y1="385.875" y2="531.6563"/><text fill="#000000" font-family="sans-serif" font-size="14" lengthAdjust="spacing" text-decoration="underline" textLength="105" x="5" y="77.9951">:Administrateur</text><ellipse cx="60.5" cy="13.5" fill="#FFFFFF" rx="8" ry="8" style="stroke:#181818;stroke-width:0.5;"/><path d="M60.5,21.5 L60.5,48.5 M47.5,29.5 L73.5,29.5 M60.5,48.5 L47.5,63.5 M60.5,48.5 L73.5,63.5 " fill="none" style="stroke:#181818;stroke-width:0.5;"/><rect fill="#FFFFFF" height="30.2969" rx="2.5" ry="2.5" style="stroke:#181818;stroke-width:0.5;" width="93" x="494" y="50"/><text fill="#000000" font-family="sans-serif" font-size="14" lengthAdjust="spacing" text-decoration="underline" textLength="79" x="501" y="69.9951">m:MiniSocs</text><rect fill="#FFFFFF" height="401.2266" style="stroke:#181818;stroke-width:1.0;" width="10" x="535.5" y="112.4297"/><rect fill="#FFFFFF" height="25" style="stroke:#181818;stroke-width:1.0;" width="10" x="540.5" y="173.6953"/><rect fill="#FFFFFF" height="25" style="stroke:#181818;stroke-width:1.0;" width="10" x="540.5" y="291.0938"/><rect fill="#FFFFFF" height="25" style="stroke:#181818;stroke-width:1.0;" width="10" x="540.5" y="439.6563"/><rect fill="#FFFFFF" height="16.1641" style="stroke:#181818;stroke-width:1.0;" width="10" x="997.5" y="386.3594"/><polygon fill="#181818" points="523.5,108.4297,533.5,112.4297,523.5,116.4297,527.5,112.4297" style="stroke:#181818;stroke-width:1.0;"/><line style="stroke:#181818;stroke-width:1.0;" x1="60.5" x2="529.5" y1="112.4297" y2="112.4297"/><text fill="#000000" font-family="sans-serif" font-size="13" lengthAdjust="spacing" textLength="456" x="67.5" y="107.3638">creerReseauSocial(pseudoExec, nomReseau, ouvert, pseudoParticulier)</text><path d="M454,127.4297 L524,127.4297 L524,134.5625 L514,144.5625 L454,144.5625 L454,127.4297 " fill="#EEEEEE" style="stroke:#000000;stroke-width:1.5;"/><rect fill="none" height="373.2266" style="stroke:#000000;stroke-width:1.5;" width="651" x="454" y="127.4297"/><text fill="#000000" font-family="sans-serif" font-size="13" font-weight="bold" lengthAdjust="spacing" textLength="25" x="469" y="140.4966">opt</text><text fill="#000000" font-family="sans-serif" font-size="11" font-weight="bold" lengthAdjust="spacing" textLength="215" x="539" y="139.6401">[pseudoExec non null &#8743; non vide]</text><line style="stroke:#181818;stroke-width:1.0;" x1="545.5" x2="592.5" y1="160.6953" y2="160.6953"/><line style="stroke:#181818;stroke-width:1.0;" x1="592.5" x2="592.5" y1="160.6953" y2="173.6953"/><line style="stroke:#181818;stroke-width:1.0;" x1="551.5" x2="592.5" y1="173.6953" y2="173.6953"/><polygon fill="#181818" points="561.5,169.6953,551.5,173.6953,561.5,177.6953,557.5,173.6953" style="stroke:#181818;stroke-width:1.0;"/><text fill="#000000" font-family="sans-serif" font-size="13" lengthAdjust="spacing" textLength="300" x="557.5" y="155.6294">u=chercherUtilisateur(pseudoExec): Utilisateur</text><line style="stroke:#181818;stroke-width:1.0;stroke-dasharray:2.0,2.0;" x1="550.5" x2="592.5" y1="197.6953" y2="197.6953"/><line style="stroke:#181818;stroke-width:1.0;stroke-dasharray:2.0,2.0;" x1="592.5" x2="592.5" y1="197.6953" y2="210.6953"/><line style="stroke:#181818;stroke-width:1.0;stroke-dasharray:2.0,2.0;" x1="545.5" x2="592.5" y1="210.6953" y2="210.6953"/><polygon fill="#181818" points="555.5,206.6953,545.5,210.6953,555.5,214.6953,551.5,210.6953" style="stroke:#181818;stroke-width:1.0;"/><path d="M464,220.6953 L534,220.6953 L534,227.8281 L524,237.8281 L464,237.8281 L464,220.6953 " fill="#EEEEEE" style="stroke:#000000;stroke-width:1.5;"/><rect fill="none" height="272.9609" style="stroke:#000000;stroke-width:1.5;" width="631" x="464" y="220.6953"/><text fill="#000000" font-family="sans-serif" font-size="13" font-weight="bold" lengthAdjust="spacing" textLength="25" x="479" y="233.7622">opt</text><text fill="#000000" font-family="sans-serif" font-size="11" font-weight="bold" lengthAdjust="spacing" textLength="266" x="549" y="232.9058">[u != null et u.getEtatCompte() == ACTIF]</text><path d="M474,244.8281 L544,244.8281 L544,251.9609 L534,261.9609 L474,261.9609 L474,244.8281 " fill="#EEEEEE" style="stroke:#000000;stroke-width:1.5;"/><rect fill="none" height="241.8281" style="stroke:#000000;stroke-width:1.5;" width="611" x="474" y="244.8281"/><text fill="#000000" font-family="sans-serif" font-size="13" font-weight="bold" lengthAdjust="spacing" textLength="25" x="489" y="257.895">opt</text><text fill="#000000" font-family="sans-serif" font-size="11" font-weight="bold" lengthAdjust="spacing" textLength="212" x="559" y="257.0386">[nomReseau non null &#8743; non vide]</text><line style="stroke:#181818;stroke-width:1.0;" x1="545.5" x2="592.5" y1="278.0938" y2="278.0938"/><line style="stroke:#181818;stroke-width:1.0;" x1="592.5" x2="592.5" y1="278.0938" y2="291.0938"/><line style="stroke:#181818;stroke-width:1.0;" x1="551.5" x2="592.5" y1="291.0938" y2="291.0938"/><polygon fill="#181818" points="561.5,287.0938,551.5,291.0938,561.5,295.0938,557.5,291.0938" style="stroke:#181818;stroke-width:1.0;"/><text fill="#000000" font-family="sans-serif" font-size="13" lengthAdjust="spacing" textLength="343" x="557.5" y="273.0278">rs=chercherReseauSocial(nomReseau): ReseauSocial</text><line style="stroke:#181818;stroke-width:1.0;stroke-dasharray:2.0,2.0;" x1="550.5" x2="592.5" y1="315.0938" y2="315.0938"/><line style="stroke:#181818;stroke-width:1.0;stroke-dasharray:2.0,2.0;" x1="592.5" x2="592.5" y1="315.0938" y2="328.0938"/><line style="stroke:#181818;stroke-width:1.0;stroke-dasharray:2.0,2.0;" x1="545.5" x2="592.5" y1="328.0938" y2="328.0938"/><polygon fill="#181818" points="555.5,324.0938,545.5,328.0938,555.5,332.0938,551.5,328.0938" style="stroke:#181818;stroke-width:1.0;"/><path d="M484,338.0938 L554,338.0938 L554,345.2266 L544,355.2266 L484,355.2266 L484,338.0938 " fill="#EEEEEE" style="stroke:#000000;stroke-width:1.5;"/><rect fill="none" height="141.5625" style="stroke:#000000;stroke-width:1.5;" width="591" x="484" y="338.0938"/><text fill="#000000" font-family="sans-serif" font-size="13" font-weight="bold" lengthAdjust="spacing" textLength="25" x="499" y="351.1606">opt</text><text fill="#000000" font-family="sans-serif" font-size="11" font-weight="bold" lengthAdjust="spacing" textLength="72" x="569" y="350.3042">[rs == null]</text><polygon fill="#181818" points="928,372.3594,938,376.3594,928,380.3594,932,376.3594" style="stroke:#181818;stroke-width:1.0;"/><line style="stroke:#181818;stroke-width:1.0;" x1="545.5" x2="934" y1="376.3594" y2="376.3594"/><text fill="#000000" font-family="sans-serif" font-size="13" lengthAdjust="spacing" textLength="215" x="552.5" y="371.2935">rs=&#171;create(nomReseau, ouvert)&#187;</text><rect fill="#FFFFFF" height="30.2969" rx="2.5" ry="2.5" style="stroke:#181818;stroke-width:0.5;" width="125" x="940" y="355.2266"/><text fill="#000000" font-family="sans-serif" font-size="14" lengthAdjust="spacing" text-decoration="underline" textLength="111" x="947" y="375.2217">rs:ReseauSocial</text><polygon fill="#181818" points="556.5,398.5234,546.5,402.5234,556.5,406.5234,552.5,402.5234" style="stroke:#181818;stroke-width:1.0;"/><line style="stroke:#181818;stroke-width:1.0;stroke-dasharray:2.0,2.0;" x1="550.5" x2="1001.5" y1="402.5234" y2="402.5234"/><line style="stroke:#181818;stroke-width:1.0;" x1="545.5" x2="592.5" y1="426.6563" y2="426.6563"/><line style="stroke:#181818;stroke-width:1.0;" x1="592.5" x2="592.5" y1="426.6563" y2="439.6563"/><line style="stroke:#181818;stroke-width:1.0;" x1="551.5" x2="592.5" y1="439.6563" y2="439.6563"/><polygon fill="#181818" points="561.5,435.6563,551.5,439.6563,561.5,443.6563,557.5,439.6563" style="stroke:#181818;stroke-width:1.0;"/><text fill="#000000" font-family="sans-serif" font-size="13" lengthAdjust="spacing" textLength="438" x="557.5" y="421.5903">ajouterMembreRS(pseudoExec, nomReseau, pseudoParticulier, true)</text><line style="stroke:#181818;stroke-width:1.0;stroke-dasharray:2.0,2.0;" x1="550.5" x2="592.5" y1="463.6563" y2="463.6563"/><line style="stroke:#181818;stroke-width:1.0;stroke-dasharray:2.0,2.0;" x1="592.5" x2="592.5" y1="463.6563" y2="476.6563"/><line style="stroke:#181818;stroke-width:1.0;stroke-dasharray:2.0,2.0;" x1="545.5" x2="592.5" y1="476.6563" y2="476.6563"/><polygon fill="#181818" points="555.5,472.6563,545.5,476.6563,555.5,480.6563,551.5,476.6563" style="stroke:#181818;stroke-width:1.0;"/><polygon fill="#181818" points="71.5,509.6563,61.5,513.6563,71.5,517.6563,67.5,513.6563" style="stroke:#181818;stroke-width:1.0;"/><line style="stroke:#181818;stroke-width:1.0;stroke-dasharray:2.0,2.0;" x1="65.5" x2="539.5" y1="513.6563" y2="513.6563"/><!--SRC=[VL9jRfmm4FtFAQRv0oWa1q3PbRQRL8hKbQ9ie_vSEMO2JenD_R7Q8_GO_LVjERX9Jz8nK62LJP70sFFclJSpZcy5AmshQuG2mRR77nuLHqWU95FkQVCrZQCeNclr8aflc1DQ0Q-OSGYKrbI2y75K2Kf-qTezwqDatuHg6762nPxjWV22YuOOFpF-LXhjLR7MKXluNWc7Pr9Mt6bp7Xp5j-sHIpQuAT02umwziO2kspQJdeMaQ8-lxI_0Wx2kEs5xMa2ogLmgaWL1kDZjybLH2qLOuYVItUu26EM4msX67A1rlY7aLdCxe6eojnrxoFR8GPAV6grb9Tgist7J7ZlhDhHyxZMZ0lWrUGbYSBM46Yul8QSCHFE85fadCS5aqbZqXRux8Cz0wRgFPQ3z7etBe0_tRVTIe4aZtJYOiYX9WV9Imf-VlxlDdaOO0IbEidx1ApJXVN922jlrOoQTvZ0BKB91vusYdo3cuTEYbw2f-EiItPrZRgthnc6Imc81g_Mt-o-4xl5Z6Hzw2y_Sdx6ZmPFcZ4naS1uOA4QN_vJfuYnwgyCXX8vJKM76nkPpZc7GnexGpj5_WAFNcvkUDNati7Iv7EbEt9tMorwrTsWsM3yRVDn-T0dU3Jy3PpocvoLG5T6qXczu1yXV]--></g></svg>