<?xml version="1.0" encoding="us-ascii" standalone="no"?><svg xmlns="http://www.w3.org/2000/svg" xmlns:xlink="http://www.w3.org/1999/xlink" contentStyleType="text/css" height="665px" preserveAspectRatio="none" style="width:772px;height:665px;background:#FFFFFF;" version="1.1" viewBox="0 0 772 665" width="772px" zoomAndPan="magnify"><defs/><g><!--class MiniSocs--><g id="elem_MiniSocs"><rect codeLine="14" fill="#FFFFFF" height="107.4844" id="MiniSocs" rx="2.5" ry="2.5" style="stroke:#000000;stroke-width:0.5;" width="212" x="7" y="18.5"/><text fill="#000000" font-family="sans-serif" font-size="14" lengthAdjust="spacing" textLength="61" x="82.5" y="36.4951">MiniSocs</text><line style="stroke:#000000;stroke-width:0.5;" x1="8" x2="218" y1="44.7969" y2="44.7969"/><rect fill="none" height="6" style="stroke:#C82930;stroke-width:1.0;" width="6" x="15" y="55.4453"/><text fill="#000000" font-family="sans-serif" font-size="14" lengthAdjust="spacing" textLength="80" x="27" y="61.792">nom: String</text><line style="stroke:#000000;stroke-width:0.5;" x1="8" x2="218" y1="69.0938" y2="69.0938"/><rect fill="#F24D5C" height="6" style="stroke:#C82930;stroke-width:1.0;" width="6" x="15" y="79.7422"/><text fill="#000000" font-family="sans-serif" font-size="14" lengthAdjust="spacing" textLength="186" x="27" y="86.0889">cr&#233;erUtilisateur(): methode</text><rect fill="#F24D5C" height="6" style="stroke:#C82930;stroke-width:1.0;" width="6" x="15" y="96.0391"/><text fill="#000000" font-family="sans-serif" font-size="14" lengthAdjust="spacing" textLength="168" x="27" y="102.3857">cr&#233;erRS(nom): methode</text><rect fill="#F24D5C" height="6" style="stroke:#C82930;stroke-width:1.0;" width="6" x="15" y="112.3359"/><text fill="#000000" font-family="sans-serif" font-size="14" lengthAdjust="spacing" textLength="162" x="27" y="118.6826">rejoindreRS(): methode</text></g><!--class Utilisateur--><g id="elem_Utilisateur"><rect codeLine="21" fill="#FFFFFF" height="140.0781" id="Utilisateur" rx="2.5" ry="2.5" style="stroke:#000000;stroke-width:0.5;" width="216" x="29" y="518"/><text fill="#000000" font-family="sans-serif" font-size="14" lengthAdjust="spacing" textLength="68" x="103" y="535.9951">Utilisateur</text><line style="stroke:#000000;stroke-width:0.5;" x1="30" x2="244" y1="544.2969" y2="544.2969"/><rect fill="none" height="6" style="stroke:#C82930;stroke-width:1.0;" width="6" x="37" y="554.9453"/><text fill="#000000" font-family="sans-serif" font-size="14" lengthAdjust="spacing" textLength="140" x="49" y="561.292">pseudonyme: String</text><rect fill="none" height="6" style="stroke:#C82930;stroke-width:1.0;" width="6" x="37" y="571.2422"/><text fill="#000000" font-family="sans-serif" font-size="14" lengthAdjust="spacing" textLength="80" x="49" y="577.5889">nom: String</text><rect fill="none" height="6" style="stroke:#C82930;stroke-width:1.0;" width="6" x="37" y="587.5391"/><text fill="#000000" font-family="sans-serif" font-size="14" lengthAdjust="spacing" textLength="103" x="49" y="593.8857">pr&#233;nom: String</text><rect fill="none" height="6" style="stroke:#C82930;stroke-width:1.0;" width="6" x="37" y="603.8359"/><text fill="#000000" font-family="sans-serif" font-size="14" lengthAdjust="spacing" textLength="100" x="49" y="610.1826">courriel: String</text><rect fill="none" height="6" style="stroke:#C82930;stroke-width:1.0;" width="6" x="37" y="620.1328"/><text fill="#000000" font-family="sans-serif" font-size="14" lengthAdjust="spacing" textLength="173" x="49" y="626.4795">etatCompte: &#201;tatCompte</text><line style="stroke:#000000;stroke-width:0.5;" x1="30" x2="244" y1="633.7813" y2="633.7813"/><rect fill="#F24D5C" height="6" style="stroke:#C82930;stroke-width:1.0;" width="6" x="37" y="644.4297"/><text fill="#000000" font-family="sans-serif" font-size="14" lengthAdjust="spacing" textLength="190" x="49" y="650.7764">posterMessage(): methode</text></g><!--class ?tatCompte--><g id="elem_&#201;tatCompte"><rect codeLine="30" fill="#FFFFFF" height="97.1563" id="&#201;tatCompte" rx="2.5" ry="2.5" style="stroke:#000000;stroke-width:0.5;" width="90" x="254" y="23.5"/><text fill="#000000" font-family="sans-serif" font-size="12" font-style="italic" lengthAdjust="spacing" textLength="49" x="274.5" y="39.6387">&#171;enum&#187;</text><text fill="#000000" font-family="sans-serif" font-size="14" lengthAdjust="spacing" textLength="82" x="258" y="55.4639">&#201;tatCompte</text><line style="stroke:#000000;stroke-width:0.5;" x1="255" x2="343" y1="63.7656" y2="63.7656"/><text fill="#000000" font-family="sans-serif" font-size="14" lengthAdjust="spacing" textLength="39" x="260" y="80.7607">ACTIF</text><text fill="#000000" font-family="sans-serif" font-size="14" lengthAdjust="spacing" textLength="78" x="260" y="97.0576">D&#201;SACTIV&#201;</text><text fill="#000000" font-family="sans-serif" font-size="14" lengthAdjust="spacing" textLength="58" x="260" y="113.3545">BLOQU&#201;</text></g><!--class ?tatMessage--><g id="elem_&#201;tatMessage"><rect codeLine="36" fill="#FFFFFF" height="129.75" id="&#201;tatMessage" rx="2.5" ry="2.5" style="stroke:#000000;stroke-width:0.5;" width="176" x="379" y="7"/><text fill="#000000" font-family="sans-serif" font-size="12" font-style="italic" lengthAdjust="spacing" textLength="49" x="442.5" y="23.1387">&#171;enum&#187;</text><text fill="#000000" font-family="sans-serif" font-size="14" lengthAdjust="spacing" textLength="90" x="422" y="38.9639">&#201;tatMessage</text><line style="stroke:#000000;stroke-width:0.5;" x1="380" x2="554" y1="47.2656" y2="47.2656"/><text fill="#000000" font-family="sans-serif" font-size="14" lengthAdjust="spacing" textLength="65" x="385" y="64.2607">ACCEPT&#201;</text><text fill="#000000" font-family="sans-serif" font-size="14" lengthAdjust="spacing" textLength="164" x="385" y="80.5576">VERIFICATION_PENDING</text><text fill="#000000" font-family="sans-serif" font-size="14" lengthAdjust="spacing" textLength="110" x="385" y="96.8545">INAPPROPRIATE</text><text fill="#000000" font-family="sans-serif" font-size="14" lengthAdjust="spacing" textLength="54" x="385" y="113.1514">HIDDEN</text><text fill="#000000" font-family="sans-serif" font-size="14" lengthAdjust="spacing" textLength="37" x="385" y="129.4482">SENT</text></g><!--class Membre--><g id="elem_Membre"><rect codeLine="44" fill="#FFFFFF" height="74.8906" id="Membre" rx="2.5" ry="2.5" style="stroke:#000000;stroke-width:0.5;" width="252" x="217" y="366"/><text fill="#000000" font-family="sans-serif" font-size="14" lengthAdjust="spacing" textLength="57" x="314.5" y="383.9951">Membre</text><line style="stroke:#000000;stroke-width:0.5;" x1="218" x2="468" y1="392.2969" y2="392.2969"/><rect fill="none" height="6" style="stroke:#C82930;stroke-width:1.0;" width="6" x="225" y="402.9453"/><text fill="#000000" font-family="sans-serif" font-size="14" lengthAdjust="spacing" textLength="169" x="237" y="409.292">pseudoParticulier: String</text><line style="stroke:#000000;stroke-width:0.5;" x1="218" x2="468" y1="416.5938" y2="416.5938"/><rect fill="#F24D5C" height="6" style="stroke:#C82930;stroke-width:1.0;" width="6" x="225" y="427.2422"/><text fill="#000000" font-family="sans-serif" font-size="14" lengthAdjust="spacing" textLength="226" x="237" y="433.5889">requestSendMessage(): method</text></g><!--class Moderateur--><g id="elem_Moderateur"><rect codeLine="49" fill="#FFFFFF" height="74.8906" id="Moderateur" rx="2.5" ry="2.5" style="stroke:#000000;stroke-width:0.5;" width="241" x="146.5" y="206"/><text fill="#000000" font-family="sans-serif" font-size="14" lengthAdjust="spacing" textLength="80" x="227" y="223.9951">Moderateur</text><line style="stroke:#000000;stroke-width:0.5;" x1="147.5" x2="386.5" y1="232.2969" y2="232.2969"/><line style="stroke:#000000;stroke-width:0.5;" x1="147.5" x2="386.5" y1="240.2969" y2="240.2969"/><rect fill="#F24D5C" height="6" style="stroke:#C82930;stroke-width:1.0;" width="6" x="154.5" y="250.9453"/><text fill="#000000" font-family="sans-serif" font-size="14" lengthAdjust="spacing" textLength="203" x="166.5" y="257.292">bloquerUtilisateur(): methode</text><rect fill="#F24D5C" height="6" style="stroke:#C82930;stroke-width:1.0;" width="6" x="154.5" y="267.2422"/><text fill="#000000" font-family="sans-serif" font-size="14" lengthAdjust="spacing" textLength="215" x="166.5" y="273.5889">supprimerMessage(): methode</text></g><!--class ReseauSocial--><g id="elem_ReseauSocial"><rect codeLine="54" fill="#FFFFFF" height="91.1875" id="ReseauSocial" rx="2.5" ry="2.5" style="stroke:#000000;stroke-width:0.5;" width="343" x="422.5" y="198"/><text fill="#000000" font-family="sans-serif" font-size="14" lengthAdjust="spacing" textLength="93" x="547.5" y="215.9951">ReseauSocial</text><line style="stroke:#000000;stroke-width:0.5;" x1="423.5" x2="764.5" y1="224.2969" y2="224.2969"/><rect fill="none" height="6" style="stroke:#C82930;stroke-width:1.0;" width="6" x="430.5" y="234.9453"/><text fill="#000000" font-family="sans-serif" font-size="14" lengthAdjust="spacing" textLength="80" x="442.5" y="241.292">nom: String</text><rect fill="none" height="6" style="stroke:#C82930;stroke-width:1.0;" width="6" x="430.5" y="251.2422"/><text fill="#000000" font-family="sans-serif" font-size="14" lengthAdjust="spacing" textLength="83" x="442.5" y="257.5889">ouvert: bool</text><line style="stroke:#000000;stroke-width:0.5;" x1="423.5" x2="764.5" y1="264.8906" y2="264.8906"/><rect fill="#F24D5C" height="6" style="stroke:#C82930;stroke-width:1.0;" width="6" x="430.5" y="275.5391"/><text fill="#000000" font-family="sans-serif" font-size="14" lengthAdjust="spacing" textLength="317" x="442.5" y="281.8857">cr&#233;erParticipation(bool moderateur): methode</text></g><!--class Message--><g id="elem_Message"><rect codeLine="60" fill="#FFFFFF" height="140.0781" id="Message" rx="2.5" ry="2.5" style="stroke:#000000;stroke-width:0.5;" width="231" x="367.5" y="518"/><text fill="#000000" font-family="sans-serif" font-size="14" lengthAdjust="spacing" textLength="63" x="451.5" y="535.9951">Message</text><line style="stroke:#000000;stroke-width:0.5;" x1="368.5" x2="597.5" y1="544.2969" y2="544.2969"/><rect fill="none" height="6" style="stroke:#C82930;stroke-width:1.0;" width="6" x="375.5" y="554.9453"/><text fill="#000000" font-family="sans-serif" font-size="14" lengthAdjust="spacing" textLength="107" x="387.5" y="561.292">contenu: String</text><rect fill="none" height="6" style="stroke:#C82930;stroke-width:1.0;" width="6" x="375.5" y="571.2422"/><text fill="#000000" font-family="sans-serif" font-size="14" lengthAdjust="spacing" textLength="189" x="387.5" y="577.5889">etatMessage: &#201;tatMessage</text><line style="stroke:#000000;stroke-width:0.5;" x1="368.5" x2="597.5" y1="584.8906" y2="584.8906"/><rect fill="#F24D5C" height="6" style="stroke:#C82930;stroke-width:1.0;" width="6" x="375.5" y="595.5391"/><text fill="#000000" font-family="sans-serif" font-size="14" lengthAdjust="spacing" textLength="197" x="387.5" y="601.8857">delete_message(): methode</text><rect fill="#F24D5C" height="6" style="stroke:#C82930;stroke-width:1.0;" width="6" x="375.5" y="611.8359"/><text fill="#000000" font-family="sans-serif" font-size="14" lengthAdjust="spacing" textLength="183" x="387.5" y="618.1826">hide_message(): methode</text><rect fill="#F24D5C" height="6" style="stroke:#C82930;stroke-width:1.0;" width="6" x="375.5" y="628.1328"/><text fill="#000000" font-family="sans-serif" font-size="14" lengthAdjust="spacing" textLength="205" x="387.5" y="634.4795">mark_inappropriate(): method</text><rect fill="#F24D5C" height="6" style="stroke:#C82930;stroke-width:1.0;" width="6" x="375.5" y="644.4297"/><text fill="#000000" font-family="sans-serif" font-size="14" lengthAdjust="spacing" textLength="179" x="387.5" y="650.7764">send_message(): method</text></g><!--link MiniSocs to Utilisateur--><g id="link_MiniSocs_Utilisateur"><path codeLine="70" d="M116.0196,137.5769 C120.3796,230.9669 128.6302,407.7165 133.4902,511.8365 " fill="none" id="MiniSocs-Utilisateur" style="stroke:#000000;stroke-width:1.0;"/><polygon fill="#000000" points="115.46,125.59,111.7442,131.77,116.0196,137.5769,119.7355,131.3969,115.46,125.59" style="stroke:#000000;stroke-width:1.0;"/><polygon fill="#000000" points="133.77,517.83,137.346,508.6533,133.5369,512.8354,129.3547,509.0263,133.77,517.83" style="stroke:#000000;stroke-width:1.0;"/><text fill="#000000" font-family="sans-serif" font-size="13" lengthAdjust="spacing" textLength="30" x="127" y="332.0669">Cr&#233;e</text><text fill="#000000" font-family="sans-serif" font-size="13" lengthAdjust="spacing" textLength="7" x="126.076" y="506.89">*</text></g><!--link Membre to Utilisateur--><g id="link_Membre_Utilisateur"><path codeLine="71" d="M301.31,441.43 C276.62,463.3 249.0412,487.7414 219.7812,513.6614 " fill="none" id="Membre-to-Utilisateur" style="stroke:#000000;stroke-width:1.0;"/><polygon fill="#000000" points="215.29,517.64,224.6792,514.6663,219.0327,514.3245,219.3745,508.678,215.29,517.64" style="stroke:#000000;stroke-width:1.0;"/><text fill="#000000" font-family="sans-serif" font-size="13" lengthAdjust="spacing" textLength="30" x="266" y="484.0669">Lie a</text><text fill="#000000" font-family="sans-serif" font-size="13" lengthAdjust="spacing" textLength="7" x="286.8254" y="461.0413">*</text><text fill="#000000" font-family="sans-serif" font-size="13" lengthAdjust="spacing" textLength="8" x="214.6029" y="507.0452">1</text></g><!--link Membre to Message--><g id="link_Membre_Message"><path codeLine="73" d="M378.6347,450.9505 C395.4147,472.8205 406.2585,486.9591 426.1385,512.8791 " fill="none" id="Membre-Message" style="stroke:#000000;stroke-width:1.0;"/><polygon fill="#000000" points="371.33,441.43,371.8089,448.6252,378.6347,450.9505,378.1559,443.7554,371.33,441.43" style="stroke:#000000;stroke-width:1.0;"/><polygon fill="#000000" points="429.79,517.64,427.4867,508.0643,426.7471,513.6726,421.1388,512.933,429.79,517.64" style="stroke:#000000;stroke-width:1.0;"/><text fill="#000000" font-family="sans-serif" font-size="13" lengthAdjust="spacing" textLength="68" x="405" y="484.0669">Demander</text><text fill="#000000" font-family="sans-serif" font-size="13" lengthAdjust="spacing" textLength="8" x="367.3597" y="461.0413">1</text><text fill="#000000" font-family="sans-serif" font-size="13" lengthAdjust="spacing" textLength="7" x="417.2076" y="507.0452">*</text></g><!--link MiniSocs to ReseauSocial--><g id="link_MiniSocs_ReseauSocial"><path codeLine="75" d="M220.7561,130.6605 C229.4861,134.7305 227.4,133.54 236,137 C295.5,160.98 356.7385,180.5501 416.5685,197.5501 " fill="none" id="MiniSocs-ReseauSocial" style="stroke:#000000;stroke-width:1.0;"/><polygon fill="#000000" points="209.88,125.59,213.6279,131.7506,220.7561,130.6605,217.0082,124.4999,209.88,125.59" style="stroke:#000000;stroke-width:1.0;"/><polygon fill="#000000" points="422.34,199.19,414.776,192.8824,417.5304,197.8234,412.5894,200.5778,422.34,199.19" style="stroke:#000000;stroke-width:1.0;"/><text fill="#000000" font-family="sans-serif" font-size="13" lengthAdjust="spacing" textLength="7" x="407.4031" y="193.908">*</text></g><!--link ReseauSocial to Message--><g id="link_ReseauSocial_Message"><path codeLine="76" d="M579.49,289.28 C560.63,347.48 529.3398,444.0223 507.2398,512.2123 " fill="none" id="ReseauSocial-to-Message" style="stroke:#000000;stroke-width:1.0;"/><polygon fill="#000000" points="505.39,517.92,511.9699,510.5916,506.9315,513.1636,504.3596,508.1252,505.39,517.92" style="stroke:#000000;stroke-width:1.0;"/><text fill="#000000" font-family="sans-serif" font-size="13" lengthAdjust="spacing" textLength="8" x="568.7713" y="309.1684">1</text><text fill="#000000" font-family="sans-serif" font-size="13" lengthAdjust="spacing" textLength="7" x="500.338" y="506.9893">*</text></g><!--link ReseauSocial to Membre--><g id="link_ReseauSocial_Membre"><path codeLine="78" d="M512.9254,295.534 C474.3654,319.814 442.4976,339.8635 406.1376,362.7535 " fill="none" id="ReseauSocial-Membre" style="stroke:#000000;stroke-width:1.0;"/><polygon fill="#000000" points="523.08,289.14,515.8713,288.9521,512.9254,295.534,520.134,295.7219,523.08,289.14" style="stroke:#000000;stroke-width:1.0;"/><polygon fill="#000000" points="401.06,365.95,410.8074,364.5403,405.2913,363.2862,406.5454,357.7701,401.06,365.95" style="stroke:#000000;stroke-width:1.0;"/><text fill="#000000" font-family="sans-serif" font-size="13" lengthAdjust="spacing" textLength="8" x="503.6079" y="309.3398">1</text><text fill="#000000" font-family="sans-serif" font-size="13" lengthAdjust="spacing" textLength="7" x="403.7785" y="355.0139">*</text></g><!--link Moderateur to Membre--><g id="link_Moderateur_Membre"><path codeLine="80" d="M284.63,281.15 C296.86,306.58 305.2984,324.1086 317.5384,349.5586 " fill="none" id="Moderateur-to-Membre" style="stroke:#000000;stroke-width:1.0;"/><polygon fill="none" points="325.34,365.78,322.9456,346.958,312.1313,352.1591,325.34,365.78" style="stroke:#000000;stroke-width:1.0;"/></g><!--SRC=[VLJRRjf047ttLwpoOXA5Idr54P9ZI6if41T8-XWjzXIsxCMTNRUAqdv0FYNVmOzrrgR6DabvONSkPywUcN4u4No3N2bWER1CScl1ia4gkNRtizlpC0Z2sEXlObCYTy9ebcqvEc2KL6p5ZnB2O2ie5LJXdfW2jpMvhKsPm4n2O7T25vngrF3iEM3iccUx3PfIvx6H1jdNhN10zWZH_AfDrv9YVAZ17B1j- -CvrKmlsVvLbsh_MfEZExZiGnZKbMP2YwN9wf93feqQiQL3eJVLFSFzA-2z4r9Oxg34mVdey09e1IoM0yhikH2-6w5p1FAsN4IjBjr2FLGlB9IvqKyAEYJwf0ggUKBKb8W2PCS8ZhlOaEg4jtzfBZM8iGvm1jRo3VJu0UdLJc1NLzuq7bSyetYLtD3_PF-ozEU7_OllmUtTbtiwTT8FyFtyU9gkggI7wIAvIU9ebTpD7zFfV9BCFv4vcKTfkhXB5qcqcjBzSpAPJETqM4xdgwE0Cr1hX8vsAGsUo4ef03jA8D0OMhS4dPyykGL8xyTsGzRIKDx_-c_Bea2XtbEonbs01LxIc0aktnaqK_u4T2EsDaQs1gj-ZoYgqHru9rCDoRTA_LFy-J0Lsf7o9qDnY1frkbHvSv3Wu56TliPx_Sw-vrCSTuz2SzB3a2J4i2Ln9HM9VvfShMfahHUdiv_DPbuCXsDsTd7MNfWHYxq-mM44lBUA-jYBkXN0UD24aRj1QpIOWEAQD2MIzU-DqkqEDd6TjX9s3_c8rmzia_34YE1nyeR3t-F67aObMuEbxyWbuoI-fRsb60b-VuNNIuC2xSBWBm00]--></g></svg>