<?xml version="1.0" encoding="us-ascii" standalone="no"?><svg xmlns="http://www.w3.org/2000/svg" xmlns:xlink="http://www.w3.org/1999/xlink" contentStyleType="text/css" height="474px" preserveAspectRatio="none" style="width:600px;height:474px;background:#FFFFFF;" version="1.1" viewBox="0 0 600 474" width="600px" zoomAndPan="magnify"><defs/><g><g id="EnCr&#233;ation"><rect fill="#F1F1F1" height="50.2656" rx="12.5" ry="12.5" style="stroke:#181818;stroke-width:0.5;" width="155" x="61.5" y="7"/><line style="stroke:#181818;stroke-width:0.5;" x1="61.5" x2="216.5" y1="33.2969" y2="33.2969"/><text fill="#000000" font-family="sans-serif" font-size="14" lengthAdjust="spacing" textLength="76" x="101" y="24.9951">EnCr&#233;ation</text><text fill="#000000" font-family="sans-serif" font-size="12" lengthAdjust="spacing" textLength="135" x="66.5" y="49.4355">entry : constructeur()</text></g><g id="EnDestruction"><rect fill="#F1F1F1" height="50.2656" rx="12.5" ry="12.5" style="stroke:#181818;stroke-width:0.5;" width="148" x="222" y="418"/><line style="stroke:#181818;stroke-width:0.5;" x1="222" x2="370" y1="444.2969" y2="444.2969"/><text fill="#000000" font-family="sans-serif" font-size="14" lengthAdjust="spacing" textLength="99" x="246.5" y="435.9951">EnDestruction</text><text fill="#000000" font-family="sans-serif" font-size="12" lengthAdjust="spacing" textLength="128" x="227" y="460.4355">entry : destructeur()</text></g><ellipse cx="16" cy="32" fill="#222222" rx="10" ry="10" style="stroke:#222222;stroke-width:1.0;"/><g id="Actif"><rect fill="#F1F1F1" height="50" rx="12.5" ry="12.5" style="stroke:#181818;stroke-width:0.5;" width="50" x="252" y="7"/><line style="stroke:#181818;stroke-width:0.5;" x1="252" x2="302" y1="33.2969" y2="33.2969"/><text fill="#000000" font-family="sans-serif" font-size="14" lengthAdjust="spacing" textLength="29" x="262.5" y="24.9951">Actif</text></g><g id="D&#233;sactiv&#233;"><rect fill="#F1F1F1" height="50" rx="12.5" ry="12.5" style="stroke:#181818;stroke-width:0.5;" width="88" x="285" y="149"/><line style="stroke:#181818;stroke-width:0.5;" x1="285" x2="373" y1="175.2969" y2="175.2969"/><text fill="#000000" font-family="sans-serif" font-size="14" lengthAdjust="spacing" textLength="68" x="295" y="166.9951">D&#233;sactiv&#233;</text></g><g id="Bloqu&#233;"><rect fill="#F1F1F1" height="50" rx="12.5" ry="12.5" style="stroke:#181818;stroke-width:0.5;" width="69" x="470.5" y="291"/><line style="stroke:#181818;stroke-width:0.5;" x1="470.5" x2="539.5" y1="317.2969" y2="317.2969"/><text fill="#000000" font-family="sans-serif" font-size="14" lengthAdjust="spacing" textLength="49" x="480.5" y="308.9951">Bloqu&#233;</text></g><ellipse cx="176" cy="443" fill="none" rx="11" ry="11" style="stroke:#222222;stroke-width:1.0;"/><ellipse cx="176" cy="443" fill="#222222" rx="6" ry="6" style="stroke:#222222;stroke-width:1.0;"/><!--link *start* to EnCr?ation--><g id="link_*start*_EnCr&#233;ation"><path d="M26.09,32 C37.85,32 43.61,32 55.37,32 " fill="none" id="*start*-to-EnCr&#233;ation" style="stroke:#181818;stroke-width:1.0;"/><polygon fill="#181818" points="61.37,32,52.37,28,56.37,32,52.37,36,61.37,32" style="stroke:#181818;stroke-width:1.0;"/></g><!--link EnCr?ation to Actif--><g id="link_EnCr&#233;ation_Actif"><path d="M216.62,32 C228.26,32 233.89,32 245.53,32 " fill="none" id="EnCr&#233;ation-to-Actif" style="stroke:#181818;stroke-width:1.0;"/><polygon fill="#181818" points="251.53,32,242.53,28,246.53,32,242.53,36,251.53,32" style="stroke:#181818;stroke-width:1.0;"/></g><!--link Actif to D?sactiv?--><g id="link_Actif_D&#233;sactiv&#233;"><path d="M251.77,47.67 C226.41,62.53 190.79,83.79 189,87 C182.05,99.41 180.95,107.27 189,119 C210.37,150.15 246.5367,162.3138 279.0067,167.8938 " fill="none" id="Actif-to-D&#233;sactiv&#233;" style="stroke:#181818;stroke-width:1.0;"/><polygon fill="#181818" points="284.92,168.91,276.7275,163.4435,279.9922,168.0632,275.3726,171.3279,284.92,168.91" style="stroke:#181818;stroke-width:1.0;"/><text fill="#000000" font-family="sans-serif" font-size="13" lengthAdjust="spacing" textLength="128" x="190" y="100.0669">utilisateur d&#233;sactive</text><text fill="#000000" font-family="sans-serif" font-size="13" lengthAdjust="spacing" textLength="84" x="212" y="115.1997">/ d&#233;sactiver()</text></g><!--link D?sactiv? to Actif--><g id="link_D&#233;sactiv&#233;_Actif"><path d="M331.27,148.73 C332,130.98 331.03,106.68 323,87 C318.35,75.6 314.3553,69.2912 306.2853,60.4512 " fill="none" id="D&#233;sactiv&#233;-to-Actif" style="stroke:#181818;stroke-width:1.0;"/><polygon fill="#181818" points="302.24,56.02,305.3537,65.3637,305.611,59.7127,311.262,59.97,302.24,56.02" style="stroke:#181818;stroke-width:1.0;"/><text fill="#000000" font-family="sans-serif" font-size="13" lengthAdjust="spacing" textLength="118" x="332" y="100.0669">utilisateur r&#233;active</text><text fill="#000000" font-family="sans-serif" font-size="13" lengthAdjust="spacing" textLength="74" x="354" y="115.1997">/ r&#233;activer()</text></g><!--link Actif to EnDestruction--><g id="link_Actif_EnDestruction"><path d="M251.61,47.35 C245.84,50.56 239.72,53.92 234,57 C208.44,70.74 191.52,62.48 176,87 C134.62,152.37 147.97,187.14 171,261 C190.83,324.62 237.6046,381.2344 267.9846,413.6144 " fill="none" id="Actif-to-EnDestruction" style="stroke:#181818;stroke-width:1.0;"/><polygon fill="#181818" points="272.09,417.99,268.849,408.6897,268.6689,414.3436,263.0149,414.1635,272.09,417.99" style="stroke:#181818;stroke-width:1.0;"/><text fill="#000000" font-family="sans-serif" font-size="13" lengthAdjust="spacing" textLength="137" x="172" y="249.5669">demande destruction</text></g><!--link Actif to Bloqu?--><g id="link_Actif_Bloqu&#233;"><path d="M302.06,32.78 C341.54,33.88 417.96,42.12 459,87 C511.59,144.51 511.4808,238.917 508.0208,284.837 " fill="none" id="Actif-to-Bloqu&#233;" style="stroke:#181818;stroke-width:1.0;"/><polygon fill="#181818" points="507.57,290.82,512.2349,282.146,507.9457,285.8341,504.2575,281.5449,507.57,290.82" style="stroke:#181818;stroke-width:1.0;"/><text fill="#000000" font-family="sans-serif" font-size="13" lengthAdjust="spacing" textLength="87" x="505" y="171.0669">admin bloque</text><text fill="#000000" font-family="sans-serif" font-size="13" lengthAdjust="spacing" textLength="66" x="515.5" y="186.1997">/ bloquer()</text></g><!--link D?sactiv? to Bloqu?--><g id="link_D&#233;sactiv&#233;_Bloqu&#233;"><path d="M341.53,199.11 C352.31,217.94 369.36,243.74 390,261 C402.94,271.82 435.9526,286.6897 464.8826,298.7597 " fill="none" id="D&#233;sactiv&#233;-to-Bloqu&#233;" style="stroke:#181818;stroke-width:1.0;"/><polygon fill="#181818" points="470.42,301.07,463.6541,293.913,465.8055,299.1448,460.5737,301.2962,470.42,301.07" style="stroke:#181818;stroke-width:1.0;"/><text fill="#000000" font-family="sans-serif" font-size="13" lengthAdjust="spacing" textLength="87" x="391" y="242.0669">admin bloque</text><text fill="#000000" font-family="sans-serif" font-size="13" lengthAdjust="spacing" textLength="66" x="401.5" y="257.1997">/ bloquer()</text></g><!--link D?sactiv? to EnDestruction--><g id="link_D&#233;sactiv&#233;_EnDestruction"><path d="M325.77,199.43 C322.68,222.9 317.93,259.36 314,291 C308.43,335.8 302.9657,382.1605 299.4857,411.9705 " fill="none" id="D&#233;sactiv&#233;-to-EnDestruction" style="stroke:#181818;stroke-width:1.0;"/><polygon fill="#181818" points="298.79,417.93,303.8066,409.4545,299.3698,412.9637,295.8605,408.5269,298.79,417.93" style="stroke:#181818;stroke-width:1.0;"/><text fill="#000000" font-family="sans-serif" font-size="13" lengthAdjust="spacing" textLength="137" x="315" y="320.5669">demande destruction</text></g><!--link Bloqu? to EnDestruction--><g id="link_Bloqu&#233;_EnDestruction"><path d="M470.49,337.64 C433.62,359.69 380.3896,391.5308 341.4396,414.8208 " fill="none" id="Bloqu&#233;-to-EnDestruction" style="stroke:#181818;stroke-width:1.0;"/><polygon fill="#181818" points="336.29,417.9,346.0672,416.7143,340.5813,415.334,341.9616,409.8481,336.29,417.9" style="stroke:#181818;stroke-width:1.0;"/><text fill="#000000" font-family="sans-serif" font-size="13" lengthAdjust="spacing" textLength="137" x="415" y="384.0669">demande destruction</text></g><!--reverse link *end* to EnDestruction--><g id="link_*end*_EnDestruction"><path d="M193.25,443 C204.72,443 210.19,443 221.66,443 " fill="none" id="*end*-backto-EnDestruction" style="stroke:#181818;stroke-width:1.0;"/><polygon fill="#181818" points="187.25,443,196.25,447,192.25,443,196.25,439,187.25,443" style="stroke:#181818;stroke-width:1.0;"/></g><!--SRC=[dP4nJiGm44LxdsAwx29Pz1H8iA5R91ege1ZYIM8fSLXxZCGHk0Ljpk6BOIUADxkYMD4u_ixxVxxbejJOMEnx0aNGOzLgGn1-88oCx63prA7XvyVzjX2Ys0scresto7emKBLecI3QFrfzy9I8y3tPY84j6gSJw0hXuYd1WzdPCCxc6o33zYj-gqYmzHMJjvjjHakQJqzXHMjMl5ozWRIwQLdUhkF5UbG6xc9QBQOLPDHb61r6zHd66ErPTzfXYWQr_A5NSxrIQUZHVrvIKOz6KIwPYXpf-suu-6aIgbuRU4zwofztANlTI2wDpxgbU-LgMVpb_i_4I-wqv5xAdp2oepezHdmwyGi0]--></g></svg>