<?xml version="1.0" encoding="us-ascii" standalone="no"?><svg xmlns="http://www.w3.org/2000/svg" xmlns:xlink="http://www.w3.org/1999/xlink" contentStyleType="text/css" height="751px" preserveAspectRatio="none" style="width:899px;height:751px;background:#FFFFFF;" version="1.1" viewBox="0 0 899 751" width="899px" zoomAndPan="magnify"><defs/><g><!--class MiniSocs--><g id="elem_MiniSocs"><rect codeLine="14" fill="#FFFFFF" height="50.5938" id="MiniSocs" rx="2.5" ry="2.5" style="stroke:#000000;stroke-width:0.5;" width="106" x="661.04" y="38"/><text fill="#000000" font-family="sans-serif" font-size="14" lengthAdjust="spacing" textLength="61" x="683.54" y="55.9951">MiniSocs</text><line style="stroke:#000000;stroke-width:0.5;" x1="662.04" x2="766.04" y1="64.2969" y2="64.2969"/><rect fill="none" height="6" style="stroke:#C82930;stroke-width:1.0;" width="6" x="669.04" y="74.9453"/><text fill="#000000" font-family="sans-serif" font-size="14" lengthAdjust="spacing" textLength="80" x="681.04" y="81.292">nom: String</text></g><!--class Utilisateur--><g id="elem_Utilisateur"><rect codeLine="18" fill="#FFFFFF" height="115.7813" id="Utilisateur" rx="2.5" ry="2.5" style="stroke:#000000;stroke-width:0.5;" width="199" x="460.54" y="181"/><text fill="#000000" font-family="sans-serif" font-size="14" lengthAdjust="spacing" textLength="68" x="526.04" y="198.9951">Utilisateur</text><line style="stroke:#000000;stroke-width:0.5;" x1="461.54" x2="658.54" y1="207.2969" y2="207.2969"/><rect fill="none" height="6" style="stroke:#C82930;stroke-width:1.0;" width="6" x="468.54" y="217.9453"/><text fill="#000000" font-family="sans-serif" font-size="14" lengthAdjust="spacing" textLength="140" x="480.54" y="224.292">pseudonyme: String</text><rect fill="none" height="6" style="stroke:#C82930;stroke-width:1.0;" width="6" x="468.54" y="234.2422"/><text fill="#000000" font-family="sans-serif" font-size="14" lengthAdjust="spacing" textLength="80" x="480.54" y="240.5889">nom: String</text><rect fill="none" height="6" style="stroke:#C82930;stroke-width:1.0;" width="6" x="468.54" y="250.5391"/><text fill="#000000" font-family="sans-serif" font-size="14" lengthAdjust="spacing" textLength="103" x="480.54" y="256.8857">pr&#233;nom: String</text><rect fill="none" height="6" style="stroke:#C82930;stroke-width:1.0;" width="6" x="468.54" y="266.8359"/><text fill="#000000" font-family="sans-serif" font-size="14" lengthAdjust="spacing" textLength="100" x="480.54" y="273.1826">courriel: String</text><rect fill="none" height="6" style="stroke:#C82930;stroke-width:1.0;" width="6" x="468.54" y="283.1328"/><text fill="#000000" font-family="sans-serif" font-size="14" lengthAdjust="spacing" textLength="173" x="480.54" y="289.4795">etatCompte: &#201;tatCompte</text></g><!--class ?tatCompte--><g id="elem_&#201;tatCompte"><rect codeLine="25" fill="#FFFFFF" height="113.4531" id="&#201;tatCompte" rx="2.5" ry="2.5" style="stroke:#000000;stroke-width:0.5;" width="90" x="802.04" y="7"/><text fill="#000000" font-family="sans-serif" font-size="12" font-style="italic" lengthAdjust="spacing" textLength="49" x="822.54" y="23.1387">&#171;enum&#187;</text><text fill="#000000" font-family="sans-serif" font-size="14" lengthAdjust="spacing" textLength="82" x="806.04" y="38.9639">&#201;tatCompte</text><line style="stroke:#000000;stroke-width:0.5;" x1="803.04" x2="891.04" y1="47.2656" y2="47.2656"/><text fill="#000000" font-family="sans-serif" font-size="14" lengthAdjust="spacing" textLength="39" x="808.04" y="64.2607">ACTIF</text><text fill="#000000" font-family="sans-serif" font-size="14" lengthAdjust="spacing" textLength="78" x="808.04" y="80.5576">D&#201;SACTIV&#201;</text><text fill="#000000" font-family="sans-serif" font-size="14" lengthAdjust="spacing" textLength="58" x="808.04" y="96.8545">BLOQU&#201;</text><text fill="#000000" font-family="sans-serif" font-size="14" lengthAdjust="spacing" textLength="78" x="808.04" y="113.1514">D&#201;BLOQU&#201;</text></g><!--class Participation--><g id="elem_Participation"><rect codeLine="32" fill="#FFFFFF" height="83.1875" id="Participation" rx="2.5" ry="2.5" style="stroke:#000000;stroke-width:0.5;" width="195" x="226.54" y="374"/><text fill="#000000" font-family="sans-serif" font-size="14" lengthAdjust="spacing" textLength="84" x="282.04" y="391.9951">Participation</text><line style="stroke:#000000;stroke-width:0.5;" x1="227.54" x2="420.54" y1="400.2969" y2="400.2969"/><rect fill="none" height="6" style="stroke:#C82930;stroke-width:1.0;" width="6" x="234.54" y="410.9453"/><text fill="#000000" font-family="sans-serif" font-size="14" lengthAdjust="spacing" textLength="169" x="246.54" y="417.292">pseudoParticulier: String</text><rect fill="none" height="6" style="stroke:#C82930;stroke-width:1.0;" width="6" x="234.54" y="427.2422"/><text fill="#000000" font-family="sans-serif" font-size="14" lengthAdjust="spacing" textLength="121" x="246.54" y="433.5889">mod&#233;rateur: Bool</text><rect fill="none" height="6" style="stroke:#C82930;stroke-width:1.0;" width="6" x="234.54" y="443.5391"/><text fill="#000000" font-family="sans-serif" font-size="14" lengthAdjust="spacing" textLength="140" x="246.54" y="449.8857">pseudonyme: String</text></g><!--class ReseauSocial--><g id="elem_ReseauSocial"><rect codeLine="38" fill="#FFFFFF" height="50.5938" id="ReseauSocial" rx="2.5" ry="2.5" style="stroke:#000000;stroke-width:0.5;" width="106" x="315.04" y="694"/><text fill="#000000" font-family="sans-serif" font-size="14" lengthAdjust="spacing" textLength="93" x="321.54" y="711.9951">ReseauSocial</text><line style="stroke:#000000;stroke-width:0.5;" x1="316.04" x2="420.04" y1="720.2969" y2="720.2969"/><rect fill="none" height="6" style="stroke:#C82930;stroke-width:1.0;" width="6" x="323.04" y="730.9453"/><text fill="#000000" font-family="sans-serif" font-size="14" lengthAdjust="spacing" textLength="80" x="335.04" y="737.292">nom: String</text></g><!--class Message--><g id="elem_Message"><rect codeLine="42" fill="#FFFFFF" height="83.1875" id="Message" rx="2.5" ry="2.5" style="stroke:#000000;stroke-width:0.5;" width="195" x="517.54" y="534"/><text fill="#000000" font-family="sans-serif" font-size="14" lengthAdjust="spacing" textLength="63" x="583.54" y="551.9951">Message</text><line style="stroke:#000000;stroke-width:0.5;" x1="518.54" x2="711.54" y1="560.2969" y2="560.2969"/><rect fill="none" height="6" style="stroke:#C82930;stroke-width:1.0;" width="6" x="525.54" y="570.9453"/><text fill="#000000" font-family="sans-serif" font-size="14" lengthAdjust="spacing" textLength="107" x="537.54" y="577.292">contenu: String</text><rect fill="none" height="6" style="stroke:#C82930;stroke-width:1.0;" width="6" x="525.54" y="587.2422"/><text fill="#000000" font-family="sans-serif" font-size="14" lengthAdjust="spacing" textLength="95" x="537.54" y="593.5889">accept&#233;: bool</text><rect fill="none" height="6" style="stroke:#C82930;stroke-width:1.0;" width="6" x="525.54" y="603.5391"/><text fill="#000000" font-family="sans-serif" font-size="14" lengthAdjust="spacing" textLength="169" x="537.54" y="609.8857">pseudoParticulier: String</text></g><!--link MiniSocs to Utilisateur--><g id="link_MiniSocs_Utilisateur"><path codeLine="49" d="M684.0051,98.3356 C662.8851,122.1356 642.1926,145.4424 614.6726,176.4524 " fill="none" id="MiniSocs-Utilisateur" style="stroke:#000000;stroke-width:1.0;"/><polygon fill="#000000" points="691.97,89.36,684.9957,91.1928,684.0051,98.3356,690.9794,96.5027,691.97,89.36" style="stroke:#000000;stroke-width:1.0;"/><polygon fill="#000000" points="610.69,180.94,619.6556,176.8636,614.0088,177.2003,613.6721,171.5535,610.69,180.94" style="stroke:#000000;stroke-width:1.0;"/><text fill="#000000" font-family="sans-serif" font-size="13" lengthAdjust="spacing" textLength="7" x="609.4364" y="170.0382">*</text></g><!--link Utilisateur to Participation--><g id="link_Utilisateur_Participation"><path codeLine="50" d="M473.112,304.2756 C439.242,329.3256 414.735,347.4436 383.875,370.2536 " fill="none" id="Utilisateur-Participation" style="stroke:#000000;stroke-width:1.0;"/><polygon fill="#000000" points="482.76,297.14,475.5575,297.4918,473.112,304.2756,480.3145,303.9238,482.76,297.14" style="stroke:#000000;stroke-width:1.0;"/><polygon fill="#000000" points="379.05,373.82,388.6651,371.6871,383.0709,370.848,383.9099,365.2537,379.05,373.82" style="stroke:#000000;stroke-width:1.0;"/><text fill="#000000" font-family="sans-serif" font-size="13" lengthAdjust="spacing" textLength="54" x="443.04" y="340.0669">poss&#232;de</text><text fill="#000000" font-family="sans-serif" font-size="13" lengthAdjust="spacing" textLength="8" x="465.362" y="316.8168">1</text><text fill="#000000" font-family="sans-serif" font-size="13" lengthAdjust="spacing" textLength="7" x="380.2594" y="363.0445">*</text></g><!--link Participation to ReseauSocial--><g id="link_Participation_ReseauSocial"><path codeLine="51" d="M226.46,427.01 C158.39,440 72.14,469.05 28.04,534 C7.32,564.52 6,587.42 28.04,617 C62.45,663.19 222.0906,695.08 308.8306,709.44 " fill="none" id="Participation-to-ReseauSocial" style="stroke:#000000;stroke-width:1.0;"/><polygon fill="#000000" points="314.75,710.42,306.5242,705.0038,309.8171,709.6034,305.2175,712.8963,314.75,710.42" style="stroke:#000000;stroke-width:1.0;"/><text fill="#000000" font-family="sans-serif" font-size="13" lengthAdjust="spacing" textLength="193" x="29.04" y="580.0669">mod&#232;re (si mod&#233;rateur=True)</text><text fill="#000000" font-family="sans-serif" font-size="13" lengthAdjust="spacing" textLength="7" x="211.4052" y="424.3943">*</text><text fill="#000000" font-family="sans-serif" font-size="13" lengthAdjust="spacing" textLength="8" x="299.0517" y="705.2952">1</text></g><!--link Participation to ReseauSocial--><g id="link_Participation_ReseauSocial"><path codeLine="52" d="M303.43,457.01 C285.36,498.2 264.74,563.4 284.04,617 C294.97,647.34 314.9971,670.91 334.6871,689.68 " fill="none" id="Participation-to-ReseauSocial-1" style="stroke:#000000;stroke-width:1.0;"/><polygon fill="#000000" points="339.03,693.82,335.2756,684.7148,335.4109,690.37,329.7557,690.5053,339.03,693.82" style="stroke:#000000;stroke-width:1.0;"/><text fill="#000000" font-family="sans-serif" font-size="13" lengthAdjust="spacing" textLength="214" x="285.04" y="580.0669">appartient (si mod&#233;rateur=False)</text><text fill="#000000" font-family="sans-serif" font-size="13" lengthAdjust="spacing" textLength="7" x="292.4368" y="477.1896">*</text><text fill="#000000" font-family="sans-serif" font-size="13" lengthAdjust="spacing" textLength="8" x="322.9838" y="682.865">1</text></g><!--link Participation to Message--><g id="link_Participation_Message"><path codeLine="53" d="M309.9778,469.2387 C307.6578,485.4287 310.4,491.3 321.04,504 C345.54,533.23 453.03,524.77 490.04,534 C499,536.24 502.4997,537.1012 511.7297,539.7912 " fill="none" id="Participation-Message" style="stroke:#000000;stroke-width:1.0;"/><polygon fill="#000000" points="311.68,457.36,306.8694,462.7319,309.9778,469.2387,314.7885,463.8667,311.68,457.36" style="stroke:#000000;stroke-width:1.0;"/><polygon fill="#000000" points="517.49,541.47,509.9687,535.1116,512.6897,540.071,507.7303,542.792,517.49,541.47" style="stroke:#000000;stroke-width:1.0;"/><text fill="#000000" font-family="sans-serif" font-size="13" lengthAdjust="spacing" textLength="216" x="322.04" y="500.0669">Demander (si mod&#233;rateur=False)</text><text fill="#000000" font-family="sans-serif" font-size="13" lengthAdjust="spacing" textLength="8" x="301.0726" y="477.2893">1</text><text fill="#000000" font-family="sans-serif" font-size="13" lengthAdjust="spacing" textLength="7" x="502.4376" y="535.2253">*</text></g><!--link Participation to Message--><g id="link_Participation_Message"><path codeLine="54" d="M433.1566,438.3126 C473.1566,449.0926 506.86,462.42 543.04,487 C561.1,499.27 573.4585,512.5288 585.7185,529.0788 " fill="none" id="Participation-Message-1" style="stroke:#000000;stroke-width:1.0;"/><polygon fill="#000000" points="421.57,435.19,426.3224,440.6135,433.1566,438.3126,428.4042,432.8891,421.57,435.19" style="stroke:#000000;stroke-width:1.0;"/><polygon fill="#000000" points="589.29,533.9,587.1469,524.2871,586.3137,529.8823,580.7186,529.0491,589.29,533.9" style="stroke:#000000;stroke-width:1.0;"/><text fill="#000000" font-family="sans-serif" font-size="13" lengthAdjust="spacing" textLength="184" x="563.04" y="500.0669">Poster (si mod&#233;rateur=True)</text><text fill="#000000" font-family="sans-serif" font-size="13" lengthAdjust="spacing" textLength="8" x="429.6607" y="433.2261">1</text><text fill="#000000" font-family="sans-serif" font-size="13" lengthAdjust="spacing" textLength="7" x="577.4455" y="522.8302">*</text></g><!--link Message to ReseauSocial--><g id="link_Message_ReseauSocial"><path codeLine="55" d="M539.3883,619.9903 C496.1783,644.8303 457.8829,666.8483 421.0829,688.0083 " fill="none" id="Message-ReseauSocial" style="stroke:#000000;stroke-width:1.0;"/><polygon fill="#000000" points="544.59,617,534.7939,618.0176,540.2552,619.4919,538.7809,624.9533,544.59,617" style="stroke:#000000;stroke-width:1.0;"/><polygon fill="#000000" points="410.68,693.99,417.8753,694.4668,421.0829,688.0083,413.8876,687.5315,410.68,693.99" style="stroke:#000000;stroke-width:1.0;"/><text fill="#000000" font-family="sans-serif" font-size="13" lengthAdjust="spacing" textLength="52" x="492.04" y="660.0669">contient</text><text fill="#000000" font-family="sans-serif" font-size="13" lengthAdjust="spacing" textLength="7" x="525.342" y="637.178">*</text><text fill="#000000" font-family="sans-serif" font-size="13" lengthAdjust="spacing" textLength="8" x="412.0985" y="683.0764">1</text></g><!--link MiniSocs to ReseauSocial--><g id="link_MiniSocs_ReseauSocial"><path codeLine="56" d="M739.7859,98.9366 C762.5859,131.2666 791.04,180.82 791.04,238 C791.04,238 791.04,238 791.04,576.5 C791.04,653.67 540.7363,695.9392 427.1263,711.2392 " fill="none" id="MiniSocs-ReseauSocial" style="stroke:#000000;stroke-width:1.0;"/><polygon fill="#000000" points="732.87,89.13,733.0591,96.3386,739.7859,98.9366,739.5968,91.728,732.87,89.13" style="stroke:#000000;stroke-width:1.0;"/><polygon fill="#000000" points="421.18,712.04,430.6333,714.803,426.1353,711.3727,429.5656,706.8746,421.18,712.04" style="stroke:#000000;stroke-width:1.0;"/><text fill="#000000" font-family="sans-serif" font-size="13" lengthAdjust="spacing" textLength="7" x="429.145" y="707.041">*</text></g><!--SRC=[fLJDQjj04BxhAGPVb9YuqAjm3OvDe11JjuxRysOrbOUiTjNzeOJI1_2RnC-X5-kird6bn2s5dhGx-cRc-q7AboGgA-eQeKIGIZY73YxMIcY_NTrUvbcMBup-IbMmmfFH87V2UWHkQdRqBM2UxOXRiMxy8zJeTwPqgIJ9IeMPUo3T2DwHniEF3E1Qo8VAcg3BXL76mfSTUUJwt5hpFPMk5MCYrDWIRR_sCt9AJA-WFUXGjuT4Zk_evPiyIvjMf6bZP5ev0Mtg0ZRUagxYZ8JPUbBaXCTWZx36OIYDVgpnX7xPtS4ihtvHaoPOIwW6HVJ2BmpRm_FQ_Ud2592fzqimdSRIRDOncI_ktj_mSzdkD_7ykTr7Esu_VDns9wu_NqvgrfmDIMfIL7qzwKrGX7R0hZPbvnxhBzXhe_xamMd79tGe0ljAGltDsHKw9oeyGgJHdiKDTWifiV7jeO3xuU9pP6FgS-VYsa7Kfv37ayaCHkDHFzAi7-_exUWtQE1K0OrnhdqgCHiw695T1xVsTHUTRqyMuS9HtyDtTpRWvJzF4KqJaQZzgq4tGhdNa_eIZWONiCHQQFv8_cV6sZX_PaAIynnbx9XE9kCpIcA-KSUPFFh066A0UtI6z1K8_aquzfx3KHWpeCXGOys3ykmN]--></g></svg>