<?xml version="1.0" encoding="us-ascii" standalone="no"?><svg xmlns="http://www.w3.org/2000/svg" xmlns:xlink="http://www.w3.org/1999/xlink" contentStyleType="text/css" height="357px" preserveAspectRatio="none" style="width:667px;height:357px;background:#FFFFFF;" version="1.1" viewBox="0 0 667 357" width="667px" zoomAndPan="magnify"><defs/><g><rect fill="#FFFFFF" height="212.8281" style="stroke:#181818;stroke-width:1.0;" width="10" x="284" y="112.4297"/><rect fill="#FFFFFF" height="14" style="stroke:#181818;stroke-width:1.0;" width="10" x="444" y="297.2578"/><rect fill="#FFFFFF" height="16.1641" style="stroke:#181818;stroke-width:1.0;" width="10" x="588.5" y="199.8281"/><rect fill="#FFFFFF" height="14" style="stroke:#181818;stroke-width:1.0;" width="10" x="588.5" y="247.125"/><rect fill="none" height="205.8281" style="stroke:#000000;stroke-width:1.5;" width="651" x="10" y="127.4297"/><rect fill="none" height="117.5625" style="stroke:#000000;stroke-width:1.5;" width="447.5" x="203.5" y="151.5625"/><line style="stroke:#181818;stroke-width:0.5;stroke-dasharray:5.0,5.0;" x1="64" x2="64" y1="81.2969" y2="350.2578"/><line style="stroke:#181818;stroke-width:0.5;stroke-dasharray:5.0,5.0;" x1="288.5" x2="288.5" y1="81.2969" y2="350.2578"/><line style="stroke:#181818;stroke-width:0.5;stroke-dasharray:5.0,5.0;" x1="448.5" x2="448.5" y1="81.2969" y2="350.2578"/><line style="stroke:#181818;stroke-width:0.5;stroke-dasharray:5.0,5.0;" x1="593" x2="593" y1="199.3438" y2="350.2578"/><text fill="#000000" font-family="sans-serif" font-size="14" lengthAdjust="spacing" text-decoration="underline" textLength="82" x="20" y="77.9951">u:Utilisateur</text><ellipse cx="64" cy="13.5" fill="#FFFFFF" rx="8" ry="8" style="stroke:#181818;stroke-width:0.5;"/><path d="M64,21.5 L64,48.5 M51,29.5 L77,29.5 M64,48.5 L51,63.5 M64,48.5 L77,63.5 " fill="none" style="stroke:#181818;stroke-width:0.5;"/><rect fill="#FFFFFF" height="30.2969" rx="2.5" ry="2.5" style="stroke:#181818;stroke-width:0.5;" width="151" x="213.5" y="50"/><text fill="#000000" font-family="sans-serif" font-size="14" lengthAdjust="spacing" text-decoration="underline" textLength="137" x="220.5" y="69.9951">compteParticipation</text><rect fill="#FFFFFF" height="30.2969" rx="2.5" ry="2.5" style="stroke:#181818;stroke-width:0.5;" width="117" x="390.5" y="50"/><text fill="#000000" font-family="sans-serif" font-size="14" lengthAdjust="spacing" text-decoration="underline" textLength="103" x="397.5" y="69.9951">r:ReseauSocial</text><rect fill="#FFFFFF" height="212.8281" style="stroke:#181818;stroke-width:1.0;" width="10" x="284" y="112.4297"/><rect fill="#FFFFFF" height="14" style="stroke:#181818;stroke-width:1.0;" width="10" x="444" y="297.2578"/><rect fill="#FFFFFF" height="16.1641" style="stroke:#181818;stroke-width:1.0;" width="10" x="588.5" y="199.8281"/><rect fill="#FFFFFF" height="14" style="stroke:#181818;stroke-width:1.0;" width="10" x="588.5" y="247.125"/><polygon fill="#181818" points="272,108.4297,282,112.4297,272,116.4297,276,112.4297" style="stroke:#181818;stroke-width:1.0;"/><line style="stroke:#181818;stroke-width:1.0;" x1="64" x2="278" y1="112.4297" y2="112.4297"/><text fill="#000000" font-family="sans-serif" font-size="13" lengthAdjust="spacing" textLength="201" x="71" y="107.3638">"writeMessage(contenu:String)"</text><path d="M10,127.4297 L80,127.4297 L80,134.5625 L70,144.5625 L10,144.5625 L10,127.4297 " fill="#EEEEEE" style="stroke:#000000;stroke-width:1.5;"/><rect fill="none" height="205.8281" style="stroke:#000000;stroke-width:1.5;" width="651" x="10" y="127.4297"/><text fill="#000000" font-family="sans-serif" font-size="13" font-weight="bold" lengthAdjust="spacing" textLength="25" x="25" y="140.4966">opt</text><text fill="#000000" font-family="sans-serif" font-size="11" font-weight="bold" lengthAdjust="spacing" textLength="327" x="95" y="139.6401">[u.etatCompte = Actif, contenu non nul ^ non vide]</text><path d="M203.5,151.5625 L267.5,151.5625 L267.5,158.6953 L257.5,168.6953 L203.5,168.6953 L203.5,151.5625 " fill="#EEEEEE" style="stroke:#000000;stroke-width:1.5;"/><rect fill="none" height="117.5625" style="stroke:#000000;stroke-width:1.5;" width="447.5" x="203.5" y="151.5625"/><text fill="#000000" font-family="sans-serif" font-size="13" font-weight="bold" lengthAdjust="spacing" textLength="19" x="218.5" y="164.6294">alt</text><text fill="#000000" font-family="sans-serif" font-size="11" font-weight="bold" lengthAdjust="spacing" textLength="139" x="282.5" y="163.7729">[p.moderateur = true]</text><polygon fill="#181818" points="534,185.8281,544,189.8281,534,193.8281,538,189.8281" style="stroke:#181818;stroke-width:1.0;"/><line style="stroke:#181818;stroke-width:1.0;" x1="294" x2="540" y1="189.8281" y2="189.8281"/><text fill="#000000" font-family="sans-serif" font-size="13" lengthAdjust="spacing" textLength="228" x="301" y="184.7622">"creationMessage(contenu, r, true)"</text><rect fill="#FFFFFF" height="30.2969" rx="2.5" ry="2.5" style="stroke:#181818;stroke-width:0.5;" width="95" x="546" y="168.6953"/><text fill="#000000" font-family="sans-serif" font-size="14" lengthAdjust="spacing" text-decoration="underline" textLength="81" x="553" y="188.6904">m:Message</text><polygon fill="#181818" points="305,211.9922,295,215.9922,305,219.9922,301,215.9922" style="stroke:#181818;stroke-width:1.0;"/><line style="stroke:#181818;stroke-width:1.0;stroke-dasharray:2.0,2.0;" x1="299" x2="592.5" y1="215.9922" y2="215.9922"/><line style="stroke:#000000;stroke-width:1.0;stroke-dasharray:2.0,2.0;" x1="203.5" x2="651" y1="224.9922" y2="224.9922"/><polygon fill="#181818" points="576.5,243.125,586.5,247.125,576.5,251.125,580.5,247.125" style="stroke:#181818;stroke-width:1.0;"/><line style="stroke:#181818;stroke-width:1.0;" x1="294" x2="582.5" y1="247.125" y2="247.125"/><text fill="#000000" font-family="sans-serif" font-size="13" lengthAdjust="spacing" textLength="232" x="301" y="242.0591">"creationMessage(contenu, r, false)"</text><polygon fill="#181818" points="305,257.125,295,261.125,305,265.125,301,261.125" style="stroke:#181818;stroke-width:1.0;"/><line style="stroke:#181818;stroke-width:1.0;stroke-dasharray:2.0,2.0;" x1="299" x2="592.5" y1="261.125" y2="261.125"/><polygon fill="#181818" points="432,293.2578,442,297.2578,432,301.2578,436,297.2578" style="stroke:#181818;stroke-width:1.0;"/><line style="stroke:#181818;stroke-width:1.0;" x1="294" x2="438" y1="297.2578" y2="297.2578"/><text fill="#000000" font-family="sans-serif" font-size="13" lengthAdjust="spacing" textLength="131" x="301" y="292.1919">"posterMessage(m)"</text><polygon fill="#181818" points="305,307.2578,295,311.2578,305,315.2578,301,311.2578" style="stroke:#181818;stroke-width:1.0;"/><line style="stroke:#181818;stroke-width:1.0;stroke-dasharray:2.0,2.0;" x1="299" x2="448" y1="311.2578" y2="311.2578"/><polygon fill="#181818" points="75,321.2578,65,325.2578,75,329.2578,71,325.2578" style="stroke:#181818;stroke-width:1.0;"/><line style="stroke:#181818;stroke-width:1.0;stroke-dasharray:2.0,2.0;" x1="69" x2="288" y1="325.2578" y2="325.2578"/><!--SRC=[bP5DRjim48NtFCN06pc8uWC8Q87MMIP0K2FehiQK6ijiA98T3jqSfrkVGnVhI5Oh8yYcA_tWUu_lFLRt3Zl6lYTe2V9m_baeM8BraySWpuyFDvKnrJQ6W-iAexWOm1wHXK1bwUYKhypHgVWGetoFhoQ_k91GFI7JnUr9UMTTKiVFQ5ywZYMqs-WZmzUZ4tf7yibAvFTXKzqFP-jnJjDI1hH2XJEGJ9zfEI_3kXtEFuRVGAyko_G7J_e0ZqjTBOdZWR3QxqlpBCwxZAFbVhy2p53CbUK8sTWdMNgDGMOqlKMv-KAPiEoYTUXdYhN5xj_OU28BNeFtb3DsbElfo_9mdgppU3VNfMfjQZULAN3t4HBSta83gr-iwpnU7DOs1g5Gcfsm2ztDoiGaK3OaADifEtm0tTWTQfXH23fcA1w-JMydlL9ZcNI6iKNVpCvpWTwW5qYRFhR4qrHgA5p8f35JFsUQ3BJ1crWrS3tH6en92WT3Fl-7ze2ANub3Uz7oh4qn2_5VPR-GY-0F]--></g></svg>