<?xml version="1.0" encoding="us-ascii" standalone="no"?><svg xmlns="http://www.w3.org/2000/svg" xmlns:xlink="http://www.w3.org/1999/xlink" contentStyleType="text/css" height="1286px" preserveAspectRatio="none" style="width:814px;height:1286px;background:#FFFFFF;" version="1.1" viewBox="0 0 814 1286" width="814px" zoomAndPan="magnify"><defs/><g><!--cluster MiniSocs--><g id="cluster_MiniSocs"><rect fill="none" height="1273" rx="2.5" ry="2.5" style="stroke:#181818;stroke-width:1.0;" width="413" x="395" y="7"/><text fill="#000000" font-family="sans-serif" font-size="14" font-weight="bold" lengthAdjust="spacing" textLength="69" x="567" y="21.9951">MiniSocs</text></g><g id="elem_ajouter un utilisateur"><ellipse cx="601.6728" cy="312.8346" fill="#FFFFFF" rx="89.6728" ry="20.3346" style="stroke:#000000;stroke-width:0.5;"/><text fill="#000000" font-family="sans-serif" font-size="14" lengthAdjust="spacing" textLength="141" x="531.1728" y="315.6812">ajouter un utilisateur</text></g><g id="elem_lister les utilisateur"><ellipse cx="601.495" cy="61.199" fill="#FFFFFF" rx="83.995" ry="19.199" style="stroke:#000000;stroke-width:0.5;"/><text fill="#000000" font-family="sans-serif" font-size="14" lengthAdjust="spacing" textLength="128" x="537.2335" y="64.1356">lister les utilisateur</text></g><g id="elem_bloquer un compte utilisateur"><ellipse cx="601.4616" cy="140.9923" fill="#FFFFFF" rx="117.9616" ry="25.9923" style="stroke:#000000;stroke-width:0.5;"/><text fill="#000000" font-family="sans-serif" font-size="14" lengthAdjust="spacing" textLength="203" x="499.9616" y="143.839">bloquer un compte utilisateur</text></g><g id="elem_d&#233;bloquer un compte utilisateur"><ellipse cx="601.4187" cy="230.1837" fill="#FFFFFF" rx="126.4187" ry="27.6837" style="stroke:#000000;stroke-width:0.5;"/><text fill="#000000" font-family="sans-serif" font-size="14" lengthAdjust="spacing" textLength="221" x="490.9187" y="233.0304">d&#233;bloquer un compte utilisateur</text></g><g id="elem_d&#233;sactiver son compte"><ellipse cx="601.2599" cy="1006.852" fill="#FFFFFF" rx="97.2599" ry="21.852" style="stroke:#000000;stroke-width:0.5;"/><text fill="#000000" font-family="sans-serif" font-size="14" lengthAdjust="spacing" textLength="158" x="522.2599" y="1009.6987">d&#233;sactiver son compte</text></g><g id="elem_activer son compte"><ellipse cx="601.728" cy="1084.0456" fill="#FFFFFF" rx="85.728" ry="19.5456" style="stroke:#000000;stroke-width:0.5;"/><text fill="#000000" font-family="sans-serif" font-size="14" lengthAdjust="spacing" textLength="132" x="535.728" y="1086.8923">activer son compte</text></g><g id="elem_cr&#233;er un r&#233;seau social"><ellipse cx="601.5118" cy="1159.9024" fill="#FFFFFF" rx="95.0118" ry="21.4024" style="stroke:#000000;stroke-width:0.5;"/><text fill="#000000" font-family="sans-serif" font-size="14" lengthAdjust="spacing" textLength="153" x="525.0118" y="1162.749">cr&#233;er un r&#233;seau social</text></g><g id="elem_rejoindre un r&#233;seau social"><ellipse cx="601.3679" cy="1240.1736" fill="#FFFFFF" rx="106.3679" ry="23.6736" style="stroke:#000000;stroke-width:0.5;"/><text fill="#000000" font-family="sans-serif" font-size="14" lengthAdjust="spacing" textLength="178" x="512.3679" y="1243.0203">rejoindre un r&#233;seau social</text></g><g id="elem_mod&#233;rer un message"><ellipse cx="601.7229" cy="700.0446" fill="#FFFFFF" rx="93.2229" ry="21.0446" style="stroke:#000000;stroke-width:0.5;"/><text fill="#000000" font-family="sans-serif" font-size="14" lengthAdjust="spacing" textLength="149" x="527.2229" y="702.8913">mod&#233;rer un message</text></g><g id="elem_fermer son r&#233;seau social"><ellipse cx="601.7042" cy="391.9408" fill="#FFFFFF" rx="102.7042" ry="22.9408" style="stroke:#000000;stroke-width:0.5;"/><text fill="#000000" font-family="sans-serif" font-size="14" lengthAdjust="spacing" textLength="170" x="516.7042" y="394.7875">fermer son r&#233;seau social</text></g><g id="elem_bloquer un membre sur son r&#233;seau social bonus"><ellipse cx="601.7063" cy="489.2413" fill="#FFFFFF" rx="181.7063" ry="38.7413" style="stroke:#000000;stroke-width:0.5;"/><text fill="#000000" font-family="sans-serif" font-size="14" lengthAdjust="spacing" textLength="336" x="433.7063" y="492.0879">bloquer un membre sur son r&#233;seau social bonus</text></g><g id="elem_d&#233;bloquer un membre sur son r&#233;seau social bonus"><ellipse cx="601.4805" cy="602.9961" fill="#FFFFFF" rx="190.4805" ry="40.4961" style="stroke:#000000;stroke-width:0.5;"/><text fill="#000000" font-family="sans-serif" font-size="14" lengthAdjust="spacing" textLength="354" x="424.4805" y="605.8428">d&#233;bloquer un membre sur son r&#233;seau social bonus</text></g><g id="elem_poster un message"><ellipse cx="601.5368" cy="775.8074" fill="#FFFFFF" rx="87.0368" ry="19.8074" style="stroke:#000000;stroke-width:0.5;"/><text fill="#000000" font-family="sans-serif" font-size="14" lengthAdjust="spacing" textLength="135" x="534.0368" y="778.654">poster un message</text></g><g id="elem_cacher un message"><ellipse cx="601.4128" cy="850.9826" fill="#FFFFFF" rx="87.9128" ry="19.9826" style="stroke:#000000;stroke-width:0.5;"/><text fill="#000000" font-family="sans-serif" font-size="14" lengthAdjust="spacing" textLength="137" x="532.9128" y="853.8292">cacher un message</text></g><g id="elem_quitter un r&#233;seau social"><ellipse cx="601.5673" cy="928.2135" fill="#FFFFFF" rx="99.0673" ry="22.2135" style="stroke:#000000;stroke-width:0.5;"/><text fill="#000000" font-family="sans-serif" font-size="14" lengthAdjust="spacing" textLength="162" x="520.5673" y="931.0601">quitter un r&#233;seau social</text></g><!--entity Administrateur--><g id="elem_Administrateur"><ellipse cx="301" cy="200.5" fill="#F1F1F1" rx="8" ry="8" style="stroke:#181818;stroke-width:0.5;"/><path d="M301,208.5 L301,235.5 M288,216.5 L314,216.5 M301,235.5 L288,250.5 M301,235.5 L314,250.5 " fill="none" style="stroke:#181818;stroke-width:0.5;"/><text fill="#000000" font-family="sans-serif" font-size="14" lengthAdjust="spacing" textLength="100" x="251" y="264.9951">Administrateur</text></g><!--entity Utilisateur--><g id="elem_Utilisateur"><ellipse cx="40" cy="1015.5" fill="#F1F1F1" rx="8" ry="8" style="stroke:#181818;stroke-width:0.5;"/><path d="M40,1023.5 L40,1050.5 M27,1031.5 L53,1031.5 M40,1050.5 L27,1065.5 M40,1050.5 L53,1065.5 " fill="none" style="stroke:#181818;stroke-width:0.5;"/><text fill="#000000" font-family="sans-serif" font-size="14" lengthAdjust="spacing" textLength="68" x="6" y="1079.9951">Utilisateur</text></g><!--entity Membre--><g id="elem_Membre"><ellipse cx="162.5" cy="821.5" fill="#F1F1F1" rx="8" ry="8" style="stroke:#181818;stroke-width:0.5;"/><path d="M162.5,829.5 L162.5,856.5 M149.5,837.5 L175.5,837.5 M162.5,856.5 L149.5,871.5 M162.5,856.5 L175.5,871.5 " fill="none" style="stroke:#181818;stroke-width:0.5;"/><text fill="#000000" font-family="sans-serif" font-size="14" lengthAdjust="spacing" textLength="57" x="134" y="885.9951">Membre</text></g><!--entity Moderateur--><g id="elem_Moderateur"><ellipse cx="301" cy="573.5" fill="#F1F1F1" rx="8" ry="8" style="stroke:#181818;stroke-width:0.5;"/><path d="M301,581.5 L301,608.5 M288,589.5 L314,589.5 M301,608.5 L288,623.5 M301,608.5 L314,623.5 " fill="none" style="stroke:#181818;stroke-width:0.5;"/><text fill="#000000" font-family="sans-serif" font-size="14" lengthAdjust="spacing" textLength="80" x="261" y="637.9951">Moderateur</text></g><!--reverse link Utilisateur to Administrateur--><g id="link_Utilisateur_Administrateur"><path d="M58.5924,989.6257 C102.1024,852.7357 244.42,404.9 287.88,268.13 " fill="none" id="Utilisateur-backto-Administrateur" style="stroke:#000000;stroke-width:1.0;"/><polygon fill="none" points="53.14,1006.78,64.3105,991.4432,52.8743,987.8082,53.14,1006.78" style="stroke:#000000;stroke-width:1.0;"/></g><!--reverse link Membre to Moderateur--><g id="link_Membre_Moderateur"><path d="M193.2097,797.021 C218.8597,750.421 253.29,687.87 278.95,641.25 " fill="none" id="Membre-backto-Moderateur" style="stroke:#000000;stroke-width:1.0;"/><polygon fill="none" points="184.53,812.79,198.4661,799.9142,187.9534,794.1277,184.53,812.79" style="stroke:#000000;stroke-width:1.0;"/></g><!--reverse link Utilisateur to Membre--><g id="link_Utilisateur_Membre"><path d="M74.3059,991.3786 C95.4259,957.3686 116.63,923.24 137.74,889.25 " fill="none" id="Utilisateur-backto-Membre" style="stroke:#000000;stroke-width:1.0;"/><polygon fill="none" points="64.81,1006.67,79.403,994.5439,69.2087,988.2133,64.81,1006.67" style="stroke:#000000;stroke-width:1.0;"/></g><!--link Administrateur to ajouter un utilisateur--><g id="link_Administrateur_ajouter un utilisateur"><path d="M351.18,259.33 C362.63,265.23 375,270.87 387,275 C429.63,289.67 479.09,298.93 519.67,304.64 " fill="none" id="Administrateur-ajouter un utilisateur" style="stroke:#000000;stroke-width:1.0;"/></g><!--link Administrateur to lister les utilisateur--><g id="link_Administrateur_lister les utilisateur"><path d="M316.15,191.84 C329.59,161.17 352.84,119.61 387,97 C425.24,71.69 475.52,62.33 517.68,59.46 " fill="none" id="Administrateur-lister les utilisateur" style="stroke:#000000;stroke-width:1.0;"/></g><!--link Administrateur to bloquer un compte utilisateur--><g id="link_Administrateur_bloquer un compte utilisateur"><path d="M351.26,200.91 C362.72,195 375.06,189.29 387,185 C423.77,171.78 465.61,162.07 502.45,155.18 " fill="none" id="Administrateur-bloquer un compte utilisateur" style="stroke:#000000;stroke-width:1.0;"/></g><!--link Administrateur to d?bloquer un compte utilisateur--><g id="link_Administrateur_d&#233;bloquer un compte utilisateur"><path d="M351.29,230 C384.99,230 431.27,230 474.8,230 " fill="none" id="Administrateur-d&#233;bloquer un compte utilisateur" style="stroke:#000000;stroke-width:1.0;"/></g><!--link Utilisateur to d?sactiver son compte--><g id="link_Utilisateur_d&#233;sactiver son compte"><path d="M74.32,1042.74 C158.25,1037.04 380.68,1021.93 507.85,1013.29 " fill="none" id="Utilisateur-d&#233;sactiver son compte" style="stroke:#000000;stroke-width:1.0;"/></g><!--link Utilisateur to activer son compte--><g id="link_Utilisateur_activer son compte"><path d="M74.32,1047.32 C160.9,1053.36 394.84,1069.66 519.59,1078.36 " fill="none" id="Utilisateur-activer son compte" style="stroke:#000000;stroke-width:1.0;"/></g><!--link Utilisateur to cr?er un r?seau social--><g id="link_Utilisateur_cr&#233;er un r&#233;seau social"><path d="M74.32,1052.73 C135.92,1066.93 271.84,1097.84 387,1121 C432.81,1130.21 484.33,1139.65 525.28,1146.93 " fill="none" id="Utilisateur-cr&#233;er un r&#233;seau social" style="stroke:#000000;stroke-width:1.0;"/></g><!--link Utilisateur to rejoindre un r?seau social--><g id="link_Utilisateur_rejoindre un r&#233;seau social"><path d="M74.12,1060.03 C91.86,1068.06 114.11,1078.11 134,1087 C246.26,1137.2 269.64,1162.28 387,1199 C426.98,1211.51 472.43,1220.88 511.09,1227.48 " fill="none" id="Utilisateur-rejoindre un r&#233;seau social" style="stroke:#000000;stroke-width:1.0;"/></g><!--link Moderateur to mod?rer un message--><g id="link_Moderateur_mod&#233;rer un message"><path d="M341.09,634.71 C354.88,644.49 370.97,654.42 387,661 C427.17,677.5 474.44,687.05 514.28,692.56 " fill="none" id="Moderateur-mod&#233;rer un message" style="stroke:#000000;stroke-width:1.0;"/></g><!--link Moderateur to fermer son r?seau social--><g id="link_Moderateur_fermer son r&#233;seau social"><path d="M310.53,564.86 C321.39,525.52 344.13,465.48 387,433 C418.81,408.89 460.77,397.71 499.07,392.88 " fill="none" id="Moderateur-fermer son r&#233;seau social" style="stroke:#000000;stroke-width:1.0;"/></g><!--link Moderateur to bloquer un membre sur son r?seau social bonus--><g id="link_Moderateur_bloquer un membre sur son r&#233;seau social bonus"><path d="M341.39,571.99 C355.21,562.25 371.23,552.19 387,545 C413.06,533.12 442.11,523.4 470.17,515.6 " fill="none" id="Moderateur-bloquer un membre sur son r&#233;seau social bonus" style="stroke:#000000;stroke-width:1.0;"/></g><!--link Moderateur to d?bloquer un membre sur son r?seau social bonus--><g id="link_Moderateur_d&#233;bloquer un membre sur son r&#233;seau social bonus"><path d="M341.02,603 C360.07,603 384.52,603 410.78,603 " fill="none" id="Moderateur-d&#233;bloquer un membre sur son r&#233;seau social bonus" style="stroke:#000000;stroke-width:1.0;"/></g><!--link Membre to poster un message--><g id="link_Membre_poster un message"><path d="M191.2,841.61 C208.28,836.12 230.71,829.41 251,825 C342.75,805.05 449.9,791.43 521.13,783.7 " fill="none" id="Membre-poster un message" style="stroke:#000000;stroke-width:1.0;"/></g><!--link Membre to cacher un message--><g id="link_Membre_cacher un message"><path d="M191.17,851 C254.68,851 413.13,851 513.22,851 " fill="none" id="Membre-cacher un message" style="stroke:#000000;stroke-width:1.0;"/></g><!--link Membre to quitter un r?seau social--><g id="link_Membre_quitter un r&#233;seau social"><path d="M191.17,855.88 C256.83,867.45 424,896.9 523.22,914.38 " fill="none" id="Membre-quitter un r&#233;seau social" style="stroke:#000000;stroke-width:1.0;"/></g><!--SRC=[ZP9BRXin38RtEWMHpSIBN61W18WJe5tKG84Ww9gMwB4IINJqI56qkKzz3b-id8VXHoQrlHgJ__Vh5wdgmM8JqNi2Gw0nWQbAjiucp9O3N7zt6FBJ_DkaKggwvx2qJObzJwymPWB1rolxMgXIwSM6DOeTb4HYHl1RpL2_D95BCFViECAFbSsaPXmDnRuoSo9HTp7opwE2pXnFwEaKlXQF0MvluGixezwLShJCa1cYRLOPZ8sastWIzs6xqGw7j8OIeCvKOeAwKjYwmvtnDjYKHIEDeVWqt7zVcPDVHDhzOKdUTm-KCFrpStFgrtFG_Rh-_zZXa97O7zTYC2Hm1EbNojk_NaRVtXf38xMhkKHuP9skPFhrSQ8QvA1hVEQIAK89KFOf9kDYQRTQ9pdEYnUEvI5qpfhzMbx7USPiDsSmLHyCgsw7EN19DcBV14oy8oVZuek5EcutVHBvI8H546tHVIAFzCms65do2A7g_RuxeaCyI_BOd-4f9MpQB6FA9KK_P3wnXd7WO8w-VtgfZF6mu53I9wSUx-CY7p7gPBt9pcZDAN-uveXEervTedijDkVntRohVm00]--></g></svg>