<?xml version="1.0" encoding="us-ascii" standalone="no"?><svg xmlns="http://www.w3.org/2000/svg" xmlns:xlink="http://www.w3.org/1999/xlink" contentStyleType="text/css" height="338px" preserveAspectRatio="none" style="width:835px;height:338px;background:#FFFFFF;" version="1.1" viewBox="0 0 835 338" width="835px" zoomAndPan="magnify"><defs/><g><rect fill="#FFFFFF" height="200.6953" style="stroke:#181818;stroke-width:1.0;" width="10" x="396.5" y="112.4297"/><rect fill="#FFFFFF" height="25" style="stroke:#181818;stroke-width:1.0;" width="10" x="401.5" y="173.6953"/><rect fill="#FFFFFF" height="16.1641" style="stroke:#181818;stroke-width:1.0;" width="10" x="756.5" y="268.9609"/><rect fill="none" height="172.6953" style="stroke:#000000;stroke-width:1.5;" width="494.5" x="335" y="127.4297"/><rect fill="none" height="72.4297" style="stroke:#000000;stroke-width:1.5;" width="474.5" x="345" y="220.6953"/><line style="stroke:#181818;stroke-width:0.5;stroke-dasharray:5.0,5.0;" x1="60" x2="60" y1="81.2969" y2="331.125"/><line style="stroke:#181818;stroke-width:0.5;stroke-dasharray:5.0,5.0;" x1="401" x2="401" y1="81.2969" y2="331.125"/><line style="stroke:#181818;stroke-width:0.5;stroke-dasharray:5.0,5.0;" x1="761.5" x2="761.5" y1="268.4766" y2="331.125"/><text fill="#000000" font-family="sans-serif" font-size="14" lengthAdjust="spacing" text-decoration="underline" textLength="105" x="5" y="77.9951">:Administrateur</text><ellipse cx="60.5" cy="13.5" fill="#FFFFFF" rx="8" ry="8" style="stroke:#181818;stroke-width:0.5;"/><path d="M60.5,21.5 L60.5,48.5 M47.5,29.5 L73.5,29.5 M60.5,48.5 L47.5,63.5 M60.5,48.5 L73.5,63.5 " fill="none" style="stroke:#181818;stroke-width:0.5;"/><rect fill="#FFFFFF" height="30.2969" rx="2.5" ry="2.5" style="stroke:#181818;stroke-width:0.5;" width="93" x="355" y="50"/><text fill="#000000" font-family="sans-serif" font-size="14" lengthAdjust="spacing" text-decoration="underline" textLength="79" x="362" y="69.9951">m:MiniSocs</text><rect fill="#FFFFFF" height="200.6953" style="stroke:#181818;stroke-width:1.0;" width="10" x="396.5" y="112.4297"/><rect fill="#FFFFFF" height="25" style="stroke:#181818;stroke-width:1.0;" width="10" x="401.5" y="173.6953"/><rect fill="#FFFFFF" height="16.1641" style="stroke:#181818;stroke-width:1.0;" width="10" x="756.5" y="268.9609"/><polygon fill="#181818" points="384.5,108.4297,394.5,112.4297,384.5,116.4297,388.5,112.4297" style="stroke:#181818;stroke-width:1.0;"/><line style="stroke:#181818;stroke-width:1.0;" x1="60.5" x2="390.5" y1="112.4297" y2="112.4297"/><text fill="#000000" font-family="sans-serif" font-size="13" lengthAdjust="spacing" textLength="317" x="67.5" y="107.3638">ajouterUtilisateur(pseudo, nom, pr&#233;nom, courriel)</text><path d="M335,127.4297 L405,127.4297 L405,134.5625 L395,144.5625 L335,144.5625 L335,127.4297 " fill="#EEEEEE" style="stroke:#000000;stroke-width:1.5;"/><rect fill="none" height="172.6953" style="stroke:#000000;stroke-width:1.5;" width="494.5" x="335" y="127.4297"/><text fill="#000000" font-family="sans-serif" font-size="13" font-weight="bold" lengthAdjust="spacing" textLength="25" x="350" y="140.4966">opt</text><text fill="#000000" font-family="sans-serif" font-size="11" font-weight="bold" lengthAdjust="spacing" textLength="333" x="420" y="139.6401">[pseudo, nom, pr&#233;nom, courriel non null &#8743; non vide]</text><line style="stroke:#181818;stroke-width:1.0;" x1="406.5" x2="453.5" y1="160.6953" y2="160.6953"/><line style="stroke:#181818;stroke-width:1.0;" x1="453.5" x2="453.5" y1="160.6953" y2="173.6953"/><line style="stroke:#181818;stroke-width:1.0;" x1="412.5" x2="453.5" y1="173.6953" y2="173.6953"/><polygon fill="#181818" points="422.5,169.6953,412.5,173.6953,422.5,177.6953,418.5,173.6953" style="stroke:#181818;stroke-width:1.0;"/><text fill="#000000" font-family="sans-serif" font-size="13" lengthAdjust="spacing" textLength="270" x="418.5" y="155.6294">u=chercherUtilisateur(pseudo): Utilisateur</text><line style="stroke:#181818;stroke-width:1.0;stroke-dasharray:2.0,2.0;" x1="411.5" x2="453.5" y1="197.6953" y2="197.6953"/><line style="stroke:#181818;stroke-width:1.0;stroke-dasharray:2.0,2.0;" x1="453.5" x2="453.5" y1="197.6953" y2="210.6953"/><line style="stroke:#181818;stroke-width:1.0;stroke-dasharray:2.0,2.0;" x1="406.5" x2="453.5" y1="210.6953" y2="210.6953"/><polygon fill="#181818" points="416.5,206.6953,406.5,210.6953,416.5,214.6953,412.5,210.6953" style="stroke:#181818;stroke-width:1.0;"/><path d="M345,220.6953 L415,220.6953 L415,227.8281 L405,237.8281 L345,237.8281 L345,220.6953 " fill="#EEEEEE" style="stroke:#000000;stroke-width:1.5;"/><rect fill="none" height="72.4297" style="stroke:#000000;stroke-width:1.5;" width="474.5" x="345" y="220.6953"/><text fill="#000000" font-family="sans-serif" font-size="13" font-weight="bold" lengthAdjust="spacing" textLength="25" x="360" y="233.7622">opt</text><text fill="#000000" font-family="sans-serif" font-size="11" font-weight="bold" lengthAdjust="spacing" textLength="68" x="430" y="232.9058">[u == null]</text><polygon fill="#181818" points="701.5,254.9609,711.5,258.9609,701.5,262.9609,705.5,258.9609" style="stroke:#181818;stroke-width:1.0;"/><line style="stroke:#181818;stroke-width:1.0;" x1="406.5" x2="707.5" y1="258.9609" y2="258.9609"/><text fill="#000000" font-family="sans-serif" font-size="13" lengthAdjust="spacing" textLength="283" x="413.5" y="253.895">u=&#171;create(pseudo, nom, pr&#233;nom, courriel)&#187;</text><rect fill="#FFFFFF" height="30.2969" rx="2.5" ry="2.5" style="stroke:#181818;stroke-width:0.5;" width="96" x="713.5" y="237.8281"/><text fill="#000000" font-family="sans-serif" font-size="14" lengthAdjust="spacing" text-decoration="underline" textLength="82" x="720.5" y="257.8232">u:Utilisateur</text><polygon fill="#181818" points="417.5,281.125,407.5,285.125,417.5,289.125,413.5,285.125" style="stroke:#181818;stroke-width:1.0;"/><line style="stroke:#181818;stroke-width:1.0;stroke-dasharray:2.0,2.0;" x1="411.5" x2="760.5" y1="285.125" y2="285.125"/><polygon fill="#181818" points="71.5,309.125,61.5,313.125,71.5,317.125,67.5,313.125" style="stroke:#181818;stroke-width:1.0;"/><line style="stroke:#181818;stroke-width:1.0;stroke-dasharray:2.0,2.0;" x1="65.5" x2="400.5" y1="313.125" y2="313.125"/><!--SRC=[XL5BRi8m4Dtx52Cs0K5xW0YGA2oBX8HGbyXr1c9mxDGVn15wZEugpf6Rz2GT6mgH-bjOzZozUU_DE9j9lhMygX0A1DUSNW9gWT1TAAxzQlxOonZBfaPlv3POxgNH84fkFGArrQKaViPAISqRO_opEJAtbxhcf0aEpseBuaiXQr9yu6A_jIReOcgKiV1KIey_j4o4D_PdCijcpKaeVabJe0CkF0Rh07qgwvkVWsxHd7RD6-1HEfyGVg0B5B-DIqFoQ0YTzJgV59NKn2Lz4bslEy2f9uAi9HofLJudvj88Ts5L56vvtI4_e015UIfqZc_H3L8bR7DAqLrSUJlhW0OGzvGbci7T62hezo47lZF1errvgQHBgRgrmr2O0MXJ3Q0cnVGG9bWhKVMOgJtypI5OWmvAmSVhUoeEz8iCoFJc74QYH1lFT_DU3YsG6YtwO3KzX4N2ueP2tg9SbXI84UC568rI0AelhhzrV8KP3i_I_uq_7YVDQo3K1Old37m2]--></g></svg>