<?xml version="1.0" encoding="us-ascii" standalone="no"?><svg xmlns="http://www.w3.org/2000/svg" xmlns:xlink="http://www.w3.org/1999/xlink" contentStyleType="text/css" height="496px" preserveAspectRatio="none" style="width:567px;height:496px;background:#FFFFFF;" version="1.1" viewBox="0 0 567 496" width="567px" zoomAndPan="magnify"><defs/><g><g id="EnCr&#233;ation"><rect fill="#F1F1F1" height="55.412" rx="12.5" ry="12.5" style="stroke:#181818;stroke-width:0.5;" width="137" x="61.5" y="7"/><line style="stroke:#181818;stroke-width:0.5;" x1="61.5" x2="198.5" y1="36.0679" y2="36.0679"/><text fill="#000000" font-family="sans-serif" font-size="14" lengthAdjust="spacing" textLength="74" x="93" y="26.9659">EnCr&#233;ation</text><text fill="#000000" font-family="sans-serif" font-size="12" lengthAdjust="spacing" textLength="117" x="66.5" y="53.896">entry : constructeur()</text></g><g id="EnDestruction"><rect fill="#F1F1F1" height="55.412" rx="12.5" ry="12.5" style="stroke:#181818;stroke-width:0.5;" width="131" x="209.5" y="435"/><line style="stroke:#181818;stroke-width:0.5;" x1="209.5" x2="340.5" y1="464.0679" y2="464.0679"/><text fill="#000000" font-family="sans-serif" font-size="14" lengthAdjust="spacing" textLength="95" x="227.5" y="454.9659">EnDestruction</text><text fill="#000000" font-family="sans-serif" font-size="12" lengthAdjust="spacing" textLength="111" x="214.5" y="481.896">entry : destructeur()</text></g><ellipse cx="16" cy="34.5" fill="#222222" rx="10" ry="10" style="stroke:#222222;stroke-width:1.0;"/><g id="Actif"><rect fill="#F1F1F1" height="50" rx="12.5" ry="12.5" style="stroke:#181818;stroke-width:0.5;" width="50" x="234" y="9.5"/><line style="stroke:#181818;stroke-width:0.5;" x1="234" x2="284" y1="38.5679" y2="38.5679"/><text fill="#000000" font-family="sans-serif" font-size="14" lengthAdjust="spacing" textLength="30" x="244" y="29.4659">Actif</text></g><g id="D&#233;sactiv&#233;"><rect fill="#F1F1F1" height="50" rx="12.5" ry="12.5" style="stroke:#181818;stroke-width:0.5;" width="84" x="265" y="159"/><line style="stroke:#181818;stroke-width:0.5;" x1="265" x2="349" y1="188.0679" y2="188.0679"/><text fill="#000000" font-family="sans-serif" font-size="14" lengthAdjust="spacing" textLength="64" x="275" y="178.9659">D&#233;sactiv&#233;</text></g><g id="Bloqu&#233;"><rect fill="#F1F1F1" height="50" rx="12.5" ry="12.5" style="stroke:#181818;stroke-width:0.5;" width="67" x="441.5" y="306"/><line style="stroke:#181818;stroke-width:0.5;" x1="441.5" x2="508.5" y1="335.0679" y2="335.0679"/><text fill="#000000" font-family="sans-serif" font-size="14" lengthAdjust="spacing" textLength="47" x="451.5" y="325.9659">Bloqu&#233;</text></g><ellipse cx="163" cy="462.5" fill="none" rx="11" ry="11" style="stroke:#222222;stroke-width:1.0;"/><ellipse cx="163" cy="462.5" fill="#222222" rx="6" ry="6" style="stroke:#222222;stroke-width:1.0;"/><!--link *start* to EnCr?ation--><g id="link_*start*_EnCr&#233;ation"><path d="M26.24,34.5 C37.86,34.5 43.48,34.5 55.1,34.5 " fill="none" id="*start*-to-EnCr&#233;ation" style="stroke:#181818;stroke-width:1.0;"/><polygon fill="#181818" points="61.1,34.5,52.1,30.5,56.1,34.5,52.1,38.5,61.1,34.5" style="stroke:#181818;stroke-width:1.0;"/></g><!--link EnCr?ation to Actif--><g id="link_EnCr&#233;ation_Actif"><path d="M198.53,34.5 C210.34,34.5 216.15,34.5 227.96,34.5 " fill="none" id="EnCr&#233;ation-to-Actif" style="stroke:#181818;stroke-width:1.0;"/><polygon fill="#181818" points="233.96,34.5,224.96,30.5,228.96,34.5,224.96,38.5,233.96,34.5" style="stroke:#181818;stroke-width:1.0;"/></g><!--link Actif to D?sactiv?--><g id="link_Actif_D&#233;sactiv&#233;"><path d="M233.68,51.05 C210.47,65.56 179.24,85.88 176,92 C168.31,106.54 166.85,115.33 176,129 C195.64,158.33 228.5391,170.5602 258.8391,176.6902 " fill="none" id="Actif-to-D&#233;sactiv&#233;" style="stroke:#181818;stroke-width:1.0;"/><polygon fill="#181818" points="264.72,177.88,256.6919,172.1748,259.8193,176.8885,255.1055,180.0159,264.72,177.88" style="stroke:#181818;stroke-width:1.0;"/><text fill="#000000" font-family="sans-serif" font-size="13" lengthAdjust="spacing" textLength="119" x="177" y="106.897">utilisateur d&#233;sactive</text><text fill="#000000" font-family="sans-serif" font-size="13" lengthAdjust="spacing" textLength="77" x="198" y="124.603">/ d&#233;sactiver()</text></g><!--link D?sactiv? to Actif--><g id="link_D&#233;sactiv&#233;_Actif"><path d="M309.06,158.66 C309.8,139.88 308.93,113.55 301,92 C296.7,80.3 292.8927,73.6396 285.3827,64.2296 " fill="none" id="D&#233;sactiv&#233;-to-Actif" style="stroke:#181818;stroke-width:1.0;"/><polygon fill="#181818" points="281.64,59.54,284.1277,69.0695,284.7589,63.448,290.3804,64.0792,281.64,59.54" style="stroke:#181818;stroke-width:1.0;"/><text fill="#000000" font-family="sans-serif" font-size="13" lengthAdjust="spacing" textLength="110" x="310" y="106.897">utilisateur r&#233;active</text><text fill="#000000" font-family="sans-serif" font-size="13" lengthAdjust="spacing" textLength="68" x="331" y="124.603">/ r&#233;activer()</text></g><!--link Actif to EnDestruction--><g id="link_Actif_EnDestruction"><path d="M233.65,51.39 C227.88,54.93 221.75,58.63 216,62 C192.31,75.87 176.24,68.53 162,92 C119.56,161.93 135.29,197.42 158,276 C176.13,338.73 218.6194,396.067 247.2394,430.117 " fill="none" id="Actif-to-EnDestruction" style="stroke:#181818;stroke-width:1.0;"/><polygon fill="#181818" points="251.1,434.71,248.3712,425.2467,247.8829,430.8825,242.2471,430.3942,251.1,434.71" style="stroke:#181818;stroke-width:1.0;"/><text fill="#000000" font-family="sans-serif" font-size="13" lengthAdjust="spacing" textLength="129" x="159" y="262.897">demande destruction</text></g><!--link Actif to Bloqu?--><g id="link_Actif_Bloqu&#233;"><path d="M284.04,36.27 C321.49,38.85 391.66,49.46 429,92 C482.86,153.36 481.9932,252.4195 478.1732,299.6995 " fill="none" id="Actif-to-Bloqu&#233;" style="stroke:#181818;stroke-width:1.0;"/><polygon fill="#181818" points="477.69,305.68,482.4018,297.0314,478.0927,300.6962,474.4278,296.3871,477.69,305.68" style="stroke:#181818;stroke-width:1.0;"/><text fill="#000000" font-family="sans-serif" font-size="13" lengthAdjust="spacing" textLength="83" x="476" y="180.397">admin bloque</text><text fill="#000000" font-family="sans-serif" font-size="13" lengthAdjust="spacing" textLength="63" x="486" y="198.103">/ bloquer()</text></g><!--link D?sactiv? to Bloqu?--><g id="link_D&#233;sactiv&#233;_Bloqu&#233;"><path d="M317.53,209.27 C327.21,229.28 343.2,257.31 364,276 C376.19,286.96 407.9459,301.7446 435.9659,313.7646 " fill="none" id="D&#233;sactiv&#233;-to-Bloqu&#233;" style="stroke:#181818;stroke-width:1.0;"/><polygon fill="#181818" points="441.48,316.13,434.7859,308.9058,436.885,314.1588,431.632,316.2579,441.48,316.13" style="stroke:#181818;stroke-width:1.0;"/><text fill="#000000" font-family="sans-serif" font-size="13" lengthAdjust="spacing" textLength="83" x="365" y="253.897">admin bloque</text><text fill="#000000" font-family="sans-serif" font-size="13" lengthAdjust="spacing" textLength="63" x="375" y="271.603">/ bloquer()</text></g><!--link D?sactiv? to EnDestruction--><g id="link_D&#233;sactiv&#233;_EnDestruction"><path d="M304.22,209.05 C298.26,260.56 284.9902,375.2198 278.7702,428.9298 " fill="none" id="D&#233;sactiv&#233;-to-EnDestruction" style="stroke:#181818;stroke-width:1.0;"/><polygon fill="#181818" points="278.08,434.89,283.0888,426.4099,278.6552,429.9232,275.1419,425.4896,278.08,434.89" style="stroke:#181818;stroke-width:1.0;"/><text fill="#000000" font-family="sans-serif" font-size="13" lengthAdjust="spacing" textLength="129" x="294" y="336.397">demande destruction</text></g><!--link Bloqu? to EnDestruction--><g id="link_Bloqu&#233;_EnDestruction"><path d="M441.07,353.97 C406.52,376.34 357.9664,407.7789 321.0564,431.6789 " fill="none" id="Bloqu&#233;-to-EnDestruction" style="stroke:#181818;stroke-width:1.0;"/><polygon fill="#181818" points="316.02,434.94,325.7486,433.4059,320.217,432.2224,321.4004,426.6907,316.02,434.94" style="stroke:#181818;stroke-width:1.0;"/><text fill="#000000" font-family="sans-serif" font-size="13" lengthAdjust="spacing" textLength="129" x="388" y="400.897">demande destruction</text></g><!--reverse link *end* to EnDestruction--><g id="link_*end*_EnDestruction"><path d="M180.38,462.5 C192.04,462.5 197.7,462.5 209.36,462.5 " fill="none" id="*end*-backto-EnDestruction" style="stroke:#181818;stroke-width:1.0;"/><polygon fill="#181818" points="174.38,462.5,183.38,466.5,179.38,462.5,183.38,458.5,174.38,462.5" style="stroke:#181818;stroke-width:1.0;"/></g><!--SRC=[dP4nJiGm44LxdsAwx29Pz1H8iA5R91ege1ZYIM8fSLXxZCGHk0Ljpk6BOIUADxkYMD4u_ixxVxxbejJOMEnx0aNGOzLgGn1-88oCx63prA7XvyVzjX2Ys0scresto7emKBLecI3QFrfzy9I8y3tPY84j6gSJw0hXuYd1WzdPCCxc6o33zYj-gqYmzHMJjvjjHakQJqzXHMjMl5ozWRIwQLdUhkF5UbG6xc9QBQOLPDHb61r6zHd66ErPTzfXYWQr_A5NSxrIQUZHVrvIKOz6KIwPYXpf-suu-6aIgbuRU4zwofztANlTI2wDpxgbU-LgMVpb_i_4I-wqv5xAdp2oepezHdmwyGi0]--></g></svg>