<?xml version="1.0" encoding="us-ascii" standalone="no"?><svg xmlns="http://www.w3.org/2000/svg" xmlns:xlink="http://www.w3.org/1999/xlink" contentStyleType="text/css" height="480px" preserveAspectRatio="none" style="width:1447px;height:480px;background:#FFFFFF;" version="1.1" viewBox="0 0 1447 480" width="1447px" zoomAndPan="magnify"><defs/><g><g id="EnCr&#233;ation"><rect fill="#F1F1F1" height="50" rx="12.5" ry="12.5" style="stroke:#181818;stroke-width:0.5;" width="124" x="764.07" y="7"/><line style="stroke:#181818;stroke-width:0.5;" x1="764.07" x2="888.07" y1="28.6406" y2="28.6406"/><text fill="#000000" font-family="sans-serif" font-size="10" lengthAdjust="spacing" textLength="55" x="798.57" y="21.2822">EnCr&#233;ation</text><text fill="#000000" font-family="sans-serif" font-size="10" lengthAdjust="spacing" textLength="104" x="769.07" y="42.9229">entry : constructeur()</text></g><g id="EnDestruction"><rect fill="#F1F1F1" height="50" rx="12.5" ry="12.5" style="stroke:#181818;stroke-width:0.5;" width="119" x="477.57" y="421"/><line style="stroke:#181818;stroke-width:0.5;" x1="477.57" x2="596.57" y1="442.6406" y2="442.6406"/><text fill="#000000" font-family="sans-serif" font-size="10" lengthAdjust="spacing" textLength="69" x="502.57" y="435.2822">EnDestruction</text><text fill="#000000" font-family="sans-serif" font-size="10" lengthAdjust="spacing" textLength="99" x="482.57" y="456.9229">entry : destructeur()</text></g><ellipse cx="719.07" cy="32" fill="#222222" rx="10" ry="10" style="stroke:#222222;stroke-width:1.0;"/><g id="VerificationPending"><rect fill="#F1F1F1" height="50" rx="12.5" ry="12.5" style="stroke:#181818;stroke-width:0.5;" width="113" x="379.57" y="134"/><line style="stroke:#181818;stroke-width:0.5;" x1="379.57" x2="492.57" y1="155.6406" y2="155.6406"/><text fill="#000000" font-family="sans-serif" font-size="10" lengthAdjust="spacing" textLength="93" x="389.57" y="148.2822">VerificationPending</text></g><g id="Sent"><rect fill="#F1F1F1" height="50" rx="12.5" ry="12.5" style="stroke:#181818;stroke-width:0.5;" width="50" x="1049.07" y="214"/><line style="stroke:#181818;stroke-width:0.5;" x1="1049.07" x2="1099.07" y1="235.6406" y2="235.6406"/><text fill="#000000" font-family="sans-serif" font-size="10" lengthAdjust="spacing" textLength="23" x="1062.57" y="228.2822">Sent</text></g><g id="Inappropriate"><rect fill="#F1F1F1" height="50" rx="12.5" ry="12.5" style="stroke:#181818;stroke-width:0.5;" width="85" x="438.57" y="294"/><line style="stroke:#181818;stroke-width:0.5;" x1="438.57" x2="523.57" y1="315.6406" y2="315.6406"/><text fill="#000000" font-family="sans-serif" font-size="10" lengthAdjust="spacing" textLength="65" x="448.57" y="308.2822">Inappropriate</text></g><g id="Hidden"><rect fill="#F1F1F1" height="50" rx="12.5" ry="12.5" style="stroke:#181818;stroke-width:0.5;" width="54" x="697.07" y="294"/><line style="stroke:#181818;stroke-width:0.5;" x1="697.07" x2="751.07" y1="315.6406" y2="315.6406"/><text fill="#000000" font-family="sans-serif" font-size="10" lengthAdjust="spacing" textLength="34" x="707.07" y="308.2822">Hidden</text></g><ellipse cx="431.07" cy="446" fill="none" rx="11" ry="11" style="stroke:#222222;stroke-width:1.0;"/><ellipse cx="431.07" cy="446" fill="#222222" rx="6" ry="6" style="stroke:#222222;stroke-width:1.0;"/><!--link *start* to EnCr?ation--><g id="link_*start*_EnCr&#233;ation"><path d="M729.1,32 C740.72,32 746.34,32 757.95,32 " fill="none" id="*start*-to-EnCr&#233;ation" style="stroke:#181818;stroke-width:1.0;"/><polygon fill="#181818" points="763.95,32,754.95,28,758.95,32,754.95,36,763.95,32" style="stroke:#181818;stroke-width:1.0;"/></g><!--link EnCr?ation to VerificationPending--><g id="link_EnCr&#233;ation_VerificationPending"><path d="M763.84,52.94 C689.11,76.9 570.5538,114.899 498.4038,138.019 " fill="none" id="EnCr&#233;ation-to-VerificationPending" style="stroke:#181818;stroke-width:1.0;"/><polygon fill="#181818" points="492.69,139.85,502.4813,140.9128,497.4515,138.3242,500.0401,133.2944,492.69,139.85" style="stroke:#181818;stroke-width:1.0;"/><text fill="#000000" font-family="sans-serif" font-size="13" lengthAdjust="spacing" textLength="304" x="656.07" y="100.0669">message owner not moderator / request_post()</text></g><!--link EnCr?ation to Sent--><g id="link_EnCr&#233;ation_Sent"><path d="M888.3,47.58 C915.06,55.99 945.53,68.65 969.07,87 C1013.77,121.84 1044.3199,175.572 1060.4799,208.552 " fill="none" id="EnCr&#233;ation-to-Sent" style="stroke:#181818;stroke-width:1.0;"/><polygon fill="#181818" points="1063.12,213.94,1062.7519,204.098,1060.9199,209.45,1055.5679,207.6181,1063.12,213.94" style="stroke:#181818;stroke-width:1.0;"/><text fill="#000000" font-family="sans-serif" font-size="13" lengthAdjust="spacing" textLength="306" x="989.07" y="100.0669">message owner is moderator / send_message()</text></g><!--link VerificationPending to EnDestruction--><g id="link_VerificationPending_EnDestruction"><path d="M379.26,167.78 C260.97,186.26 6,239.29 91.07,344 C196.44,473.69 297.27,379.27 459.07,421 C464.97,422.52 465.3226,422.5554 471.4226,424.3054 " fill="none" id="VerificationPending-to-EnDestruction" style="stroke:#181818;stroke-width:1.0;"/><polygon fill="#181818" points="477.19,425.96,469.642,419.6332,472.3839,424.5812,467.4359,427.3231,477.19,425.96" style="stroke:#181818;stroke-width:1.0;"/><text fill="#000000" font-family="sans-serif" font-size="13" lengthAdjust="spacing" textLength="328" x="92.07" y="323.5669">Message deleted by moderator / delete_message()</text></g><!--link VerificationPending to Inappropriate--><g id="link_VerificationPending_Inappropriate"><path d="M379.31,176.97 C361.7,185.2 344.25,197.09 334.07,214 C322.61,233.04 321.35,245.78 334.07,264 C335.67,266.29 389.8947,285.7956 432.7247,300.9756 " fill="none" id="VerificationPending-to-Inappropriate" style="stroke:#181818;stroke-width:1.0;"/><polygon fill="#181818" points="438.38,302.98,431.2333,296.2032,433.6672,301.3097,428.5608,303.7436,438.38,302.98" style="stroke:#181818;stroke-width:1.0;"/><text fill="#000000" font-family="sans-serif" font-size="13" lengthAdjust="spacing" textLength="348" x="335.07" y="243.5669">Message marked by moderator / mark_inappropriate()</text></g><!--link VerificationPending to Hidden--><g id="link_VerificationPending_Hidden"><path d="M492.64,165.66 C557.81,173.26 659.59,188.8 688.07,214 C710.97,234.26 718.5529,263.868 721.5829,287.688 " fill="none" id="VerificationPending-to-Hidden" style="stroke:#181818;stroke-width:1.0;"/><polygon fill="#181818" points="722.34,293.64,725.1723,284.2072,721.7091,288.68,717.2363,285.2167,722.34,293.64" style="stroke:#181818;stroke-width:1.0;"/><text fill="#000000" font-family="sans-serif" font-size="13" lengthAdjust="spacing" textLength="310" x="717.07" y="243.5669">Message hidden by moderator / hide_message()</text></g><!--link Hidden to EnDestruction--><g id="link_Hidden_EnDestruction"><path d="M715.1,344.29 C708.36,359.54 697.76,378.61 683.07,391 C658.49,411.74 630.982,423.2215 602.412,431.3315 " fill="none" id="Hidden-to-EnDestruction" style="stroke:#181818;stroke-width:1.0;"/><polygon fill="#181818" points="596.64,432.97,606.3902,434.3603,601.45,431.6046,604.2056,426.6644,596.64,432.97" style="stroke:#181818;stroke-width:1.0;"/><text fill="#000000" font-family="sans-serif" font-size="13" lengthAdjust="spacing" textLength="328" x="699.07" y="387.0669">Message deleted by moderator / delete_message()</text></g><!--link Inappropriate to EnDestruction--><g id="link_Inappropriate_EnDestruction"><path d="M438.5,334.74 C401.99,347.8 354.44,366.01 349.07,374 C344.86,380.27 344.49,385 349.07,391 C379.83,431.27 410.41,406.88 459.07,421 C465.06,422.74 465.5441,422.8625 471.7641,424.7325 " fill="none" id="Inappropriate-to-EnDestruction" style="stroke:#181818;stroke-width:1.0;"/><polygon fill="#181818" points="477.51,426.46,470.0427,420.0382,472.7217,425.0204,467.7394,427.6994,477.51,426.46" style="stroke:#181818;stroke-width:1.0;"/><text fill="#000000" font-family="sans-serif" font-size="13" lengthAdjust="spacing" textLength="328" x="350.07" y="387.0669">Message deleted by moderator / delete_message()</text></g><!--link Sent to EnDestruction--><g id="link_Sent_EnDestruction"><path d="M1075.74,264.14 C1076.61,298.07 1072.58,359.24 1036.07,391 C1003.49,419.35 728.1028,435.8758 602.8128,442.0258 " fill="none" id="Sent-to-EnDestruction" style="stroke:#181818;stroke-width:1.0;"/><polygon fill="#181818" points="596.82,442.32,606.0053,445.8739,601.814,442.0749,605.6131,437.8836,596.82,442.32" style="stroke:#181818;stroke-width:1.0;"/><text fill="#000000" font-family="sans-serif" font-size="13" lengthAdjust="spacing" textLength="363" x="1076.07" y="323.5669">Message owner deletes his message / delete_message()</text></g><!--reverse link *end* to EnDestruction--><g id="link_*end*_EnDestruction"><path d="M448.25,446 C459.98,446 465.71,446 477.44,446 " fill="none" id="*end*-backto-EnDestruction" style="stroke:#181818;stroke-width:1.0;"/><polygon fill="#181818" points="442.25,446,451.25,450,447.25,446,451.25,442,442.25,446" style="stroke:#181818;stroke-width:1.0;"/></g><!--SRC=[hPB1JiCm38RlUGhV1aWLSDs1om310GanYGj2KsZSDjgQ5CSL6eW7u55uZhqORZEDPamJX-KIvS_lptRY4KoyAspPacRh7UIL9aOeIJULVMrHZM3rnPe380EJTi5slg32tBf6awuXo3N2Xm9PrzxnrBuZd9_rvmVVEZFnv90wwLEfwBvo4rfznvHZGCUqb3qNC5ERCxPqTBonNc9KKxF1eLSzdJn3HhQiEBiOujKmLIPtZqYsi7altACprfLZg344NIBujwvIvnbgRr3Un1ES0g6yHE1PumDBhctYL4hQHjYG488acgqTGjXHGqzAUXt3tHffS86C1bwM2JJA_y3UEjqqv1koyg2_s5hJ_2-rKsTs6B67V6EDmK6bLN_UHeewB3C6GR8Eq7tIvU6mtU_kuyJ_Zc51MWsRITW1KogXP0iikdcLuLK_]--></g></svg>