<?xml version="1.0" encoding="us-ascii" standalone="no"?><svg xmlns="http://www.w3.org/2000/svg" xmlns:xlink="http://www.w3.org/1999/xlink" contentStyleType="text/css" height="494px" preserveAspectRatio="none" style="width:1719px;height:494px;background:#FFFFFF;" version="1.1" viewBox="0 0 1719 494" width="1719px" zoomAndPan="magnify"><defs/><g><g id="EnCr&#233;ation"><rect fill="#F1F1F1" height="50" rx="12.5" ry="12.5" style="stroke:#181818;stroke-width:0.5;" width="124" x="959.13" y="7"/><line style="stroke:#181818;stroke-width:0.5;" x1="959.13" x2="1083.13" y1="28.6406" y2="28.6406"/><text fill="#000000" font-family="sans-serif" font-size="10" lengthAdjust="spacing" textLength="55" x="993.63" y="21.2822">EnCr&#233;ation</text><text fill="#000000" font-family="sans-serif" font-size="10" lengthAdjust="spacing" textLength="104" x="964.13" y="42.9229">entry : constructeur()</text></g><g id="EnDestruction"><rect fill="#F1F1F1" height="50" rx="12.5" ry="12.5" style="stroke:#181818;stroke-width:0.5;" width="119" x="556.63" y="421"/><line style="stroke:#181818;stroke-width:0.5;" x1="556.63" x2="675.63" y1="442.6406" y2="442.6406"/><text fill="#000000" font-family="sans-serif" font-size="10" lengthAdjust="spacing" textLength="69" x="581.63" y="435.2822">EnDestruction</text><text fill="#000000" font-family="sans-serif" font-size="10" lengthAdjust="spacing" textLength="99" x="561.63" y="456.9229">entry : destructeur()</text></g><ellipse cx="914.13" cy="32" fill="#222222" rx="10" ry="10" style="stroke:#222222;stroke-width:1.0;"/><g id="VerificationPending"><rect fill="#F1F1F1" height="50" rx="12.5" ry="12.5" style="stroke:#181818;stroke-width:0.5;" width="113" x="550.63" y="134"/><line style="stroke:#181818;stroke-width:0.5;" x1="550.63" x2="663.63" y1="155.6406" y2="155.6406"/><text fill="#000000" font-family="sans-serif" font-size="10" lengthAdjust="spacing" textLength="93" x="560.63" y="148.2822">VerificationPending</text></g><g id="Sent"><rect fill="#F1F1F1" height="50" rx="12.5" ry="12.5" style="stroke:#181818;stroke-width:0.5;" width="50" x="1314.13" y="214"/><line style="stroke:#181818;stroke-width:0.5;" x1="1314.13" x2="1364.13" y1="235.6406" y2="235.6406"/><text fill="#000000" font-family="sans-serif" font-size="10" lengthAdjust="spacing" textLength="23" x="1327.63" y="228.2822">Sent</text></g><g id="Inappropriate"><rect fill="#F1F1F1" height="50" rx="12.5" ry="12.5" style="stroke:#181818;stroke-width:0.5;" width="85" x="900.63" y="294"/><line style="stroke:#181818;stroke-width:0.5;" x1="900.63" x2="985.63" y1="315.6406" y2="315.6406"/><text fill="#000000" font-family="sans-serif" font-size="10" lengthAdjust="spacing" textLength="65" x="910.63" y="308.2822">Inappropriate</text></g><g id="Hidden"><rect fill="#F1F1F1" height="50" rx="12.5" ry="12.5" style="stroke:#181818;stroke-width:0.5;" width="54" x="1021.13" y="294"/><line style="stroke:#181818;stroke-width:0.5;" x1="1021.13" x2="1075.13" y1="315.6406" y2="315.6406"/><text fill="#000000" font-family="sans-serif" font-size="10" lengthAdjust="spacing" textLength="34" x="1031.13" y="308.2822">Hidden</text></g><ellipse cx="510.13" cy="446" fill="none" rx="11" ry="11" style="stroke:#222222;stroke-width:1.0;"/><ellipse cx="510.13" cy="446" fill="#222222" rx="6" ry="6" style="stroke:#222222;stroke-width:1.0;"/><!--link *start* to EnCr?ation--><g id="link_*start*_EnCr&#233;ation"><path d="M924.16,32 C935.78,32 941.39,32 953.01,32 " fill="none" id="*start*-to-EnCr&#233;ation" style="stroke:#181818;stroke-width:1.0;"/><polygon fill="#181818" points="959.01,32,950.01,28,954.01,32,950.01,36,959.01,32" style="stroke:#181818;stroke-width:1.0;"/></g><!--link EnCr?ation to VerificationPending--><g id="link_EnCr&#233;ation_VerificationPending"><path d="M958.7,51.85 C878.62,76.03 746.6338,115.8753 669.4838,139.1753 " fill="none" id="EnCr&#233;ation-to-VerificationPending" style="stroke:#181818;stroke-width:1.0;"/><polygon fill="#181818" points="663.74,140.91,673.5121,142.1372,668.5265,139.4644,671.1992,134.4788,663.74,140.91" style="stroke:#181818;stroke-width:1.0;"/><text fill="#000000" font-family="sans-serif" font-size="13" lengthAdjust="spacing" textLength="304" x="840.13" y="100.0669">message owner not moderator / request_post()</text></g><!--link EnCr?ation to Sent--><g id="link_EnCr&#233;ation_Sent"><path d="M1083.38,54.13 C1106.04,62.93 1131.41,74.12 1153.13,87 C1216.1,124.33 1276.0418,177.5761 1310.0818,209.7861 " fill="none" id="EnCr&#233;ation-to-Sent" style="stroke:#181818;stroke-width:1.0;"/><polygon fill="#181818" points="1314.44,213.91,1310.652,204.8187,1310.8082,210.4734,1305.1535,210.6296,1314.44,213.91" style="stroke:#181818;stroke-width:1.0;"/><text fill="#000000" font-family="sans-serif" font-size="13" lengthAdjust="spacing" textLength="306" x="1178.13" y="100.0669">message owner is moderator / send_message()</text></g><!--link VerificationPending to EnDestruction--><g id="link_VerificationPending_EnDestruction"><path d="M550.37,161.85 C399.15,168.75 6,200.61 125.13,344 C244.45,487.62 356.83,376.36 538.13,421 C544.05,422.46 544.4077,422.4629 550.5077,424.1929 " fill="none" id="VerificationPending-to-EnDestruction" style="stroke:#181818;stroke-width:1.0;"/><polygon fill="#181818" points="556.28,425.83,548.7129,419.5262,551.4697,424.4658,546.5301,427.2226,556.28,425.83" style="stroke:#181818;stroke-width:1.0;"/><text fill="#000000" font-family="sans-serif" font-size="13" lengthAdjust="spacing" textLength="328" x="126.13" y="323.5669">Message deleted by moderator / delete_message()</text></g><!--link VerificationPending to EnDestruction--><g id="link_VerificationPending_EnDestruction"><path d="M580.51,184.2 C545.72,218.92 491.93,285.17 516.13,344 C529.18,375.72 552.8094,399.0793 576.0094,417.1793 " fill="none" id="VerificationPending-to-EnDestruction-1" style="stroke:#181818;stroke-width:1.0;"/><polygon fill="#181818" points="580.74,420.87,576.1045,412.1802,576.7978,417.7944,571.1836,418.4877,580.74,420.87" style="stroke:#181818;stroke-width:1.0;"/><text fill="#000000" font-family="sans-serif" font-size="13" lengthAdjust="spacing" textLength="365" x="517.13" y="323.5669">Message owner cancels his message / cancel_message()</text></g><!--link VerificationPending to Inappropriate--><g id="link_VerificationPending_Inappropriate"><path d="M597.92,184.26 C590.78,207.66 584.98,242.6 604.13,264 C644.24,308.83 814.44,280.83 873.13,294 C882.16,296.02 885.9416,296.9317 894.9216,299.8917 " fill="none" id="VerificationPending-to-Inappropriate" style="stroke:#181818;stroke-width:1.0;"/><polygon fill="#181818" points="900.62,301.77,893.3246,295.1536,895.8713,300.2047,890.8202,302.7515,900.62,301.77" style="stroke:#181818;stroke-width:1.0;"/><text fill="#000000" font-family="sans-serif" font-size="13" lengthAdjust="spacing" textLength="348" x="605.13" y="243.5669">Message marked by moderator / mark_inappropriate()</text></g><!--link VerificationPending to Hidden--><g id="link_VerificationPending_Hidden"><path d="M663.87,162.57 C750.87,167.51 912.03,180.95 958.13,214 C978.49,228.59 968.48,244.44 984.13,264 C994.67,277.17 1004.0475,285.8146 1016.3575,295.3546 " fill="none" id="VerificationPending-to-Hidden" style="stroke:#181818;stroke-width:1.0;"/><polygon fill="#181818" points="1021.1,299.03,1016.4364,290.3553,1017.1479,295.9672,1011.5359,296.6786,1021.1,299.03" style="stroke:#181818;stroke-width:1.0;"/><text fill="#000000" font-family="sans-serif" font-size="13" lengthAdjust="spacing" textLength="310" x="985.13" y="243.5669">Message hidden by moderator / hide_message()</text></g><!--link Hidden to EnDestruction--><g id="link_Hidden_EnDestruction"><path d="M1020.99,344.23 C1001.73,360.07 974.52,379.83 947.13,391 C857.09,427.72 749.6608,439.1786 681.6808,442.9386 " fill="none" id="Hidden-to-EnDestruction" style="stroke:#181818;stroke-width:1.0;"/><polygon fill="#181818" points="675.69,443.27,684.8972,446.7669,680.6824,442.9939,684.4554,438.7791,675.69,443.27" style="stroke:#181818;stroke-width:1.0;"/><text fill="#000000" font-family="sans-serif" font-size="13" lengthAdjust="spacing" textLength="328" x="979.13" y="387.0669">Message deleted by moderator / delete_message()</text></g><!--link Inappropriate to EnDestruction--><g id="link_Inappropriate_EnDestruction"><path d="M900.61,336.21 C891.64,339.17 882.15,341.96 873.13,344 C816.4,356.84 651.83,330.58 613.13,374 C602.05,386.43 602.024,399.6818 605.864,414.9218 " fill="none" id="Inappropriate-to-EnDestruction" style="stroke:#181818;stroke-width:1.0;"/><polygon fill="#181818" points="607.33,420.74,609.0098,411.0354,606.1083,415.8915,601.2522,412.9901,607.33,420.74" style="stroke:#181818;stroke-width:1.0;"/><text fill="#000000" font-family="sans-serif" font-size="13" lengthAdjust="spacing" textLength="328" x="614.13" y="387.0669">Message deleted by moderator / delete_message()</text></g><!--link Sent to EnDestruction--><g id="link_Sent_EnDestruction"><path d="M1343.62,264.28 C1348.32,298.09 1350.82,358.79 1316.13,391 C1269.68,434.13 842.5996,442.7547 681.8296,444.5047 " fill="none" id="Sent-to-EnDestruction" style="stroke:#181818;stroke-width:1.0;"/><polygon fill="#181818" points="675.83,444.57,684.873,448.4718,680.8297,444.5156,684.7859,440.4723,675.83,444.57" style="stroke:#181818;stroke-width:1.0;"/><text fill="#000000" font-family="sans-serif" font-size="13" lengthAdjust="spacing" textLength="363" x="1348.13" y="323.5669">Message owner deletes his message / delete_message()</text></g><!--reverse link *end* to EnDestruction--><g id="link_*end*_EnDestruction"><path d="M527.31,446 C539.04,446 544.77,446 556.5,446 " fill="none" id="*end*-backto-EnDestruction" style="stroke:#181818;stroke-width:1.0;"/><polygon fill="#181818" points="521.31,446,530.31,450,526.31,446,530.31,442,521.31,446" style="stroke:#181818;stroke-width:1.0;"/></g><!--SRC=[hPD1JiCm44NtFiNi2aXHOTi5cmA21HAY4Xk4AXDF4gkD7SOJeO8u04VX7BqOaxWgIOe0eNeJ-VlxpSnNF8AfTvdDQz9ilOEqqCG8EUcgi4yrgX6itrbp06HWqYxOnXTKM5XNQT8b13b6U5KWwy8xdjaNX9FZTd_hQsUcdXnI8xqf5TtdRahhZrXo0kYOLl9D1SnKfumr7HnkhMSOrRxPODUhxeyU826R5voSTl6gMogHipiaczcq5MxG6Ulo2PGOWiuH_7FJgVCCfJSecNY2CH1A4e7dbGyijOR4cRGqHDZG8mGfDDyuXF1D3osfD-i4hZT8WqjaDF2uwa6Z_0VibTDLHRuYAu5-OKjDYrrgeyvjzyOFv4jh37OwBThz42ag_d_w66YgNOhB8AomZNgyKJlis13qrXwIxIMuFsppv_m-Uhms77q7fbIFaYmnQzw2F0pr2G00]--></g></svg>