<?xml version="1.0" encoding="us-ascii" standalone="no"?><svg xmlns="http://www.w3.org/2000/svg" xmlns:xlink="http://www.w3.org/1999/xlink" contentStyleType="text/css" height="317px" preserveAspectRatio="none" style="width:1775px;height:317px;background:#FFFFFF;" version="1.1" viewBox="0 0 1775 317" width="1775px" zoomAndPan="magnify"><defs/><g><g id="EnCr&#233;ation"><rect fill="#F1F1F1" height="50" rx="12.5" ry="12.5" style="stroke:#181818;stroke-width:0.5;" width="124" x="1063.5" y="7"/><line style="stroke:#181818;stroke-width:0.5;" x1="1063.5" x2="1187.5" y1="28.6406" y2="28.6406"/><text fill="#000000" font-family="sans-serif" font-size="10" lengthAdjust="spacing" textLength="55" x="1098" y="21.2822">EnCr&#233;ation</text><text fill="#000000" font-family="sans-serif" font-size="10" lengthAdjust="spacing" textLength="104" x="1068.5" y="42.9229">entry : constructeur()</text></g><g id="EnDestruction"><rect fill="#F1F1F1" height="50" rx="12.5" ry="12.5" style="stroke:#181818;stroke-width:0.5;" width="119" x="1073" y="261"/><line style="stroke:#181818;stroke-width:0.5;" x1="1073" x2="1192" y1="282.6406" y2="282.6406"/><text fill="#000000" font-family="sans-serif" font-size="10" lengthAdjust="spacing" textLength="69" x="1098" y="275.2822">EnDestruction</text><text fill="#000000" font-family="sans-serif" font-size="10" lengthAdjust="spacing" textLength="99" x="1078" y="296.9229">entry : destructeur()</text></g><ellipse cx="1018.5" cy="32" fill="#222222" rx="10" ry="10" style="stroke:#222222;stroke-width:1.0;"/><g id="VerificationPending"><rect fill="#F1F1F1" height="50" rx="12.5" ry="12.5" style="stroke:#181818;stroke-width:0.5;" width="113" x="669" y="134"/><line style="stroke:#181818;stroke-width:0.5;" x1="669" x2="782" y1="155.6406" y2="155.6406"/><text fill="#000000" font-family="sans-serif" font-size="10" lengthAdjust="spacing" textLength="93" x="679" y="148.2822">VerificationPending</text></g><g id="Sent"><rect fill="#F1F1F1" height="50" rx="12.5" ry="12.5" style="stroke:#181818;stroke-width:0.5;" width="50" x="1365.5" y="134"/><line style="stroke:#181818;stroke-width:0.5;" x1="1365.5" x2="1415.5" y1="155.6406" y2="155.6406"/><text fill="#000000" font-family="sans-serif" font-size="10" lengthAdjust="spacing" textLength="23" x="1379" y="148.2822">Sent</text></g><g id="Inappropriate"><rect fill="#F1F1F1" height="50" rx="12.5" ry="12.5" style="stroke:#181818;stroke-width:0.5;" width="85" x="7" y="261"/><line style="stroke:#181818;stroke-width:0.5;" x1="7" x2="92" y1="282.6406" y2="282.6406"/><text fill="#000000" font-family="sans-serif" font-size="10" lengthAdjust="spacing" textLength="65" x="17" y="275.2822">Inappropriate</text></g><g id="Hidden"><rect fill="#F1F1F1" height="50" rx="12.5" ry="12.5" style="stroke:#181818;stroke-width:0.5;" width="54" x="412.5" y="261"/><line style="stroke:#181818;stroke-width:0.5;" x1="412.5" x2="466.5" y1="282.6406" y2="282.6406"/><text fill="#000000" font-family="sans-serif" font-size="10" lengthAdjust="spacing" textLength="34" x="422.5" y="275.2822">Hidden</text></g><ellipse cx="1026.5" cy="286" fill="none" rx="11" ry="11" style="stroke:#222222;stroke-width:1.0;"/><ellipse cx="1026.5" cy="286" fill="#222222" rx="6" ry="6" style="stroke:#222222;stroke-width:1.0;"/><!--link *start* to EnCr?ation--><g id="link_*start*_EnCr&#233;ation"><path d="M1028.53,32 C1040.15,32 1045.76,32 1057.38,32 " fill="none" id="*start*-to-EnCr&#233;ation" style="stroke:#181818;stroke-width:1.0;"/><polygon fill="#181818" points="1063.38,32,1054.38,28,1058.38,32,1054.38,36,1063.38,32" style="stroke:#181818;stroke-width:1.0;"/></g><!--link EnCr?ation to VerificationPending--><g id="link_EnCr&#233;ation_VerificationPending"><path d="M1063.48,52.15 C1057.75,53.82 1052.02,55.47 1046.5,57 C993.95,71.6 979.73,71.27 927.5,87 C877.85,101.95 827.9582,119.6107 787.7082,134.4807 " fill="none" id="EnCr&#233;ation-to-VerificationPending" style="stroke:#181818;stroke-width:1.0;"/><polygon fill="#181818" points="782.08,136.56,791.9085,137.1932,786.7702,134.8273,789.1361,129.6889,782.08,136.56" style="stroke:#181818;stroke-width:1.0;"/><text fill="#000000" font-family="sans-serif" font-size="13" lengthAdjust="spacing" textLength="304" x="928.5" y="100.0669">message owner not moderator / request_post()</text></g><!--link EnCr?ation to Sent--><g id="link_EnCr&#233;ation_Sent"><path d="M1176.59,57.1 C1233.15,83.78 1316.5733,123.1305 1359.7833,143.5105 " fill="none" id="EnCr&#233;ation-to-Sent" style="stroke:#181818;stroke-width:1.0;"/><polygon fill="#181818" points="1365.21,146.07,1358.7763,138.613,1360.6878,143.9371,1355.3636,145.8485,1365.21,146.07" style="stroke:#181818;stroke-width:1.0;"/><text fill="#000000" font-family="sans-serif" font-size="13" lengthAdjust="spacing" textLength="240" x="1274.5" y="100.0669">message owner is moderator / send()</text></g><!--link VerificationPending to EnDestruction--><g id="link_VerificationPending_EnDestruction"><path d="M782.3,162.24 C872.72,166.79 1044.24,179.79 1093.5,214 C1109.44,225.07 1117.4361,239.2172 1123.3461,255.0872 " fill="none" id="VerificationPending-to-EnDestruction" style="stroke:#181818;stroke-width:1.0;"/><polygon fill="#181818" points="1125.44,260.71,1126.0476,250.8799,1123.6951,256.0244,1118.5506,253.6718,1125.44,260.71" style="stroke:#181818;stroke-width:1.0;"/><text fill="#000000" font-family="sans-serif" font-size="13" lengthAdjust="spacing" textLength="262" x="1109.5" y="227.0669">Message deleted by moderator / delete()</text></g><!--link VerificationPending to EnDestruction--><g id="link_VerificationPending_EnDestruction"><path d="M714.72,184.32 C709.78,199.59 707.21,218.66 718.5,231 C743.88,258.74 1018.62,253.7 1055.5,261 C1061.13,262.12 1061.1273,261.964 1066.9073,263.484 " fill="none" id="VerificationPending-to-EnDestruction-1" style="stroke:#181818;stroke-width:1.0;"/><polygon fill="#181818" points="1072.71,265.01,1065.0233,258.8526,1067.8744,263.7384,1062.9886,266.5895,1072.71,265.01" style="stroke:#181818;stroke-width:1.0;"/><text fill="#000000" font-family="sans-serif" font-size="13" lengthAdjust="spacing" textLength="365" x="719.5" y="227.0669">Message owner cancels his message / cancel_message()</text></g><!--link VerificationPending to Inappropriate--><g id="link_VerificationPending_Inappropriate"><path d="M668.94,161.1 C518.63,164.51 117.59,177.01 71.5,214 C57.61,225.15 53.0289,238.9544 51.0889,254.8044 " fill="none" id="VerificationPending-to-Inappropriate" style="stroke:#181818;stroke-width:1.0;"/><polygon fill="#181818" points="50.36,260.76,55.4238,252.3126,50.9675,255.797,47.483,251.3407,50.36,260.76" style="stroke:#181818;stroke-width:1.0;"/><text fill="#000000" font-family="sans-serif" font-size="13" lengthAdjust="spacing" textLength="348" x="72.5" y="227.0669">Message marked by moderator / mark_inappropriate()</text></g><!--link VerificationPending to Hidden--><g id="link_VerificationPending_Hidden"><path d="M668.81,162.29 C593.18,166.67 465.44,179.15 436.5,214 C425.86,226.81 425.852,240.0324 429.562,255.1724 " fill="none" id="VerificationPending-to-Hidden" style="stroke:#181818;stroke-width:1.0;"/><polygon fill="#181818" points="430.99,261,432.733,251.3066,429.8,256.1437,424.9629,253.2106,430.99,261" style="stroke:#181818;stroke-width:1.0;"/><text fill="#000000" font-family="sans-serif" font-size="13" lengthAdjust="spacing" textLength="244" x="437.5" y="227.0669">Message hidden by moderator / hide()</text></g><!--link Sent to EnDestruction--><g id="link_Sent_EnDestruction"><path d="M1400.91,184.25 C1405.59,199.29 1408,218.15 1397.5,231 C1372.07,262.14 1268.0608,275.3001 1198.0208,280.9201 " fill="none" id="Sent-to-EnDestruction" style="stroke:#181818;stroke-width:1.0;"/><polygon fill="#181818" points="1192.04,281.4,1201.3311,284.6673,1197.024,281.0001,1200.6912,276.693,1192.04,281.4" style="stroke:#181818;stroke-width:1.0;"/><text fill="#000000" font-family="sans-serif" font-size="13" lengthAdjust="spacing" textLength="363" x="1404.5" y="227.0669">Message owner deletes his message / delete_message()</text></g><!--reverse link *end* to EnDestruction--><g id="link_*end*_EnDestruction"><path d="M1043.68,286 C1055.41,286 1061.14,286 1072.87,286 " fill="none" id="*end*-backto-EnDestruction" style="stroke:#181818;stroke-width:1.0;"/><polygon fill="#181818" points="1037.68,286,1046.68,290,1042.68,286,1046.68,282,1037.68,286" style="stroke:#181818;stroke-width:1.0;"/></g><!--SRC=[bP91JiCm44NtFiNi2aXHOTi5cmA21HAY4Xk4AXDF4wkD7SOJeO8u04VX7BqOuxWgIQYAyCRoz_ZzyRT7CFLkOOk6D5ll82yrCK91kYxjIuDg19jFrXm06PYq2pRM1HMMrjMQT0L1jX7U5SYuyevdzWtXxBHTt_l6cQadXnIb3wLIzQMRqkOhMKu07TDQvbp0J4tEsD3HyQxq0fFQBpROhLMF9q-GaIrApiwxUDMrocJl0SakRDuAT-YCTSK4AWn15mZ-DNRgF4Fb3Kecdc0CX994u7dj0ulNa3YJbeO86tg484PoSeztI-ZTSGAtMvJ15J8QU5xtO4a-WBjnkgx9rsGbm1zSfMdvcnRLkUsUE42-jiPWfyEoNG-HekB_Rvk2oxNBSHM44NQHZhVgV2l4zuwX_qrBKGrfIUtIL8-IhN0Hlv7yAVKD]--></g></svg>