<?xml version="1.0" encoding="us-ascii" standalone="no"?><svg xmlns="http://www.w3.org/2000/svg" xmlns:xlink="http://www.w3.org/1999/xlink" contentStyleType="text/css" height="756px" preserveAspectRatio="none" style="width:1360px;height:756px;background:#FFFFFF;" version="1.1" viewBox="0 0 1360 756" width="1360px" zoomAndPan="magnify"><defs/><g><rect fill="#FFFFFF" height="618.8906" style="stroke:#181818;stroke-width:1.0;" width="10" x="379.5" y="112.4297"/><rect fill="#FFFFFF" height="25" style="stroke:#181818;stroke-width:1.0;" width="10" x="384.5" y="173.6953"/><rect fill="#FFFFFF" height="25" style="stroke:#181818;stroke-width:1.0;" width="10" x="384.5" y="266.9609"/><rect fill="#FFFFFF" height="14" style="stroke:#181818;stroke-width:1.0;" width="10" x="746.5" y="400.4922"/><rect fill="#FFFFFF" height="207.5625" style="stroke:#181818;stroke-width:1.0;" width="10" x="746.5" y="467.7578"/><rect fill="#FFFFFF" height="25" style="stroke:#181818;stroke-width:1.0;" width="10" x="751.5" y="629.3203"/><rect fill="#FFFFFF" height="16.1641" style="stroke:#181818;stroke-width:1.0;" width="10" x="1167.5" y="506.8906"/><rect fill="#FFFFFF" height="25" style="stroke:#181818;stroke-width:1.0;" width="10" x="1167.5" y="560.1875"/><rect fill="none" height="590.8906" style="stroke:#000000;stroke-width:1.5;" width="1076.5" x="278" y="127.4297"/><rect fill="none" height="490.625" style="stroke:#000000;stroke-width:1.5;" width="1056.5" x="288" y="220.6953"/><rect fill="none" height="390.3594" style="stroke:#000000;stroke-width:1.5;" width="1036.5" x="298" y="313.9609"/><rect fill="none" height="359.2266" style="stroke:#000000;stroke-width:1.5;" width="1016.5" x="308" y="338.0938"/><rect fill="none" height="328.0938" style="stroke:#000000;stroke-width:1.5;" width="996.5" x="318" y="362.2266"/><rect fill="none" height="253.8281" style="stroke:#000000;stroke-width:1.5;" width="976.5" x="328" y="429.4922"/><line style="stroke:#181818;stroke-width:0.5;stroke-dasharray:5.0,5.0;" x1="44" x2="44" y1="81.2969" y2="749.3203"/><line style="stroke:#181818;stroke-width:0.5;stroke-dasharray:5.0,5.0;" x1="384" x2="384" y1="81.2969" y2="749.3203"/><line style="stroke:#181818;stroke-width:0.5;stroke-dasharray:5.0,5.0;" x1="751" x2="751" y1="81.2969" y2="749.3203"/><line style="stroke:#181818;stroke-width:0.5;stroke-dasharray:5.0,5.0;" x1="1172.5" x2="1172.5" y1="506.4063" y2="749.3203"/><text fill="#000000" font-family="sans-serif" font-size="14" lengthAdjust="spacing" text-decoration="underline" textLength="73" x="5" y="77.9951">:Utilisateur</text><ellipse cx="44.5" cy="13.5" fill="#FFFFFF" rx="8" ry="8" style="stroke:#181818;stroke-width:0.5;"/><path d="M44.5,21.5 L44.5,48.5 M31.5,29.5 L57.5,29.5 M44.5,48.5 L31.5,63.5 M44.5,48.5 L57.5,63.5 " fill="none" style="stroke:#181818;stroke-width:0.5;"/><rect fill="#FFFFFF" height="30.2969" rx="2.5" ry="2.5" style="stroke:#181818;stroke-width:0.5;" width="93" x="338" y="50"/><text fill="#000000" font-family="sans-serif" font-size="14" lengthAdjust="spacing" text-decoration="underline" textLength="79" x="345" y="69.9951">m:MiniSocs</text><rect fill="#FFFFFF" height="30.2969" rx="2.5" ry="2.5" style="stroke:#181818;stroke-width:0.5;" width="125" x="689" y="50"/><text fill="#000000" font-family="sans-serif" font-size="14" lengthAdjust="spacing" text-decoration="underline" textLength="111" x="696" y="69.9951">rs:ReseauSocial</text><rect fill="#FFFFFF" height="618.8906" style="stroke:#181818;stroke-width:1.0;" width="10" x="379.5" y="112.4297"/><rect fill="#FFFFFF" height="25" style="stroke:#181818;stroke-width:1.0;" width="10" x="384.5" y="173.6953"/><rect fill="#FFFFFF" height="25" style="stroke:#181818;stroke-width:1.0;" width="10" x="384.5" y="266.9609"/><rect fill="#FFFFFF" height="14" style="stroke:#181818;stroke-width:1.0;" width="10" x="746.5" y="400.4922"/><rect fill="#FFFFFF" height="207.5625" style="stroke:#181818;stroke-width:1.0;" width="10" x="746.5" y="467.7578"/><rect fill="#FFFFFF" height="25" style="stroke:#181818;stroke-width:1.0;" width="10" x="751.5" y="629.3203"/><rect fill="#FFFFFF" height="16.1641" style="stroke:#181818;stroke-width:1.0;" width="10" x="1167.5" y="506.8906"/><rect fill="#FFFFFF" height="25" style="stroke:#181818;stroke-width:1.0;" width="10" x="1167.5" y="560.1875"/><polygon fill="#181818" points="367.5,108.4297,377.5,112.4297,367.5,116.4297,371.5,112.4297" style="stroke:#181818;stroke-width:1.0;"/><line style="stroke:#181818;stroke-width:1.0;" x1="44.5" x2="373.5" y1="112.4297" y2="112.4297"/><text fill="#000000" font-family="sans-serif" font-size="13" lengthAdjust="spacing" textLength="316" x="51.5" y="107.3638">posterMessageRS(pseudo, contenu, nomReseau)</text><path d="M278,127.4297 L348,127.4297 L348,134.5625 L338,144.5625 L278,144.5625 L278,127.4297 " fill="#EEEEEE" style="stroke:#000000;stroke-width:1.5;"/><rect fill="none" height="590.8906" style="stroke:#000000;stroke-width:1.5;" width="1076.5" x="278" y="127.4297"/><text fill="#000000" font-family="sans-serif" font-size="13" font-weight="bold" lengthAdjust="spacing" textLength="25" x="293" y="140.4966">opt</text><text fill="#000000" font-family="sans-serif" font-size="11" font-weight="bold" lengthAdjust="spacing" textLength="185" x="363" y="139.6401">[pseudo non null &#8743; non vide]</text><line style="stroke:#181818;stroke-width:1.0;" x1="389.5" x2="436.5" y1="160.6953" y2="160.6953"/><line style="stroke:#181818;stroke-width:1.0;" x1="436.5" x2="436.5" y1="160.6953" y2="173.6953"/><line style="stroke:#181818;stroke-width:1.0;" x1="395.5" x2="436.5" y1="173.6953" y2="173.6953"/><polygon fill="#181818" points="405.5,169.6953,395.5,173.6953,405.5,177.6953,401.5,173.6953" style="stroke:#181818;stroke-width:1.0;"/><text fill="#000000" font-family="sans-serif" font-size="13" lengthAdjust="spacing" textLength="270" x="401.5" y="155.6294">u=chercherUtilisateur(pseudo): Utilisateur</text><line style="stroke:#181818;stroke-width:1.0;stroke-dasharray:2.0,2.0;" x1="394.5" x2="436.5" y1="197.6953" y2="197.6953"/><line style="stroke:#181818;stroke-width:1.0;stroke-dasharray:2.0,2.0;" x1="436.5" x2="436.5" y1="197.6953" y2="210.6953"/><line style="stroke:#181818;stroke-width:1.0;stroke-dasharray:2.0,2.0;" x1="389.5" x2="436.5" y1="210.6953" y2="210.6953"/><polygon fill="#181818" points="399.5,206.6953,389.5,210.6953,399.5,214.6953,395.5,210.6953" style="stroke:#181818;stroke-width:1.0;"/><path d="M288,220.6953 L358,220.6953 L358,227.8281 L348,237.8281 L288,237.8281 L288,220.6953 " fill="#EEEEEE" style="stroke:#000000;stroke-width:1.5;"/><rect fill="none" height="490.625" style="stroke:#000000;stroke-width:1.5;" width="1056.5" x="288" y="220.6953"/><text fill="#000000" font-family="sans-serif" font-size="13" font-weight="bold" lengthAdjust="spacing" textLength="25" x="303" y="233.7622">opt</text><text fill="#000000" font-family="sans-serif" font-size="11" font-weight="bold" lengthAdjust="spacing" textLength="212" x="373" y="232.9058">[nomReseau non null &#8743; non vide]</text><line style="stroke:#181818;stroke-width:1.0;" x1="389.5" x2="436.5" y1="253.9609" y2="253.9609"/><line style="stroke:#181818;stroke-width:1.0;" x1="436.5" x2="436.5" y1="253.9609" y2="266.9609"/><line style="stroke:#181818;stroke-width:1.0;" x1="395.5" x2="436.5" y1="266.9609" y2="266.9609"/><polygon fill="#181818" points="405.5,262.9609,395.5,266.9609,405.5,270.9609,401.5,266.9609" style="stroke:#181818;stroke-width:1.0;"/><text fill="#000000" font-family="sans-serif" font-size="13" lengthAdjust="spacing" textLength="343" x="401.5" y="248.895">rs=chercherReseauSocial(nomReseau): ReseauSocial</text><line style="stroke:#181818;stroke-width:1.0;stroke-dasharray:2.0,2.0;" x1="394.5" x2="436.5" y1="290.9609" y2="290.9609"/><line style="stroke:#181818;stroke-width:1.0;stroke-dasharray:2.0,2.0;" x1="436.5" x2="436.5" y1="290.9609" y2="303.9609"/><line style="stroke:#181818;stroke-width:1.0;stroke-dasharray:2.0,2.0;" x1="389.5" x2="436.5" y1="303.9609" y2="303.9609"/><polygon fill="#181818" points="399.5,299.9609,389.5,303.9609,399.5,307.9609,395.5,303.9609" style="stroke:#181818;stroke-width:1.0;"/><path d="M298,313.9609 L368,313.9609 L368,321.0938 L358,331.0938 L298,331.0938 L298,313.9609 " fill="#EEEEEE" style="stroke:#000000;stroke-width:1.5;"/><rect fill="none" height="390.3594" style="stroke:#000000;stroke-width:1.5;" width="1036.5" x="298" y="313.9609"/><text fill="#000000" font-family="sans-serif" font-size="13" font-weight="bold" lengthAdjust="spacing" textLength="25" x="313" y="327.0278">opt</text><text fill="#000000" font-family="sans-serif" font-size="11" font-weight="bold" lengthAdjust="spacing" textLength="190" x="383" y="326.1714">[contenu non null &#8743; non vide]</text><path d="M308,338.0938 L378,338.0938 L378,345.2266 L368,355.2266 L308,355.2266 L308,338.0938 " fill="#EEEEEE" style="stroke:#000000;stroke-width:1.5;"/><rect fill="none" height="359.2266" style="stroke:#000000;stroke-width:1.5;" width="1016.5" x="308" y="338.0938"/><text fill="#000000" font-family="sans-serif" font-size="13" font-weight="bold" lengthAdjust="spacing" textLength="25" x="323" y="351.1606">opt</text><text fill="#000000" font-family="sans-serif" font-size="11" font-weight="bold" lengthAdjust="spacing" textLength="266" x="393" y="350.3042">[u != null et u.getEtatCompte() == ACTIF]</text><path d="M318,362.2266 L388,362.2266 L388,369.3594 L378,379.3594 L318,379.3594 L318,362.2266 " fill="#EEEEEE" style="stroke:#000000;stroke-width:1.5;"/><rect fill="none" height="328.0938" style="stroke:#000000;stroke-width:1.5;" width="996.5" x="318" y="362.2266"/><text fill="#000000" font-family="sans-serif" font-size="13" font-weight="bold" lengthAdjust="spacing" textLength="25" x="333" y="375.2935">opt</text><text fill="#000000" font-family="sans-serif" font-size="11" font-weight="bold" lengthAdjust="spacing" textLength="231" x="403" y="374.437">[rs != null et rs.getOuvert() == true]</text><polygon fill="#181818" points="734.5,396.4922,744.5,400.4922,734.5,404.4922,738.5,400.4922" style="stroke:#181818;stroke-width:1.0;"/><line style="stroke:#181818;stroke-width:1.0;" x1="389.5" x2="740.5" y1="400.4922" y2="400.4922"/><text fill="#000000" font-family="sans-serif" font-size="13" lengthAdjust="spacing" textLength="272" x="396.5" y="395.4263">m=getMembrefromUtilisateur(u): Membre</text><polygon fill="#181818" points="400.5,410.4922,390.5,414.4922,400.5,418.4922,396.5,414.4922" style="stroke:#181818;stroke-width:1.0;"/><line style="stroke:#181818;stroke-width:1.0;stroke-dasharray:2.0,2.0;" x1="394.5" x2="750.5" y1="414.4922" y2="414.4922"/><path d="M328,429.4922 L398,429.4922 L398,436.625 L388,446.625 L328,446.625 L328,429.4922 " fill="#EEEEEE" style="stroke:#000000;stroke-width:1.5;"/><rect fill="none" height="253.8281" style="stroke:#000000;stroke-width:1.5;" width="976.5" x="328" y="429.4922"/><text fill="#000000" font-family="sans-serif" font-size="13" font-weight="bold" lengthAdjust="spacing" textLength="25" x="343" y="442.5591">opt</text><text fill="#000000" font-family="sans-serif" font-size="11" font-weight="bold" lengthAdjust="spacing" textLength="375" x="413" y="441.7026">[m != null et m.getPseudoParticulier() non null &#8743; non vide]</text><polygon fill="#181818" points="734.5,463.7578,744.5,467.7578,734.5,471.7578,738.5,467.7578" style="stroke:#181818;stroke-width:1.0;"/><line style="stroke:#181818;stroke-width:1.0;" x1="389.5" x2="740.5" y1="467.7578" y2="467.7578"/><text fill="#000000" font-family="sans-serif" font-size="13" lengthAdjust="spacing" textLength="185" x="396.5" y="462.6919">ajouterMessage(contenu, m)</text><polygon fill="#181818" points="1104.5,492.8906,1114.5,496.8906,1104.5,500.8906,1108.5,496.8906" style="stroke:#181818;stroke-width:1.0;"/><line style="stroke:#181818;stroke-width:1.0;" x1="756.5" x2="1110.5" y1="496.8906" y2="496.8906"/><text fill="#000000" font-family="sans-serif" font-size="13" lengthAdjust="spacing" textLength="336" x="763.5" y="491.8247">msg=&#171;create(contenu, m, Verification_Pending, rs)&#187;</text><rect fill="#FFFFFF" height="30.2969" rx="2.5" ry="2.5" style="stroke:#181818;stroke-width:0.5;" width="112" x="1116.5" y="475.7578"/><text fill="#000000" font-family="sans-serif" font-size="14" lengthAdjust="spacing" text-decoration="underline" textLength="98" x="1123.5" y="495.7529">msg:Message</text><polygon fill="#181818" points="767.5,519.0547,757.5,523.0547,767.5,527.0547,763.5,523.0547" style="stroke:#181818;stroke-width:1.0;"/><line style="stroke:#181818;stroke-width:1.0;stroke-dasharray:2.0,2.0;" x1="761.5" x2="1171.5" y1="523.0547" y2="523.0547"/><line style="stroke:#181818;stroke-width:1.0;" x1="1172.5" x2="1219.5" y1="547.1875" y2="547.1875"/><line style="stroke:#181818;stroke-width:1.0;" x1="1219.5" x2="1219.5" y1="547.1875" y2="560.1875"/><line style="stroke:#181818;stroke-width:1.0;" x1="1178.5" x2="1219.5" y1="560.1875" y2="560.1875"/><polygon fill="#181818" points="1188.5,556.1875,1178.5,560.1875,1188.5,564.1875,1184.5,560.1875" style="stroke:#181818;stroke-width:1.0;"/><text fill="#000000" font-family="sans-serif" font-size="13" lengthAdjust="spacing" textLength="108" x="1184.5" y="542.1216">definirEtatInitial()</text><line style="stroke:#181818;stroke-width:1.0;stroke-dasharray:2.0,2.0;" x1="1177.5" x2="1219.5" y1="584.1875" y2="584.1875"/><line style="stroke:#181818;stroke-width:1.0;stroke-dasharray:2.0,2.0;" x1="1219.5" x2="1219.5" y1="584.1875" y2="597.1875"/><line style="stroke:#181818;stroke-width:1.0;stroke-dasharray:2.0,2.0;" x1="1172.5" x2="1219.5" y1="597.1875" y2="597.1875"/><polygon fill="#181818" points="1182.5,593.1875,1172.5,597.1875,1182.5,601.1875,1178.5,597.1875" style="stroke:#181818;stroke-width:1.0;"/><line style="stroke:#181818;stroke-width:1.0;" x1="756.5" x2="803.5" y1="616.3203" y2="616.3203"/><line style="stroke:#181818;stroke-width:1.0;" x1="803.5" x2="803.5" y1="616.3203" y2="629.3203"/><line style="stroke:#181818;stroke-width:1.0;" x1="762.5" x2="803.5" y1="629.3203" y2="629.3203"/><polygon fill="#181818" points="772.5,625.3203,762.5,629.3203,772.5,633.3203,768.5,629.3203" style="stroke:#181818;stroke-width:1.0;"/><text fill="#000000" font-family="sans-serif" font-size="13" lengthAdjust="spacing" textLength="62" x="768.5" y="611.2544">add(msg)</text><line style="stroke:#181818;stroke-width:1.0;stroke-dasharray:2.0,2.0;" x1="761.5" x2="803.5" y1="653.3203" y2="653.3203"/><line style="stroke:#181818;stroke-width:1.0;stroke-dasharray:2.0,2.0;" x1="803.5" x2="803.5" y1="653.3203" y2="666.3203"/><line style="stroke:#181818;stroke-width:1.0;stroke-dasharray:2.0,2.0;" x1="756.5" x2="803.5" y1="666.3203" y2="666.3203"/><polygon fill="#181818" points="766.5,662.3203,756.5,666.3203,766.5,670.3203,762.5,666.3203" style="stroke:#181818;stroke-width:1.0;"/><polygon fill="#181818" points="400.5,671.3203,390.5,675.3203,400.5,679.3203,396.5,675.3203" style="stroke:#181818;stroke-width:1.0;"/><line style="stroke:#181818;stroke-width:1.0;stroke-dasharray:2.0,2.0;" x1="394.5" x2="750.5" y1="675.3203" y2="675.3203"/><polygon fill="#181818" points="55.5,727.3203,45.5,731.3203,55.5,735.3203,51.5,731.3203" style="stroke:#181818;stroke-width:1.0;"/><line style="stroke:#181818;stroke-width:1.0;stroke-dasharray:2.0,2.0;" x1="49.5" x2="383.5" y1="731.3203" y2="731.3203"/><!--SRC=[bLDBRjim45rRfvXcOmbnSm0XDf0wBH2WHesaQPS6Gurb9YAfycFa23r6TuNFuPlq91cAYgIaJj8kAF4pxpF3uVXSiD8mAH4A1BlV_V2eE4Awh9XorulFsJX9ndEjrgBqXZcX5V0DCmw1OFL6KFmusGW2hxLsD_e-iNT2rOmumM9aMrAyuA8cnW-CtvL6UrNCTQKDVDy8XmSWPznfSpWu6P_lTxnYhPi2BJ3kq1iBw9fbtUjPI8lzxdR_2_1UMDVii2tze69zkfGa2u9mj5hbrqvKmhB0k5eT0RFWBPfaG1h2PBuGIbnfRjiWISQkklgnBNAeo8j4Qrc9TjAikDdl6jisb7leSqBc-Sau2LhmVWOIZeyXXrfRXsOHIIwlqjgYB_G4k5OEbP-0ql8IBJAV9Rfs4CzfLu7oLGL_Vlvk5bkweGI8jQVsKxv14yOWurOWos6mIK23pXj5ao3IQRweyrJ9s4ugugXiWbLfxps7uK53q2b6pJRXLnHZd8TtqnX0pU1FIdGV7NDpBMk7QGRJAPpDlrvyQX4HGvqp01aRK5_y5esB26SyTe0sDMe1O_EXwxOFYAn9Maw9PO7onk3QQ3ciSSWtdWnO1_dspkJGc0o-bitzn1VbAu66BBvMa_-np6wrxxijxNfCPa_8HjmW9TAy0blcRVZZCx1b5pnwJR5rT92XhQ0jfwUdKMnWPWBVq8YruCr3MYrH5KAL4-BCPhDU-razHwCNnTuqKk2Qthe9ZNIXX0kjcms8dolzGzPlt4DHf2IUlPZCmNwXEYH_pnzdyH- -ORJW1m00]--></g></svg>